<svg class="marks" width="1158" height="552" viewBox="0 0 1158 552" version="1.1" xmlns="http://www.w3.org/2000/svg" xmlns:xlink="http://www.w3.org/1999/xlink"><g transform="translate(53,41)"><g class="mark-group role-frame root"><g transform="translate(0,0)"><path class="background" d="M0.5,0.5h1100v450h-1100Z" style="fill: none; stroke: #ddd;"></path><g><g class="mark-group role-axis"><g transform="translate(0.5,0.5)"><path class="background" d="M0,0h0v0h0Z" style="pointer-events: none; fill: none;"></path><g><g class="mark-rule role-axis-grid" style="pointer-events: none;"><line transform="translate(0,450)" x2="1100" y2="0" style="fill: none; stroke: #ddd; stroke-width: 1; opacity: 1;"></line><line transform="translate(0,400)" x2="1100" y2="0" style="fill: none; stroke: #ddd; stroke-width: 1; opacity: 1;"></line><line transform="translate(0,350)" x2="1100" y2="0" style="fill: none; stroke: #ddd; stroke-width: 1; opacity: 1;"></line><line transform="translate(0,300)" x2="1100" y2="0" style="fill: none; stroke: #ddd; stroke-width: 1; opacity: 1;"></line><line transform="translate(0,250)" x2="1100" y2="0" style="fill: none; stroke: #ddd; stroke-width: 1; opacity: 1;"></line><line transform="translate(0,200)" x2="1100" y2="0" style="fill: none; stroke: #ddd; stroke-width: 1; opacity: 1;"></line><line transform="translate(0,150)" x2="1100" y2="0" style="fill: none; stroke: #ddd; stroke-width: 1; opacity: 1;"></line><line transform="translate(0,100)" x2="1100" y2="0" style="fill: none; stroke: #ddd; stroke-width: 1; opacity: 1;"></line><line transform="translate(0,50)" x2="1100" y2="0" style="fill: none; stroke: #ddd; stroke-width: 1; opacity: 1;"></line><line transform="translate(0,0)" x2="1100" y2="0" style="fill: none; stroke: #ddd; stroke-width: 1; opacity: 1;"></line></g></g></g></g><g class="mark-rect role-mark marks"><path d="M1018.875,320.33155918761213h24.75v129.66844081238787h-24.75Z" style="fill: #ff9da6;"></path><path d="M716.375,217.1967875911755h24.75v232.8032124088245h-24.75Z" style="fill: #b279a2;"></path><path d="M963.875,319.9501936912009h24.75v130.04980630879908h-24.75Z" style="fill: #eeca3b;"></path><path d="M578.875,254.3802124667586h24.75v195.6197875332414h-24.75Z" style="fill: #f58518;"></path><path d="M413.875,67.67328976417093h24.75v382.32671023582907h-24.75Z" style="fill: #eeca3b;"></path><path d="M28.875,191.96604422726938h24.75v258.0339557727306h-24.75Z" style="fill: #f58518;"></path><path d="M743.875,371.7930187894747h24.75v78.20698121052533h-24.75Z" style="fill: #ff9da6;"></path><path d="M358.875,315.1191102011454h24.75v134.88088979885458h-24.75Z" style="fill: #72b7b2;"></path><path d="M798.875,307.406703242979h24.75v142.593296757021h-24.75Z" style="fill: #bab0ac;"></path><path d="M1046.375,264.47072072072075h24.75v185.52927927927925h-24.75Z" style="fill: #9d755d;"></path><path d="M56.375,218.46550443239147h24.75v231.53449556760853h-24.75Z" style="fill: #e45756;"></path><path d="M386.375,335.12591042226757h24.75v114.87408957773243h-24.75Z" style="fill: #54a24b;"></path><path d="M166.375,317.5651555572524h24.75v132.4348444427476h-24.75Z" style="fill: #b279a2;"></path><path d="M1073.875,205.15287612811306h24.75v244.84712387188694h-24.75Z" style="fill: #bab0ac;"></path><path d="M826.375,184.72910389680453h24.75v265.27089610319547h-24.75Z" style="fill: #4c78a8;"></path><path d="M331.375,173.33202380864157h24.75v276.66797619135843h-24.75Z" style="fill: #e45756;"></path><path d="M661.375,149.42201683593208h24.75v300.5779831640679h-24.75Z" style="fill: #54a24b;"></path><path d="M881.375,288.58655895168727h24.75v161.41344104831273h-24.75Z" style="fill: #e45756;"></path><path d="M193.875,167.3971257698833h24.75v282.6028742301167h-24.75Z" style="fill: #ff9da6;"></path><path d="M633.875,344.3550509345954h24.75v105.6449490654046h-24.75Z" style="fill: #72b7b2;"></path><path d="M111.375,269.01735323593016h24.75v180.98264676406984h-24.75Z" style="fill: #54a24b;"></path><path d="M468.875,45.416811496175h24.75v404.583188503825h-24.75Z" style="fill: #ff9da6;"></path><path d="M991.375,276.2315352248786h24.75v173.7684647751214h-24.75Z" style="fill: #b279a2;"></path><path d="M303.875,85.18681965283895h24.75v364.81318034716105h-24.75Z" style="fill: #f58518;"></path><path d="M138.875,286.3589246379789h24.75v163.64107536202113h-24.75Z" style="fill: #eeca3b;"></path><path d="M551.375,48.345549443592574h24.75v401.6544505564074h-24.75Z" style="fill: #4c78a8;"></path><path d="M276.375,188.92272310015693h24.75v261.07727689984307h-24.75Z" style="fill: #4c78a8;"></path><path d="M83.875,164.43061976583573h24.75v285.56938023416427h-24.75Z" style="fill: #72b7b2;"></path><path d="M606.375,137.77809046449192h24.75v312.2219095355081h-24.75Z" style="fill: #e45756;"></path><path d="M908.875,324.11047019922535h24.75v125.88952980077465h-24.75Z" style="fill: #72b7b2;"></path><path d="M688.875,241.64636219064897h24.75v208.35363780935103h-24.75Z" style="fill: #eeca3b;"></path><path d="M496.375,274.4366848460229h24.75v175.5633151539771h-24.75Z" style="fill: #9d755d;"></path><path d="M853.875,335.5275093953836h24.75v114.47249060461638h-24.75Z" style="fill: #f58518;"></path><path d="M936.375,226.89210996318866h24.75v223.10789003681134h-24.75Z" style="fill: #54a24b;"></path><path d="M441.375,252.00597407579951h24.75v197.99402592420049h-24.75Z" style="fill: #b279a2;"></path><path d="M523.875,248.83299972817358h24.75v201.16700027182642h-24.75Z" style="fill: #bab0ac;"></path><path d="M221.375,279.33034076944546h24.75v170.66965923055454h-24.75Z" style="fill: #9d755d;"></path><path d="M248.875,226.16719370669873h24.75v223.83280629330127h-24.75Z" style="fill: #bab0ac;"></path><path d="M771.375,182.3025545645237h24.75v267.6974454354763h-24.75Z" style="fill: #9d755d;"></path><path d="M1.375,240.0176258730604h24.75v209.9823741269396h-24.75Z" style="fill: #4c78a8;"></path></g><g class="mark-text role-title" style="pointer-events: none;"><text text-anchor="middle" transform="translate(526,-16)" style="font-family: sans-serif; font-size: 24px; font-weight: bold; fill: #000; opacity: 1;">Average Costs Attributable to Delays per Customer</text></g><g class="mark-group role-axis"><g transform="translate(0.5,450.5)"><path class="background" d="M0,0h0v0h0Z" style="pointer-events: none; fill: none;"></path><g><g class="mark-rule role-axis-tick" style="pointer-events: none;"><line transform="translate(13,0)" x2="0" y2="5" style="fill: none; stroke: #888; stroke-width: 1; opacity: 1;"></line><line transform="translate(40,0)" x2="0" y2="5" style="fill: none; stroke: #888; stroke-width: 1; opacity: 1;"></line><line transform="translate(68,0)" x2="0" y2="5" style="fill: none; stroke: #888; stroke-width: 1; opacity: 1;"></line><line transform="translate(95,0)" x2="0" y2="5" style="fill: none; stroke: #888; stroke-width: 1; opacity: 1;"></line><line transform="translate(123,0)" x2="0" y2="5" style="fill: none; stroke: #888; stroke-width: 1; opacity: 1;"></line><line transform="translate(150,0)" x2="0" y2="5" style="fill: none; stroke: #888; stroke-width: 1; opacity: 1;"></line><line transform="translate(178,0)" x2="0" y2="5" style="fill: none; stroke: #888; stroke-width: 1; opacity: 1;"></line><line transform="translate(205,0)" x2="0" y2="5" style="fill: none; stroke: #888; stroke-width: 1; opacity: 1;"></line><line transform="translate(233,0)" x2="0" y2="5" style="fill: none; stroke: #888; stroke-width: 1; opacity: 1;"></line><line transform="translate(260,0)" x2="0" y2="5" style="fill: none; stroke: #888; stroke-width: 1; opacity: 1;"></line><line transform="translate(288,0)" x2="0" y2="5" style="fill: none; stroke: #888; stroke-width: 1; opacity: 1;"></line><line transform="translate(315,0)" x2="0" y2="5" style="fill: none; stroke: #888; stroke-width: 1; opacity: 1;"></line><line transform="translate(343,0)" x2="0" y2="5" style="fill: none; stroke: #888; stroke-width: 1; opacity: 1;"></line><line transform="translate(370,0)" x2="0" y2="5" style="fill: none; stroke: #888; stroke-width: 1; opacity: 1;"></line><line transform="translate(398,0)" x2="0" y2="5" style="fill: none; stroke: #888; stroke-width: 1; opacity: 1;"></line><line transform="translate(425,0)" x2="0" y2="5" style="fill: none; stroke: #888; stroke-width: 1; opacity: 1;"></line><line transform="translate(453,0)" x2="0" y2="5" style="fill: none; stroke: #888; stroke-width: 1; opacity: 1;"></line><line transform="translate(480,0)" x2="0" y2="5" style="fill: none; stroke: #888; stroke-width: 1; opacity: 1;"></line><line transform="translate(508,0)" x2="0" y2="5" style="fill: none; stroke: #888; stroke-width: 1; opacity: 1;"></line><line transform="translate(535,0)" x2="0" y2="5" style="fill: none; stroke: #888; stroke-width: 1; opacity: 1;"></line><line transform="translate(563,0)" x2="0" y2="5" style="fill: none; stroke: #888; stroke-width: 1; opacity: 1;"></line><line transform="translate(590,0)" x2="0" y2="5" style="fill: none; stroke: #888; stroke-width: 1; opacity: 1;"></line><line transform="translate(618,0)" x2="0" y2="5" style="fill: none; stroke: #888; stroke-width: 1; opacity: 1;"></line><line transform="translate(645,0)" x2="0" y2="5" style="fill: none; stroke: #888; stroke-width: 1; opacity: 1;"></line><line transform="translate(673,0)" x2="0" y2="5" style="fill: none; stroke: #888; stroke-width: 1; opacity: 1;"></line><line transform="translate(700,0)" x2="0" y2="5" style="fill: none; stroke: #888; stroke-width: 1; opacity: 1;"></line><line transform="translate(728,0)" x2="0" y2="5" style="fill: none; stroke: #888; stroke-width: 1; opacity: 1;"></line><line transform="translate(755,0)" x2="0" y2="5" style="fill: none; stroke: #888; stroke-width: 1; opacity: 1;"></line><line transform="translate(783,0)" x2="0" y2="5" style="fill: none; stroke: #888; stroke-width: 1; opacity: 1;"></line><line transform="translate(810,0)" x2="0" y2="5" style="fill: none; stroke: #888; stroke-width: 1; opacity: 1;"></line><line transform="translate(838,0)" x2="0" y2="5" style="fill: none; stroke: #888; stroke-width: 1; opacity: 1;"></line><line transform="translate(865,0)" x2="0" y2="5" style="fill: none; stroke: #888; stroke-width: 1; opacity: 1;"></line><line transform="translate(893,0)" x2="0" y2="5" style="fill: none; stroke: #888; stroke-width: 1; opacity: 1;"></line><line transform="translate(920,0)" x2="0" y2="5" style="fill: none; stroke: #888; stroke-width: 1; opacity: 1;"></line><line transform="translate(948,0)" x2="0" y2="5" style="fill: none; stroke: #888; stroke-width: 1; opacity: 1;"></line><line transform="translate(975,0)" x2="0" y2="5" style="fill: none; stroke: #888; stroke-width: 1; opacity: 1;"></line><line transform="translate(1003,0)" x2="0" y2="5" style="fill: none; stroke: #888; stroke-width: 1; opacity: 1;"></line><line transform="translate(1030,0)" x2="0" y2="5" style="fill: none; stroke: #888; stroke-width: 1; opacity: 1;"></line><line transform="translate(1058,0)" x2="0" y2="5" style="fill: none; stroke: #888; stroke-width: 1; opacity: 1;"></line><line transform="translate(1085,0)" x2="0" y2="5" style="fill: none; stroke: #888; stroke-width: 1; opacity: 1;"></line></g><g class="mark-text role-axis-label" style="pointer-events: none;"><text text-anchor="end" transform="translate(12.75,7) rotate(270) translate(0,4)" style="font-family: sans-serif; font-size: 12px; fill: #000; opacity: 1;">ATL</text><text text-anchor="end" transform="translate(40.25,7) rotate(270) translate(0,4)" style="font-family: sans-serif; font-size: 12px; fill: #000; opacity: 1;">AUS</text><text text-anchor="end" transform="translate(67.75,7) rotate(270) translate(0,4)" style="font-family: sans-serif; font-size: 12px; fill: #000; opacity: 1;">BNA</text><text text-anchor="end" transform="translate(95.25,7) rotate(270) translate(0,4)" style="font-family: sans-serif; font-size: 12px; fill: #000; opacity: 1;">BOS</text><text text-anchor="end" transform="translate(122.75,7) rotate(270) translate(0,4)" style="font-family: sans-serif; font-size: 12px; fill: #000; opacity: 1;">BWI</text><text text-anchor="end" transform="translate(150.25,7) rotate(270) translate(0,4)" style="font-family: sans-serif; font-size: 12px; fill: #000; opacity: 1;">CLT</text><text text-anchor="end" transform="translate(177.75,7) rotate(270) translate(0,4)" style="font-family: sans-serif; font-size: 12px; fill: #000; opacity: 1;">DAL</text><text text-anchor="end" transform="translate(205.25,7) rotate(270) translate(0,4)" style="font-family: sans-serif; font-size: 12px; fill: #000; opacity: 1;">DCA</text><text text-anchor="end" transform="translate(232.75,7) rotate(270) translate(0,4)" style="font-family: sans-serif; font-size: 12px; fill: #000; opacity: 1;">DEN</text><text text-anchor="end" transform="translate(260.25,7) rotate(270) translate(0,4)" style="font-family: sans-serif; font-size: 12px; fill: #000; opacity: 1;">DFW</text><text text-anchor="end" transform="translate(287.75,7) rotate(270) translate(0,4)" style="font-family: sans-serif; font-size: 12px; fill: #000; opacity: 1;">DTW</text><text text-anchor="end" transform="translate(315.25,7) rotate(270) translate(0,4)" style="font-family: sans-serif; font-size: 12px; fill: #000; opacity: 1;">EWR</text><text text-anchor="end" transform="translate(342.75,7) rotate(270) translate(0,4)" style="font-family: sans-serif; font-size: 12px; fill: #000; opacity: 1;">FLL</text><text text-anchor="end" transform="translate(370.25,7) rotate(270) translate(0,4)" style="font-family: sans-serif; font-size: 12px; fill: #000; opacity: 1;">HNL</text><text text-anchor="end" transform="translate(397.75,7) rotate(270) translate(0,4)" style="font-family: sans-serif; font-size: 12px; fill: #000; opacity: 1;">HOU</text><text text-anchor="end" transform="translate(425.25,7) rotate(270) translate(0,4)" style="font-family: sans-serif; font-size: 12px; fill: #000; opacity: 1;">IAD</text><text text-anchor="end" transform="translate(452.75,7) rotate(270) translate(0,4)" style="font-family: sans-serif; font-size: 12px; fill: #000; opacity: 1;">IAH</text><text text-anchor="end" transform="translate(480.25,7) rotate(270) translate(0,4)" style="font-family: sans-serif; font-size: 12px; fill: #000; opacity: 1;">JFK</text><text text-anchor="end" transform="translate(507.75,7) rotate(270) translate(0,4)" style="font-family: sans-serif; font-size: 12px; fill: #000; opacity: 1;">LAS</text><text text-anchor="end" transform="translate(535.25,7) rotate(270) translate(0,4)" style="font-family: sans-serif; font-size: 12px; fill: #000; opacity: 1;">LAX</text><text text-anchor="end" transform="translate(562.75,7) rotate(270) translate(0,4)" style="font-family: sans-serif; font-size: 12px; fill: #000; opacity: 1;">LGA</text><text text-anchor="end" transform="translate(590.25,7) rotate(270) translate(0,4)" style="font-family: sans-serif; font-size: 12px; fill: #000; opacity: 1;">MCI</text><text text-anchor="end" transform="translate(617.75,7) rotate(270) translate(0,4)" style="font-family: sans-serif; font-size: 12px; fill: #000; opacity: 1;">MCO</text><text text-anchor="end" transform="translate(645.25,7) rotate(270) translate(0,4)" style="font-family: sans-serif; font-size: 12px; fill: #000; opacity: 1;">MDW</text><text text-anchor="end" transform="translate(672.75,7) rotate(270) translate(0,4)" style="font-family: sans-serif; font-size: 12px; fill: #000; opacity: 1;">MIA</text><text text-anchor="end" transform="translate(700.25,7) rotate(270) translate(0,4)" style="font-family: sans-serif; font-size: 12px; fill: #000; opacity: 1;">MSP</text><text text-anchor="end" transform="translate(727.75,7) rotate(270) translate(0,4)" style="font-family: sans-serif; font-size: 12px; fill: #000; opacity: 1;">MSY</text><text text-anchor="end" transform="translate(755.25,7) rotate(270) translate(0,4)" style="font-family: sans-serif; font-size: 12px; fill: #000; opacity: 1;">OAK</text><text text-anchor="end" transform="translate(782.75,7) rotate(270) translate(0,4)" style="font-family: sans-serif; font-size: 12px; fill: #000; opacity: 1;">ORD</text><text text-anchor="end" transform="translate(810.25,7) rotate(270) translate(0,4)" style="font-family: sans-serif; font-size: 12px; fill: #000; opacity: 1;">PDX</text><text text-anchor="end" transform="translate(837.75,7) rotate(270) translate(0,4)" style="font-family: sans-serif; font-size: 12px; fill: #000; opacity: 1;">PHL</text><text text-anchor="end" transform="translate(865.25,7) rotate(270) translate(0,4)" style="font-family: sans-serif; font-size: 12px; fill: #000; opacity: 1;">PHX</text><text text-anchor="end" transform="translate(892.75,7) rotate(270) translate(0,4)" style="font-family: sans-serif; font-size: 12px; fill: #000; opacity: 1;">SAN</text><text text-anchor="end" transform="translate(920.25,7) rotate(270) translate(0,4)" style="font-family: sans-serif; font-size: 12px; fill: #000; opacity: 1;">SEA</text><text text-anchor="end" transform="translate(947.75,7) rotate(270) translate(0,4)" style="font-family: sans-serif; font-size: 12px; fill: #000; opacity: 1;">SFO</text><text text-anchor="end" transform="translate(975.25,7) rotate(270) translate(0,4)" style="font-family: sans-serif; font-size: 12px; fill: #000; opacity: 1;">SJC</text><text text-anchor="end" transform="translate(1002.75,7) rotate(270) translate(0,4)" style="font-family: sans-serif; font-size: 12px; fill: #000; opacity: 1;">SLC</text><text text-anchor="end" transform="translate(1030.25,7) rotate(270) translate(0,4)" style="font-family: sans-serif; font-size: 12px; fill: #000; opacity: 1;">SMF</text><text text-anchor="end" transform="translate(1057.75,7) rotate(270) translate(0,4)" style="font-family: sans-serif; font-size: 12px; fill: #000; opacity: 1;">STL</text><text text-anchor="end" transform="translate(1085.25,7) rotate(270) translate(0,4)" style="font-family: sans-serif; font-size: 12px; fill: #000; opacity: 1;">TPA</text></g><g class="mark-rule role-axis-domain" style="pointer-events: none;"><line transform="translate(0,0)" x2="1100" y2="0" style="fill: none; stroke: #888; stroke-width: 1; opacity: 1;"></line></g><g class="mark-text role-axis-title" style="pointer-events: none;"><text text-anchor="middle" transform="translate(550,50.98828125)" style="font-family: sans-serif; font-size: 12px; font-weight: bold; fill: #000; opacity: 1;">Airport</text></g></g></g></g><g class="mark-group role-axis"><g transform="translate(0.5,0.5)"><path class="background" d="M0,0h0v0h0Z" style="pointer-events: none; fill: none;"></path><g><g class="mark-rule role-axis-tick" style="pointer-events: none;"><line transform="translate(0,450)" x2="-5" y2="0" style="fill: none; stroke: #888; stroke-width: 1; opacity: 1;"></line><line transform="translate(0,400)" x2="-5" y2="0" style="fill: none; stroke: #888; stroke-width: 1; opacity: 1;"></line><line transform="translate(0,350)" x2="-5" y2="0" style="fill: none; stroke: #888; stroke-width: 1; opacity: 1;"></line><line transform="translate(0,300)" x2="-5" y2="0" style="fill: none; stroke: #888; stroke-width: 1; opacity: 1;"></line><line transform="translate(0,250)" x2="-5" y2="0" style="fill: none; stroke: #888; stroke-width: 1; opacity: 1;"></line><line transform="translate(0,200)" x2="-5" y2="0" style="fill: none; stroke: #888; stroke-width: 1; opacity: 1;"></line><line transform="translate(0,150)" x2="-5" y2="0" style="fill: none; stroke: #888; stroke-width: 1; opacity: 1;"></line><line transform="translate(0,100)" x2="-5" y2="0" style="fill: none; stroke: #888; stroke-width: 1; opacity: 1;"></line><line transform="translate(0,50)" x2="-5" y2="0" style="fill: none; stroke: #888; stroke-width: 1; opacity: 1;"></line><line transform="translate(0,0)" x2="-5" y2="0" style="fill: none; stroke: #888; stroke-width: 1; opacity: 1;"></line></g><g class="mark-text role-axis-label" style="pointer-events: none;"><text text-anchor="end" transform="translate(-7,454)" style="font-family: sans-serif; font-size: 12px; fill: #000; opacity: 1;">0.0</text><text text-anchor="end" transform="translate(-7,404)" style="font-family: sans-serif; font-size: 12px; fill: #000; opacity: 1;">0.5</text><text text-anchor="end" transform="translate(-7,354)" style="font-family: sans-serif; font-size: 12px; fill: #000; opacity: 1;">1.0</text><text text-anchor="end" transform="translate(-7,304)" style="font-family: sans-serif; font-size: 12px; fill: #000; opacity: 1;">1.5</text><text text-anchor="end" transform="translate(-7,254)" style="font-family: sans-serif; font-size: 12px; fill: #000; opacity: 1;">2.0</text><text text-anchor="end" transform="translate(-7,204)" style="font-family: sans-serif; font-size: 12px; fill: #000; opacity: 1;">2.5</text><text text-anchor="end" transform="translate(-7,154)" style="font-family: sans-serif; font-size: 12px; fill: #000; opacity: 1;">3.0</text><text text-anchor="end" transform="translate(-7,104)" style="font-family: sans-serif; font-size: 12px; fill: #000; opacity: 1;">3.5</text><text text-anchor="end" transform="translate(-7,54)" style="font-family: sans-serif; font-size: 12px; fill: #000; opacity: 1;">4.0</text><text text-anchor="end" transform="translate(-7,4)" style="font-family: sans-serif; font-size: 12px; fill: #000; opacity: 1;">4.5</text></g><g class="mark-rule role-axis-domain" style="pointer-events: none;"><line transform="translate(0,450)" x2="0" y2="-450" style="fill: none; stroke: #888; stroke-width: 1; opacity: 1;"></line></g><g class="mark-text role-axis-title" style="pointer-events: none;"><text text-anchor="middle" transform="translate(-34,225) rotate(-90) translate(0,-3)" style="font-family: sans-serif; font-size: 12px; font-weight: bold; fill: #000; opacity: 1;">Avg_Delay_Cost</text></g></g></g></g></g></g></g></g></svg>