<svg class="marks" width="1113" height="438" viewBox="0 0 1113 438" version="1.1" xmlns="http://www.w3.org/2000/svg" xmlns:xlink="http://www.w3.org/1999/xlink"><g transform="translate(71,88)"><g class="mark-group role-frame root"><g transform="translate(0,0)"><path class="background" d="M0,0h0v0h0Z" style="fill: none;"></path><g><g class="mark-group role-column-title column-title"><g transform="translate(518,-32)"><path class="background" d="M0,0h0v0h0Z" style="fill: none;"></path><g><g class="mark-text role-title" style="pointer-events: none;"><text text-anchor="middle" transform="translate(0,-12)" style="font-family: sans-serif; font-size: 11px; font-weight: bold; fill: #000; opacity: 1;">Year</text></g></g></g></g><g class="mark-group role-row-header row_header"><g transform="translate(-1,0)"><path class="background" d="M0,0h0v250h0Z" style="fill: none;"></path><g><g class="mark-group role-axis"><g transform="translate(0.5,0.5)"><path class="background" d="M0,0h0v0h0Z" style="pointer-events: none; fill: none;"></path><g><g class="mark-rule role-axis-tick" style="pointer-events: none;"><line transform="translate(0,250)" x2="-5" y2="0" style="fill: none; stroke: #888; stroke-width: 1; opacity: 1;"></line><line transform="translate(0,219)" x2="-5" y2="0" style="fill: none; stroke: #888; stroke-width: 1; opacity: 1;"></line><line transform="translate(0,188)" x2="-5" y2="0" style="fill: none; stroke: #888; stroke-width: 1; opacity: 1;"></line><line transform="translate(0,156)" x2="-5" y2="0" style="fill: none; stroke: #888; stroke-width: 1; opacity: 1;"></line><line transform="translate(0,125)" x2="-5" y2="0" style="fill: none; stroke: #888; stroke-width: 1; opacity: 1;"></line><line transform="translate(0,94)" x2="-5" y2="0" style="fill: none; stroke: #888; stroke-width: 1; opacity: 1;"></line><line transform="translate(0,63)" x2="-5" y2="0" style="fill: none; stroke: #888; stroke-width: 1; opacity: 1;"></line><line transform="translate(0,31)" x2="-5" y2="0" style="fill: none; stroke: #888; stroke-width: 1; opacity: 1;"></line><line transform="translate(0,0)" x2="-5" y2="0" style="fill: none; stroke: #888; stroke-width: 1; opacity: 1;"></line></g><g class="mark-text role-axis-label" style="pointer-events: none;"><text text-anchor="end" transform="translate(-7,254)" style="font-family: sans-serif; font-size: 14px; fill: #000; opacity: 1;">0.000</text><text text-anchor="end" transform="translate(-7,222.75)" style="font-family: sans-serif; font-size: 14px; fill: #000; opacity: 1;">0.005</text><text text-anchor="end" transform="translate(-7,191.5)" style="font-family: sans-serif; font-size: 14px; fill: #000; opacity: 1;">0.010</text><text text-anchor="end" transform="translate(-7,160.25)" style="font-family: sans-serif; font-size: 14px; fill: #000; opacity: 1;">0.015</text><text text-anchor="end" transform="translate(-7,129)" style="font-family: sans-serif; font-size: 14px; fill: #000; opacity: 1;">0.020</text><text text-anchor="end" transform="translate(-7,97.75)" style="font-family: sans-serif; font-size: 14px; fill: #000; opacity: 1;">0.025</text><text text-anchor="end" transform="translate(-7,66.5)" style="font-family: sans-serif; font-size: 14px; fill: #000; opacity: 1;">0.030</text><text text-anchor="end" transform="translate(-7,35.24999999999997)" style="font-family: sans-serif; font-size: 14px; fill: #000; opacity: 1;">0.035</text><text text-anchor="end" transform="translate(-7,4)" style="font-family: sans-serif; font-size: 14px; fill: #000; opacity: 1;">0.040</text></g><g class="mark-rule role-axis-domain" style="pointer-events: none;"><line transform="translate(0,250)" x2="0" y2="-250" style="fill: none; stroke: #888; stroke-width: 1; opacity: 1;"></line></g><g class="mark-text role-axis-title" style="pointer-events: none;"><text text-anchor="middle" transform="translate(-47.0341796875,125) rotate(-90) translate(0,-3)" style="font-family: sans-serif; font-size: 14px; font-weight: bold; fill: #000; opacity: 1;">Disrupt%</text></g></g></g></g></g></g></g><g class="mark-group role-column-header column_header"><g transform="translate(0,-1)"><path class="background" d="M0,0h250v0h-250Z" style="fill: none;"></path><g><g class="mark-text role-title" style="pointer-events: none;"><text text-anchor="middle" transform="translate(125,-12)" style="font-family: sans-serif; font-size: 10px; fill: #000; opacity: 1;">2015</text></g></g></g><g transform="translate(262,-1)"><path class="background" d="M0,0h250v0h-250Z" style="fill: none;"></path><g><g class="mark-text role-title" style="pointer-events: none;"><text text-anchor="middle" transform="translate(125,-12)" style="font-family: sans-serif; font-size: 10px; fill: #000; opacity: 1;">2016</text></g></g></g><g transform="translate(524,-1)"><path class="background" d="M0,0h250v0h-250Z" style="fill: none;"></path><g><g class="mark-text role-title" style="pointer-events: none;"><text text-anchor="middle" transform="translate(125,-12)" style="font-family: sans-serif; font-size: 10px; fill: #000; opacity: 1;">2017</text></g></g></g><g transform="translate(786,-1)"><path class="background" d="M0,0h250v0h-250Z" style="fill: none;"></path><g><g class="mark-text role-title" style="pointer-events: none;"><text text-anchor="middle" transform="translate(125,-12)" style="font-family: sans-serif; font-size: 10px; fill: #000; opacity: 1;">2018</text></g></g></g></g><g class="mark-group role-column-footer column_footer"><g transform="translate(0,251)"><path class="background" d="M0,0h250v0h-250Z" style="fill: none;"></path><g><g class="mark-group role-axis"><g transform="translate(0.5,0.5)"><path class="background" d="M0,0h0v0h0Z" style="pointer-events: none; fill: none;"></path><g><g class="mark-rule role-axis-tick" style="pointer-events: none;"><line transform="translate(15,0)" x2="0" y2="5" style="fill: none; stroke: #888; stroke-width: 1; opacity: 1;"></line><line transform="translate(46,0)" x2="0" y2="5" style="fill: none; stroke: #888; stroke-width: 1; opacity: 1;"></line><line transform="translate(77,0)" x2="0" y2="5" style="fill: none; stroke: #888; stroke-width: 1; opacity: 1;"></line><line transform="translate(108,0)" x2="0" y2="5" style="fill: none; stroke: #888; stroke-width: 1; opacity: 1;"></line><line transform="translate(140,0)" x2="0" y2="5" style="fill: none; stroke: #888; stroke-width: 1; opacity: 1;"></line><line transform="translate(171,0)" x2="0" y2="5" style="fill: none; stroke: #888; stroke-width: 1; opacity: 1;"></line><line transform="translate(202,0)" x2="0" y2="5" style="fill: none; stroke: #888; stroke-width: 1; opacity: 1;"></line><line transform="translate(233,0)" x2="0" y2="5" style="fill: none; stroke: #888; stroke-width: 1; opacity: 1;"></line></g><g class="mark-text role-axis-label" style="pointer-events: none;"><text text-anchor="end" transform="translate(14.625,7) rotate(270) translate(0,4)" style="font-family: sans-serif; font-size: 14px; fill: #000; opacity: 1;">Alaska</text><text text-anchor="end" transform="translate(45.875,7) rotate(270) translate(0,4)" style="font-family: sans-serif; font-size: 14px; fill: #000; opacity: 1;">American</text><text text-anchor="end" transform="translate(77.125,7) rotate(270) translate(0,4)" style="font-family: sans-serif; font-size: 14px; fill: #000; opacity: 1;">Delta</text><text text-anchor="end" transform="translate(108.375,7) rotate(270) translate(0,4)" style="font-family: sans-serif; font-size: 14px; fill: #000; opacity: 1;">Frontier</text><text text-anchor="end" transform="translate(139.625,7) rotate(270) translate(0,4)" style="font-family: sans-serif; font-size: 14px; fill: #000; opacity: 1;">JetBLue</text><text text-anchor="end" transform="translate(170.875,7) rotate(270) translate(0,4)" style="font-family: sans-serif; font-size: 14px; fill: #000; opacity: 1;">Southwest</text><text text-anchor="end" transform="translate(202.125,7) rotate(270) translate(0,4)" style="font-family: sans-serif; font-size: 14px; fill: #000; opacity: 1;">Spirit</text><text text-anchor="end" transform="translate(233.375,7) rotate(270) translate(0,4)" style="font-family: sans-serif; font-size: 14px; fill: #000; opacity: 1;">United</text></g><g class="mark-rule role-axis-domain" style="pointer-events: none;"><line transform="translate(0,0)" x2="250" y2="0" style="fill: none; stroke: #888; stroke-width: 1; opacity: 1;"></line></g><g class="mark-text role-axis-title" style="pointer-events: none;"><text text-anchor="middle" transform="translate(125,88.3720703125)" style="font-family: sans-serif; font-size: 14px; font-weight: bold; fill: #000; opacity: 1;">Carrier</text></g></g></g></g></g></g><g transform="translate(262,251)"><path class="background" d="M0,0h250v0h-250Z" style="fill: none;"></path><g><g class="mark-group role-axis"><g transform="translate(0.5,0.5)"><path class="background" d="M0,0h0v0h0Z" style="pointer-events: none; fill: none;"></path><g><g class="mark-rule role-axis-tick" style="pointer-events: none;"><line transform="translate(15,0)" x2="0" y2="5" style="fill: none; stroke: #888; stroke-width: 1; opacity: 1;"></line><line transform="translate(46,0)" x2="0" y2="5" style="fill: none; stroke: #888; stroke-width: 1; opacity: 1;"></line><line transform="translate(77,0)" x2="0" y2="5" style="fill: none; stroke: #888; stroke-width: 1; opacity: 1;"></line><line transform="translate(108,0)" x2="0" y2="5" style="fill: none; stroke: #888; stroke-width: 1; opacity: 1;"></line><line transform="translate(140,0)" x2="0" y2="5" style="fill: none; stroke: #888; stroke-width: 1; opacity: 1;"></line><line transform="translate(171,0)" x2="0" y2="5" style="fill: none; stroke: #888; stroke-width: 1; opacity: 1;"></line><line transform="translate(202,0)" x2="0" y2="5" style="fill: none; stroke: #888; stroke-width: 1; opacity: 1;"></line><line transform="translate(233,0)" x2="0" y2="5" style="fill: none; stroke: #888; stroke-width: 1; opacity: 1;"></line></g><g class="mark-text role-axis-label" style="pointer-events: none;"><text text-anchor="end" transform="translate(14.625,7) rotate(270) translate(0,4)" style="font-family: sans-serif; font-size: 14px; fill: #000; opacity: 1;">Alaska</text><text text-anchor="end" transform="translate(45.875,7) rotate(270) translate(0,4)" style="font-family: sans-serif; font-size: 14px; fill: #000; opacity: 1;">American</text><text text-anchor="end" transform="translate(77.125,7) rotate(270) translate(0,4)" style="font-family: sans-serif; font-size: 14px; fill: #000; opacity: 1;">Delta</text><text text-anchor="end" transform="translate(108.375,7) rotate(270) translate(0,4)" style="font-family: sans-serif; font-size: 14px; fill: #000; opacity: 1;">Frontier</text><text text-anchor="end" transform="translate(139.625,7) rotate(270) translate(0,4)" style="font-family: sans-serif; font-size: 14px; fill: #000; opacity: 1;">JetBLue</text><text text-anchor="end" transform="translate(170.875,7) rotate(270) translate(0,4)" style="font-family: sans-serif; font-size: 14px; fill: #000; opacity: 1;">Southwest</text><text text-anchor="end" transform="translate(202.125,7) rotate(270) translate(0,4)" style="font-family: sans-serif; font-size: 14px; fill: #000; opacity: 1;">Spirit</text><text text-anchor="end" transform="translate(233.375,7) rotate(270) translate(0,4)" style="font-family: sans-serif; font-size: 14px; fill: #000; opacity: 1;">United</text></g><g class="mark-rule role-axis-domain" style="pointer-events: none;"><line transform="translate(0,0)" x2="250" y2="0" style="fill: none; stroke: #888; stroke-width: 1; opacity: 1;"></line></g><g class="mark-text role-axis-title" style="pointer-events: none;"><text text-anchor="middle" transform="translate(125,88.3720703125)" style="font-family: sans-serif; font-size: 14px; font-weight: bold; fill: #000; opacity: 1;">Carrier</text></g></g></g></g></g></g><g transform="translate(524,251)"><path class="background" d="M0,0h250v0h-250Z" style="fill: none;"></path><g><g class="mark-group role-axis"><g transform="translate(0.5,0.5)"><path class="background" d="M0,0h0v0h0Z" style="pointer-events: none; fill: none;"></path><g><g class="mark-rule role-axis-tick" style="pointer-events: none;"><line transform="translate(15,0)" x2="0" y2="5" style="fill: none; stroke: #888; stroke-width: 1; opacity: 1;"></line><line transform="translate(46,0)" x2="0" y2="5" style="fill: none; stroke: #888; stroke-width: 1; opacity: 1;"></line><line transform="translate(77,0)" x2="0" y2="5" style="fill: none; stroke: #888; stroke-width: 1; opacity: 1;"></line><line transform="translate(108,0)" x2="0" y2="5" style="fill: none; stroke: #888; stroke-width: 1; opacity: 1;"></line><line transform="translate(140,0)" x2="0" y2="5" style="fill: none; stroke: #888; stroke-width: 1; opacity: 1;"></line><line transform="translate(171,0)" x2="0" y2="5" style="fill: none; stroke: #888; stroke-width: 1; opacity: 1;"></line><line transform="translate(202,0)" x2="0" y2="5" style="fill: none; stroke: #888; stroke-width: 1; opacity: 1;"></line><line transform="translate(233,0)" x2="0" y2="5" style="fill: none; stroke: #888; stroke-width: 1; opacity: 1;"></line></g><g class="mark-text role-axis-label" style="pointer-events: none;"><text text-anchor="end" transform="translate(14.625,7) rotate(270) translate(0,4)" style="font-family: sans-serif; font-size: 14px; fill: #000; opacity: 1;">Alaska</text><text text-anchor="end" transform="translate(45.875,7) rotate(270) translate(0,4)" style="font-family: sans-serif; font-size: 14px; fill: #000; opacity: 1;">American</text><text text-anchor="end" transform="translate(77.125,7) rotate(270) translate(0,4)" style="font-family: sans-serif; font-size: 14px; fill: #000; opacity: 1;">Delta</text><text text-anchor="end" transform="translate(108.375,7) rotate(270) translate(0,4)" style="font-family: sans-serif; font-size: 14px; fill: #000; opacity: 1;">Frontier</text><text text-anchor="end" transform="translate(139.625,7) rotate(270) translate(0,4)" style="font-family: sans-serif; font-size: 14px; fill: #000; opacity: 1;">JetBLue</text><text text-anchor="end" transform="translate(170.875,7) rotate(270) translate(0,4)" style="font-family: sans-serif; font-size: 14px; fill: #000; opacity: 1;">Southwest</text><text text-anchor="end" transform="translate(202.125,7) rotate(270) translate(0,4)" style="font-family: sans-serif; font-size: 14px; fill: #000; opacity: 1;">Spirit</text><text text-anchor="end" transform="translate(233.375,7) rotate(270) translate(0,4)" style="font-family: sans-serif; font-size: 14px; fill: #000; opacity: 1;">United</text></g><g class="mark-rule role-axis-domain" style="pointer-events: none;"><line transform="translate(0,0)" x2="250" y2="0" style="fill: none; stroke: #888; stroke-width: 1; opacity: 1;"></line></g><g class="mark-text role-axis-title" style="pointer-events: none;"><text text-anchor="middle" transform="translate(125,88.3720703125)" style="font-family: sans-serif; font-size: 14px; font-weight: bold; fill: #000; opacity: 1;">Carrier</text></g></g></g></g></g></g><g transform="translate(786,251)"><path class="background" d="M0,0h250v0h-250Z" style="fill: none;"></path><g><g class="mark-group role-axis"><g transform="translate(0.5,0.5)"><path class="background" d="M0,0h0v0h0Z" style="pointer-events: none; fill: none;"></path><g><g class="mark-rule role-axis-tick" style="pointer-events: none;"><line transform="translate(15,0)" x2="0" y2="5" style="fill: none; stroke: #888; stroke-width: 1; opacity: 1;"></line><line transform="translate(46,0)" x2="0" y2="5" style="fill: none; stroke: #888; stroke-width: 1; opacity: 1;"></line><line transform="translate(77,0)" x2="0" y2="5" style="fill: none; stroke: #888; stroke-width: 1; opacity: 1;"></line><line transform="translate(108,0)" x2="0" y2="5" style="fill: none; stroke: #888; stroke-width: 1; opacity: 1;"></line><line transform="translate(140,0)" x2="0" y2="5" style="fill: none; stroke: #888; stroke-width: 1; opacity: 1;"></line><line transform="translate(171,0)" x2="0" y2="5" style="fill: none; stroke: #888; stroke-width: 1; opacity: 1;"></line><line transform="translate(202,0)" x2="0" y2="5" style="fill: none; stroke: #888; stroke-width: 1; opacity: 1;"></line><line transform="translate(233,0)" x2="0" y2="5" style="fill: none; stroke: #888; stroke-width: 1; opacity: 1;"></line></g><g class="mark-text role-axis-label" style="pointer-events: none;"><text text-anchor="end" transform="translate(14.625,7) rotate(270) translate(0,4)" style="font-family: sans-serif; font-size: 14px; fill: #000; opacity: 1;">Alaska</text><text text-anchor="end" transform="translate(45.875,7) rotate(270) translate(0,4)" style="font-family: sans-serif; font-size: 14px; fill: #000; opacity: 1;">American</text><text text-anchor="end" transform="translate(77.125,7) rotate(270) translate(0,4)" style="font-family: sans-serif; font-size: 14px; fill: #000; opacity: 1;">Delta</text><text text-anchor="end" transform="translate(108.375,7) rotate(270) translate(0,4)" style="font-family: sans-serif; font-size: 14px; fill: #000; opacity: 1;">Frontier</text><text text-anchor="end" transform="translate(139.625,7) rotate(270) translate(0,4)" style="font-family: sans-serif; font-size: 14px; fill: #000; opacity: 1;">JetBLue</text><text text-anchor="end" transform="translate(170.875,7) rotate(270) translate(0,4)" style="font-family: sans-serif; font-size: 14px; fill: #000; opacity: 1;">Southwest</text><text text-anchor="end" transform="translate(202.125,7) rotate(270) translate(0,4)" style="font-family: sans-serif; font-size: 14px; fill: #000; opacity: 1;">Spirit</text><text text-anchor="end" transform="translate(233.375,7) rotate(270) translate(0,4)" style="font-family: sans-serif; font-size: 14px; fill: #000; opacity: 1;">United</text></g><g class="mark-rule role-axis-domain" style="pointer-events: none;"><line transform="translate(0,0)" x2="250" y2="0" style="fill: none; stroke: #888; stroke-width: 1; opacity: 1;"></line></g><g class="mark-text role-axis-title" style="pointer-events: none;"><text text-anchor="middle" transform="translate(125,88.3720703125)" style="font-family: sans-serif; font-size: 14px; font-weight: bold; fill: #000; opacity: 1;">Carrier</text></g></g></g></g></g></g></g><g class="mark-group role-scope cell"><g transform="translate(0,0)"><path class="background" d="M0.5,0.5h250v250h-250Z" style="fill: none; stroke: #ddd;"></path><g><g class="mark-group role-axis"><g transform="translate(0.5,0.5)"><path class="background" d="M0,0h0v0h0Z" style="pointer-events: none; fill: none;"></path><g><g class="mark-rule role-axis-grid" style="pointer-events: none;"><line transform="translate(0,250)" x2="250" y2="0" style="fill: none; stroke: #ddd; stroke-width: 1; opacity: 1;"></line><line transform="translate(0,219)" x2="250" y2="0" style="fill: none; stroke: #ddd; stroke-width: 1; opacity: 1;"></line><line transform="translate(0,188)" x2="250" y2="0" style="fill: none; stroke: #ddd; stroke-width: 1; opacity: 1;"></line><line transform="translate(0,156)" x2="250" y2="0" style="fill: none; stroke: #ddd; stroke-width: 1; opacity: 1;"></line><line transform="translate(0,125)" x2="250" y2="0" style="fill: none; stroke: #ddd; stroke-width: 1; opacity: 1;"></line><line transform="translate(0,94)" x2="250" y2="0" style="fill: none; stroke: #ddd; stroke-width: 1; opacity: 1;"></line><line transform="translate(0,63)" x2="250" y2="0" style="fill: none; stroke: #ddd; stroke-width: 1; opacity: 1;"></line><line transform="translate(0,31)" x2="250" y2="0" style="fill: none; stroke: #ddd; stroke-width: 1; opacity: 1;"></line><line transform="translate(0,0)" x2="250" y2="0" style="fill: none; stroke: #ddd; stroke-width: 1; opacity: 1;"></line></g></g></g></g><g class="mark-rect role-mark child_marks"><path d="M157.8125,155.9420456391582h28.125v94.05795436084179h-28.125Z" style="fill: #eeca3b;"></path><path d="M64.0625,197.3601436724852h28.125v52.63985632751479h-28.125Z" style="fill: #e45756;"></path><path d="M32.8125,130.37787334156127h28.125v119.62212665843873h-28.125Z" style="fill: #f58518;"></path><path d="M220.3125,134.15535083756203h28.125v115.84464916243797h-28.125Z" style="fill: #ff9da6;"></path><path d="M126.5625,123.85226625924928h28.125v126.14773374075072h-28.125Z" style="fill: #54a24b;"></path><path d="M1.5625,215.0042603509138h28.125v34.995739649086204h-28.125Z" style="fill: #4c78a8;"></path><path d="M95.3125,153.67255273239687h28.125v96.32744726760313h-28.125Z" style="fill: #72b7b2;"></path><path d="M189.0625,109.21672530861568h28.125v140.78327469138432h-28.125Z" style="fill: #b279a2;"></path></g></g></g><g transform="translate(262,0)"><path class="background" d="M0.5,0.5h250v250h-250Z" style="fill: none; stroke: #ddd;"></path><g><g class="mark-group role-axis"><g transform="translate(0.5,0.5)"><path class="background" d="M0,0h0v0h0Z" style="pointer-events: none; fill: none;"></path><g><g class="mark-rule role-axis-grid" style="pointer-events: none;"><line transform="translate(0,250)" x2="250" y2="0" style="fill: none; stroke: #ddd; stroke-width: 1; opacity: 1;"></line><line transform="translate(0,219)" x2="250" y2="0" style="fill: none; stroke: #ddd; stroke-width: 1; opacity: 1;"></line><line transform="translate(0,188)" x2="250" y2="0" style="fill: none; stroke: #ddd; stroke-width: 1; opacity: 1;"></line><line transform="translate(0,156)" x2="250" y2="0" style="fill: none; stroke: #ddd; stroke-width: 1; opacity: 1;"></line><line transform="translate(0,125)" x2="250" y2="0" style="fill: none; stroke: #ddd; stroke-width: 1; opacity: 1;"></line><line transform="translate(0,94)" x2="250" y2="0" style="fill: none; stroke: #ddd; stroke-width: 1; opacity: 1;"></line><line transform="translate(0,63)" x2="250" y2="0" style="fill: none; stroke: #ddd; stroke-width: 1; opacity: 1;"></line><line transform="translate(0,31)" x2="250" y2="0" style="fill: none; stroke: #ddd; stroke-width: 1; opacity: 1;"></line><line transform="translate(0,0)" x2="250" y2="0" style="fill: none; stroke: #ddd; stroke-width: 1; opacity: 1;"></line></g></g></g></g><g class="mark-rect role-mark child_marks"><path d="M157.8125,161.7891959945946h28.125v88.21080400540541h-28.125Z" style="fill: #eeca3b;"></path><path d="M64.0625,187.98401727019137h28.125v62.01598272980863h-28.125Z" style="fill: #e45756;"></path><path d="M32.8125,147.0811759495678h28.125v102.91882405043219h-28.125Z" style="fill: #f58518;"></path><path d="M220.3125,152.8674456534701h28.125v97.1325543465299h-28.125Z" style="fill: #ff9da6;"></path><path d="M126.5625,129.70089176664672h28.125v120.29910823335328h-28.125Z" style="fill: #54a24b;"></path><path d="M1.5625,212.7707581227437h28.125v37.2292418772563h-28.125Z" style="fill: #4c78a8;"></path><path d="M95.3125,111.36079309511044h28.125v138.63920690488956h-28.125Z" style="fill: #72b7b2;"></path><path d="M189.0625,101.84407991374758h28.125v148.15592008625242h-28.125Z" style="fill: #b279a2;"></path></g></g></g><g transform="translate(524,0)"><path class="background" d="M0.5,0.5h250v250h-250Z" style="fill: none; stroke: #ddd;"></path><g><g class="mark-group role-axis"><g transform="translate(0.5,0.5)"><path class="background" d="M0,0h0v0h0Z" style="pointer-events: none; fill: none;"></path><g><g class="mark-rule role-axis-grid" style="pointer-events: none;"><line transform="translate(0,250)" x2="250" y2="0" style="fill: none; stroke: #ddd; stroke-width: 1; opacity: 1;"></line><line transform="translate(0,219)" x2="250" y2="0" style="fill: none; stroke: #ddd; stroke-width: 1; opacity: 1;"></line><line transform="translate(0,188)" x2="250" y2="0" style="fill: none; stroke: #ddd; stroke-width: 1; opacity: 1;"></line><line transform="translate(0,156)" x2="250" y2="0" style="fill: none; stroke: #ddd; stroke-width: 1; opacity: 1;"></line><line transform="translate(0,125)" x2="250" y2="0" style="fill: none; stroke: #ddd; stroke-width: 1; opacity: 1;"></line><line transform="translate(0,94)" x2="250" y2="0" style="fill: none; stroke: #ddd; stroke-width: 1; opacity: 1;"></line><line transform="translate(0,63)" x2="250" y2="0" style="fill: none; stroke: #ddd; stroke-width: 1; opacity: 1;"></line><line transform="translate(0,31)" x2="250" y2="0" style="fill: none; stroke: #ddd; stroke-width: 1; opacity: 1;"></line><line transform="translate(0,0)" x2="250" y2="0" style="fill: none; stroke: #ddd; stroke-width: 1; opacity: 1;"></line></g></g></g></g><g class="mark-rect role-mark child_marks"><path d="M157.8125,153.43237473710815h28.125v96.56762526289185h-28.125Z" style="fill: #eeca3b;"></path><path d="M64.0625,149.526018883451h28.125v100.473981116549h-28.125Z" style="fill: #e45756;"></path><path d="M32.8125,139.18924346347626h28.125v110.81075653652374h-28.125Z" style="fill: #f58518;"></path><path d="M220.3125,152.77699360629344h28.125v97.22300639370656h-28.125Z" style="fill: #ff9da6;"></path><path d="M126.5625,21.80951870726662h28.125v228.19048129273338h-28.125Z" style="fill: #54a24b;"></path><path d="M1.5625,187.1177080856766h28.125v62.88229191432339h-28.125Z" style="fill: #4c78a8;"></path><path d="M95.3125,139.41005755772758h28.125v110.58994244227242h-28.125Z" style="fill: #72b7b2;"></path><path d="M189.0625,15.45262661174101h28.125v234.547373388259h-28.125Z" style="fill: #b279a2;"></path></g></g></g><g transform="translate(786,0)"><path class="background" d="M0.5,0.5h250v250h-250Z" style="fill: none; stroke: #ddd;"></path><g><g class="mark-group role-axis"><g transform="translate(0.5,0.5)"><path class="background" d="M0,0h0v0h0Z" style="pointer-events: none; fill: none;"></path><g><g class="mark-rule role-axis-grid" style="pointer-events: none;"><line transform="translate(0,250)" x2="250" y2="0" style="fill: none; stroke: #ddd; stroke-width: 1; opacity: 1;"></line><line transform="translate(0,219)" x2="250" y2="0" style="fill: none; stroke: #ddd; stroke-width: 1; opacity: 1;"></line><line transform="translate(0,188)" x2="250" y2="0" style="fill: none; stroke: #ddd; stroke-width: 1; opacity: 1;"></line><line transform="translate(0,156)" x2="250" y2="0" style="fill: none; stroke: #ddd; stroke-width: 1; opacity: 1;"></line><line transform="translate(0,125)" x2="250" y2="0" style="fill: none; stroke: #ddd; stroke-width: 1; opacity: 1;"></line><line transform="translate(0,94)" x2="250" y2="0" style="fill: none; stroke: #ddd; stroke-width: 1; opacity: 1;"></line><line transform="translate(0,63)" x2="250" y2="0" style="fill: none; stroke: #ddd; stroke-width: 1; opacity: 1;"></line><line transform="translate(0,31)" x2="250" y2="0" style="fill: none; stroke: #ddd; stroke-width: 1; opacity: 1;"></line><line transform="translate(0,0)" x2="250" y2="0" style="fill: none; stroke: #ddd; stroke-width: 1; opacity: 1;"></line></g></g></g></g><g class="mark-rect role-mark child_marks"><path d="M157.8125,152.75327676865658h28.125v97.24672323134342h-28.125Z" style="fill: #eeca3b;"></path><path d="M64.0625,194.7543567092216h28.125v55.24564329077839h-28.125Z" style="fill: #e45756;"></path><path d="M32.8125,117.4559727230486h28.125v132.5440272769514h-28.125Z" style="fill: #f58518;"></path><path d="M220.3125,161.3930160160241h28.125v88.60698398397591h-28.125Z" style="fill: #ff9da6;"></path><path d="M126.5625,66.11258647257466h28.125v183.88741352742534h-28.125Z" style="fill: #54a24b;"></path><path d="M1.5625,183.47195039082686h28.125v66.52804960917314h-28.125Z" style="fill: #4c78a8;"></path><path d="M95.3125,53.44274586578916h28.125v196.55725413421084h-28.125Z" style="fill: #72b7b2;"></path><path d="M189.0625,148.50463735540194h28.125v101.49536264459806h-28.125Z" style="fill: #b279a2;"></path></g></g></g></g><g class="mark-text role-title" style="pointer-events: none;"><text text-anchor="start" transform="translate(-64.0341796875,-63)" style="font-family: sans-serif; font-size: 24px; font-weight: bold; fill: #000; opacity: 1;">Carrier Disruption % by Year</text></g></g></g></g></g></svg>