<svg class="marks" width="1172" height="611" viewBox="0 0 1172 611" version="1.1" xmlns="http://www.w3.org/2000/svg" xmlns:xlink="http://www.w3.org/1999/xlink"><g transform="translate(67,43)"><g class="mark-group role-frame root"><g transform="translate(0,0)"><path class="background" d="M0.5,0.5h1100v450h-1100Z" style="fill: none; stroke: #ddd;"></path><g><g class="mark-group role-axis"><g transform="translate(0.5,0.5)"><path class="background" d="M0,0h0v0h0Z" style="pointer-events: none; fill: none;"></path><g><g class="mark-rule role-axis-grid" style="pointer-events: none;"><line transform="translate(0,450)" x2="1100" y2="0" style="fill: none; stroke: #ddd; stroke-width: 1; opacity: 1;"></line><line transform="translate(0,405)" x2="1100" y2="0" style="fill: none; stroke: #ddd; stroke-width: 1; opacity: 1;"></line><line transform="translate(0,360)" x2="1100" y2="0" style="fill: none; stroke: #ddd; stroke-width: 1; opacity: 1;"></line><line transform="translate(0,315)" x2="1100" y2="0" style="fill: none; stroke: #ddd; stroke-width: 1; opacity: 1;"></line><line transform="translate(0,270)" x2="1100" y2="0" style="fill: none; stroke: #ddd; stroke-width: 1; opacity: 1;"></line><line transform="translate(0,225)" x2="1100" y2="0" style="fill: none; stroke: #ddd; stroke-width: 1; opacity: 1;"></line><line transform="translate(0,180)" x2="1100" y2="0" style="fill: none; stroke: #ddd; stroke-width: 1; opacity: 1;"></line><line transform="translate(0,135)" x2="1100" y2="0" style="fill: none; stroke: #ddd; stroke-width: 1; opacity: 1;"></line><line transform="translate(0,90)" x2="1100" y2="0" style="fill: none; stroke: #ddd; stroke-width: 1; opacity: 1;"></line><line transform="translate(0,45)" x2="1100" y2="0" style="fill: none; stroke: #ddd; stroke-width: 1; opacity: 1;"></line><line transform="translate(0,0)" x2="1100" y2="0" style="fill: none; stroke: #ddd; stroke-width: 1; opacity: 1;"></line></g></g></g></g><g class="mark-rect role-mark marks"><path d="M759.6875,271.10581845701824h61.875v178.89418154298176h-61.875Z" style="fill: #f58518;"></path><path d="M72.1875,339.67536729439087h61.875v110.32463270560913h-61.875Z" style="fill: #f58518;"></path><path d="M3.4375,276.8239776255808h61.875v173.17602237441918h-61.875Z" style="fill: #4c78a8;"></path><path d="M278.4375,122.02561433678778h61.875v327.9743856632122h-61.875Z" style="fill: #54a24b;"></path><path d="M690.9375,231.91985088536813h61.875v218.08014911463187h-61.875Z" style="fill: #4c78a8;"></path><path d="M965.9375,310.065046217049h61.875v139.93495378295103h-61.875Z" style="fill: #54a24b;"></path><path d="M209.6875,85.99490091551746h61.875v364.00509908448254h-61.875Z" style="fill: #72b7b2;"></path><path d="M897.1875,61.70708955223881h61.875v388.2929104477612h-61.875Z" style="fill: #72b7b2;"></path><path d="M415.9375,281.4395423556148h61.875v168.56045764438522h-61.875Z" style="fill: #b279a2;"></path><path d="M347.1875,256.8717439841231h61.875v193.1282560158769h-61.875Z" style="fill: #eeca3b;"></path><path d="M828.4375,225.91036414565826h61.875v224.08963585434174h-61.875Z" style="fill: #e45756;"></path><path d="M1034.6875,329.96277915632754h61.875v120.03722084367246h-61.875Z" style="fill: #eeca3b;"></path><path d="M484.6875,133.47710683477106h61.875v316.52289316522894h-61.875Z" style="fill: #ff9da6;"></path><path d="M140.9375,221.12360757906805h61.875v228.87639242093195h-61.875Z" style="fill: #e45756;"></path><path d="M553.4375,3.643724696356287h61.875v446.3562753036437h-61.875Z" style="fill: #9d755d;"></path><path d="M622.1875,222.8004128969579h61.875v227.1995871030421h-61.875Z" style="fill: #bab0ac;"></path></g><g class="mark-text role-title" style="pointer-events: none;"><text text-anchor="middle" transform="translate(519.4296875,-18)" style="font-family: sans-serif; font-size: 24px; font-weight: bold; fill: #000; opacity: 1;">Disruption % by Carrier at LGA</text></g><g class="mark-group role-axis"><g transform="translate(0.5,450.5)"><path class="background" d="M0,0h0v0h0Z" style="pointer-events: none; fill: none;"></path><g><g class="mark-rule role-axis-tick" style="pointer-events: none;"><line transform="translate(33,0)" x2="0" y2="5" style="fill: none; stroke: #888; stroke-width: 1; opacity: 1;"></line><line transform="translate(102,0)" x2="0" y2="5" style="fill: none; stroke: #888; stroke-width: 1; opacity: 1;"></line><line transform="translate(171,0)" x2="0" y2="5" style="fill: none; stroke: #888; stroke-width: 1; opacity: 1;"></line><line transform="translate(240,0)" x2="0" y2="5" style="fill: none; stroke: #888; stroke-width: 1; opacity: 1;"></line><line transform="translate(308,0)" x2="0" y2="5" style="fill: none; stroke: #888; stroke-width: 1; opacity: 1;"></line><line transform="translate(377,0)" x2="0" y2="5" style="fill: none; stroke: #888; stroke-width: 1; opacity: 1;"></line><line transform="translate(446,0)" x2="0" y2="5" style="fill: none; stroke: #888; stroke-width: 1; opacity: 1;"></line><line transform="translate(515,0)" x2="0" y2="5" style="fill: none; stroke: #888; stroke-width: 1; opacity: 1;"></line><line transform="translate(583,0)" x2="0" y2="5" style="fill: none; stroke: #888; stroke-width: 1; opacity: 1;"></line><line transform="translate(652,0)" x2="0" y2="5" style="fill: none; stroke: #888; stroke-width: 1; opacity: 1;"></line><line transform="translate(721,0)" x2="0" y2="5" style="fill: none; stroke: #888; stroke-width: 1; opacity: 1;"></line><line transform="translate(790,0)" x2="0" y2="5" style="fill: none; stroke: #888; stroke-width: 1; opacity: 1;"></line><line transform="translate(858,0)" x2="0" y2="5" style="fill: none; stroke: #888; stroke-width: 1; opacity: 1;"></line><line transform="translate(927,0)" x2="0" y2="5" style="fill: none; stroke: #888; stroke-width: 1; opacity: 1;"></line><line transform="translate(996,0)" x2="0" y2="5" style="fill: none; stroke: #888; stroke-width: 1; opacity: 1;"></line><line transform="translate(1065,0)" x2="0" y2="5" style="fill: none; stroke: #888; stroke-width: 1; opacity: 1;"></line></g><g class="mark-text role-axis-label" style="pointer-events: none;"><text text-anchor="end" transform="translate(33.375,7) rotate(270) translate(0,5)" style="font-family: sans-serif; font-size: 16px; fill: #000; opacity: 1;">American</text><text text-anchor="end" transform="translate(102.125,7) rotate(270) translate(0,5)" style="font-family: sans-serif; font-size: 16px; fill: #000; opacity: 1;">Delta</text><text text-anchor="end" transform="translate(170.875,7) rotate(270) translate(0,5)" style="font-family: sans-serif; font-size: 16px; fill: #000; opacity: 1;">Endeavor</text><text text-anchor="end" transform="translate(239.625,7) rotate(270) translate(0,5)" style="font-family: sans-serif; font-size: 16px; fill: #000; opacity: 1;">Envoy</text><text text-anchor="end" transform="translate(308.375,7) rotate(270) translate(0,5)" style="font-family: sans-serif; font-size: 16px; fill: #000; opacity: 1;">ExpressJet</text><text text-anchor="end" transform="translate(377.125,7) rotate(270) translate(0,5)" style="font-family: sans-serif; font-size: 16px; fill: #000; opacity: 1;">Frontier</text><text text-anchor="end" transform="translate(445.875,7) rotate(270) translate(0,5)" style="font-family: sans-serif; font-size: 16px; fill: #000; opacity: 1;">JetBLue</text><text text-anchor="end" transform="translate(514.625,7) rotate(270) translate(0,5)" style="font-family: sans-serif; font-size: 16px; fill: #000; opacity: 1;">Mesa</text><text text-anchor="end" transform="translate(583.375,7) rotate(270) translate(0,5)" style="font-family: sans-serif; font-size: 16px; fill: #000; opacity: 1;">PSA</text><text text-anchor="end" transform="translate(652.125,7) rotate(270) translate(0,5)" style="font-family: sans-serif; font-size: 16px; fill: #000; opacity: 1;">Republic</text><text text-anchor="end" transform="translate(720.875,7) rotate(270) translate(0,5)" style="font-family: sans-serif; font-size: 16px; fill: #000; opacity: 1;">SkyWest</text><text text-anchor="end" transform="translate(789.625,7) rotate(270) translate(0,5)" style="font-family: sans-serif; font-size: 16px; fill: #000; opacity: 1;">Southwest</text><text text-anchor="end" transform="translate(858.375,7) rotate(270) translate(0,5)" style="font-family: sans-serif; font-size: 16px; fill: #000; opacity: 1;">Spirit</text><text text-anchor="end" transform="translate(927.125,7) rotate(270) translate(0,5)" style="font-family: sans-serif; font-size: 16px; fill: #000; opacity: 1;">US Airways</text><text text-anchor="end" transform="translate(995.875,7) rotate(270) translate(0,5)" style="font-family: sans-serif; font-size: 16px; fill: #000; opacity: 1;">United</text><text text-anchor="end" transform="translate(1064.625,7) rotate(270) translate(0,5)" style="font-family: sans-serif; font-size: 16px; fill: #000; opacity: 1;">Virgin</text></g><g class="mark-rule role-axis-domain" style="pointer-events: none;"><line transform="translate(0,0)" x2="1100" y2="0" style="fill: none; stroke: #888; stroke-width: 1; opacity: 1;"></line></g><g class="mark-text role-axis-title" style="pointer-events: none;"><text text-anchor="middle" transform="translate(550,107.6796875)" style="font-family: sans-serif; font-size: 16px; font-weight: bold; fill: #000; opacity: 1;">Carrier</text></g></g></g></g><g class="mark-group role-axis"><g transform="translate(0.5,0.5)"><path class="background" d="M0,0h0v0h0Z" style="pointer-events: none; fill: none;"></path><g><g class="mark-rule role-axis-tick" style="pointer-events: none;"><line transform="translate(0,450)" x2="-5" y2="0" style="fill: none; stroke: #888; stroke-width: 1; opacity: 1;"></line><line transform="translate(0,405)" x2="-5" y2="0" style="fill: none; stroke: #888; stroke-width: 1; opacity: 1;"></line><line transform="translate(0,360)" x2="-5" y2="0" style="fill: none; stroke: #888; stroke-width: 1; opacity: 1;"></line><line transform="translate(0,315)" x2="-5" y2="0" style="fill: none; stroke: #888; stroke-width: 1; opacity: 1;"></line><line transform="translate(0,270)" x2="-5" y2="0" style="fill: none; stroke: #888; stroke-width: 1; opacity: 1;"></line><line transform="translate(0,225)" x2="-5" y2="0" style="fill: none; stroke: #888; stroke-width: 1; opacity: 1;"></line><line transform="translate(0,180)" x2="-5" y2="0" style="fill: none; stroke: #888; stroke-width: 1; opacity: 1;"></line><line transform="translate(0,135)" x2="-5" y2="0" style="fill: none; stroke: #888; stroke-width: 1; opacity: 1;"></line><line transform="translate(0,90)" x2="-5" y2="0" style="fill: none; stroke: #888; stroke-width: 1; opacity: 1;"></line><line transform="translate(0,45)" x2="-5" y2="0" style="fill: none; stroke: #888; stroke-width: 1; opacity: 1;"></line><line transform="translate(0,0)" x2="-5" y2="0" style="fill: none; stroke: #888; stroke-width: 1; opacity: 1;"></line></g><g class="mark-text role-axis-label" style="pointer-events: none;"><text text-anchor="end" transform="translate(-7,455)" style="font-family: sans-serif; font-size: 16px; fill: #000; opacity: 1;">0.00</text><text text-anchor="end" transform="translate(-7,410)" style="font-family: sans-serif; font-size: 16px; fill: #000; opacity: 1;">0.01</text><text text-anchor="end" transform="translate(-7,365)" style="font-family: sans-serif; font-size: 16px; fill: #000; opacity: 1;">0.02</text><text text-anchor="end" transform="translate(-7,320)" style="font-family: sans-serif; font-size: 16px; fill: #000; opacity: 1;">0.03</text><text text-anchor="end" transform="translate(-7,275)" style="font-family: sans-serif; font-size: 16px; fill: #000; opacity: 1;">0.04</text><text text-anchor="end" transform="translate(-7,230)" style="font-family: sans-serif; font-size: 16px; fill: #000; opacity: 1;">0.05</text><text text-anchor="end" transform="translate(-7,185)" style="font-family: sans-serif; font-size: 16px; fill: #000; opacity: 1;">0.06</text><text text-anchor="end" transform="translate(-7,139.99999999999994)" style="font-family: sans-serif; font-size: 16px; fill: #000; opacity: 1;">0.07</text><text text-anchor="end" transform="translate(-7,95.00000000000006)" style="font-family: sans-serif; font-size: 16px; fill: #000; opacity: 1;">0.08</text><text text-anchor="end" transform="translate(-7,50.00000000000006)" style="font-family: sans-serif; font-size: 16px; fill: #000; opacity: 1;">0.09</text><text text-anchor="end" transform="translate(-7,5)" style="font-family: sans-serif; font-size: 16px; fill: #000; opacity: 1;">0.10</text></g><g class="mark-rule role-axis-domain" style="pointer-events: none;"><line transform="translate(0,450)" x2="0" y2="-450" style="fill: none; stroke: #888; stroke-width: 1; opacity: 1;"></line></g><g class="mark-text role-axis-title" style="pointer-events: none;"><text text-anchor="middle" transform="translate(-43.140625,225) rotate(-90) translate(0,-3)" style="font-family: sans-serif; font-size: 16px; font-weight: bold; fill: #000; opacity: 1;">LGA</text></g></g></g></g></g></g></g></g></svg>