<svg class="marks" width="1181" height="611" viewBox="0 0 1181 611" version="1.1" xmlns="http://www.w3.org/2000/svg" xmlns:xlink="http://www.w3.org/1999/xlink"><g transform="translate(76,43)"><g class="mark-group role-frame root"><g transform="translate(0,0)"><path class="background" d="M0.5,0.5h1100v450h-1100Z" style="fill: none; stroke: #ddd;"></path><g><g class="mark-group role-axis"><g transform="translate(0.5,0.5)"><path class="background" d="M0,0h0v0h0Z" style="pointer-events: none; fill: none;"></path><g><g class="mark-rule role-axis-grid" style="pointer-events: none;"><line transform="translate(0,450)" x2="1100" y2="0" style="fill: none; stroke: #ddd; stroke-width: 1; opacity: 1;"></line><line transform="translate(0,422)" x2="1100" y2="0" style="fill: none; stroke: #ddd; stroke-width: 1; opacity: 1;"></line><line transform="translate(0,394)" x2="1100" y2="0" style="fill: none; stroke: #ddd; stroke-width: 1; opacity: 1;"></line><line transform="translate(0,366)" x2="1100" y2="0" style="fill: none; stroke: #ddd; stroke-width: 1; opacity: 1;"></line><line transform="translate(0,338)" x2="1100" y2="0" style="fill: none; stroke: #ddd; stroke-width: 1; opacity: 1;"></line><line transform="translate(0,309)" x2="1100" y2="0" style="fill: none; stroke: #ddd; stroke-width: 1; opacity: 1;"></line><line transform="translate(0,281)" x2="1100" y2="0" style="fill: none; stroke: #ddd; stroke-width: 1; opacity: 1;"></line><line transform="translate(0,253)" x2="1100" y2="0" style="fill: none; stroke: #ddd; stroke-width: 1; opacity: 1;"></line><line transform="translate(0,225)" x2="1100" y2="0" style="fill: none; stroke: #ddd; stroke-width: 1; opacity: 1;"></line><line transform="translate(0,197)" x2="1100" y2="0" style="fill: none; stroke: #ddd; stroke-width: 1; opacity: 1;"></line><line transform="translate(0,169)" x2="1100" y2="0" style="fill: none; stroke: #ddd; stroke-width: 1; opacity: 1;"></line><line transform="translate(0,141)" x2="1100" y2="0" style="fill: none; stroke: #ddd; stroke-width: 1; opacity: 1;"></line><line transform="translate(0,113)" x2="1100" y2="0" style="fill: none; stroke: #ddd; stroke-width: 1; opacity: 1;"></line><line transform="translate(0,84)" x2="1100" y2="0" style="fill: none; stroke: #ddd; stroke-width: 1; opacity: 1;"></line><line transform="translate(0,56)" x2="1100" y2="0" style="fill: none; stroke: #ddd; stroke-width: 1; opacity: 1;"></line><line transform="translate(0,28)" x2="1100" y2="0" style="fill: none; stroke: #ddd; stroke-width: 1; opacity: 1;"></line><line transform="translate(0,0)" x2="1100" y2="0" style="fill: none; stroke: #ddd; stroke-width: 1; opacity: 1;"></line></g></g></g></g><g class="mark-rect role-mark marks"><path d="M737,313.49392251202835h66v136.50607748797165h-66Z" style="fill: #4c78a8;"></path><path d="M150.3333333333334,330.5305066733348h66v119.4694933266652h-66Z" style="fill: #e45756;"></path><path d="M77.00000000000007,283.73841118014855h66v166.26158881985145h-66Z" style="fill: #f58518;"></path><path d="M370.33333333333337,198.24168797953965h66v251.75831202046035h-66Z" style="fill: #eeca3b;"></path><path d="M663.6666666666667,291.11617312072894h66v158.88382687927106h-66Z" style="fill: #bab0ac;"></path><path d="M957,321.7768242010019h66v128.2231757989981h-66Z" style="fill: #72b7b2;"></path><path d="M297.00000000000006,29.849498327759193h66v420.1505016722408h-66Z" style="fill: #54a24b;"></path><path d="M883.6666666666667,87.48052092609083h66v362.51947907390917h-66Z" style="fill: #e45756;"></path><path d="M443.66666666666674,322.8988034684881h66v127.1011965315119h-66Z" style="fill: #b279a2;"></path><path d="M3.6666666666667425,381.04328949048653h66v68.95671050951347h-66Z" style="fill: #4c78a8;"></path><path d="M810.3333333333334,245.34604343484773h66v204.65395656515227h-66Z" style="fill: #f58518;"></path><path d="M1030.3333333333333,361.4862528099602h66v88.5137471900398h-66Z" style="fill: #54a24b;"></path><path d="M517,137.5h66v312.5h-66Z" style="fill: #ff9da6;"></path><path d="M223.66666666666674,184.4682582745524h66v265.5317417254476h-66Z" style="fill: #72b7b2;"></path><path d="M590.3333333333334,178.981406628941h66v271.018593371059h-66Z" style="fill: #9d755d;"></path></g><g class="mark-text role-title" style="pointer-events: none;"><text text-anchor="middle" transform="translate(514.98046875,-18)" style="font-family: sans-serif; font-size: 24px; font-weight: bold; fill: #000; opacity: 1;">Disruption % by Carrier at BOS</text></g><g class="mark-group role-axis"><g transform="translate(0.5,450.5)"><path class="background" d="M0,0h0v0h0Z" style="pointer-events: none; fill: none;"></path><g><g class="mark-rule role-axis-tick" style="pointer-events: none;"><line transform="translate(36,0)" x2="0" y2="5" style="fill: none; stroke: #888; stroke-width: 1; opacity: 1;"></line><line transform="translate(109,0)" x2="0" y2="5" style="fill: none; stroke: #888; stroke-width: 1; opacity: 1;"></line><line transform="translate(182,0)" x2="0" y2="5" style="fill: none; stroke: #888; stroke-width: 1; opacity: 1;"></line><line transform="translate(256,0)" x2="0" y2="5" style="fill: none; stroke: #888; stroke-width: 1; opacity: 1;"></line><line transform="translate(329,0)" x2="0" y2="5" style="fill: none; stroke: #888; stroke-width: 1; opacity: 1;"></line><line transform="translate(402,0)" x2="0" y2="5" style="fill: none; stroke: #888; stroke-width: 1; opacity: 1;"></line><line transform="translate(476,0)" x2="0" y2="5" style="fill: none; stroke: #888; stroke-width: 1; opacity: 1;"></line><line transform="translate(549,0)" x2="0" y2="5" style="fill: none; stroke: #888; stroke-width: 1; opacity: 1;"></line><line transform="translate(622,0)" x2="0" y2="5" style="fill: none; stroke: #888; stroke-width: 1; opacity: 1;"></line><line transform="translate(696,0)" x2="0" y2="5" style="fill: none; stroke: #888; stroke-width: 1; opacity: 1;"></line><line transform="translate(769,0)" x2="0" y2="5" style="fill: none; stroke: #888; stroke-width: 1; opacity: 1;"></line><line transform="translate(842,0)" x2="0" y2="5" style="fill: none; stroke: #888; stroke-width: 1; opacity: 1;"></line><line transform="translate(916,0)" x2="0" y2="5" style="fill: none; stroke: #888; stroke-width: 1; opacity: 1;"></line><line transform="translate(989,0)" x2="0" y2="5" style="fill: none; stroke: #888; stroke-width: 1; opacity: 1;"></line><line transform="translate(1062,0)" x2="0" y2="5" style="fill: none; stroke: #888; stroke-width: 1; opacity: 1;"></line></g><g class="mark-text role-axis-label" style="pointer-events: none;"><text text-anchor="end" transform="translate(35.66666666666674,7) rotate(270) translate(0,5)" style="font-family: sans-serif; font-size: 16px; fill: #000; opacity: 1;">Alaska</text><text text-anchor="end" transform="translate(109.00000000000007,7) rotate(270) translate(0,5)" style="font-family: sans-serif; font-size: 16px; fill: #000; opacity: 1;">American</text><text text-anchor="end" transform="translate(182.3333333333334,7) rotate(270) translate(0,5)" style="font-family: sans-serif; font-size: 16px; fill: #000; opacity: 1;">Delta</text><text text-anchor="end" transform="translate(255.66666666666674,7) rotate(270) translate(0,5)" style="font-family: sans-serif; font-size: 16px; fill: #000; opacity: 1;">Endeavor</text><text text-anchor="end" transform="translate(329.00000000000006,7) rotate(270) translate(0,5)" style="font-family: sans-serif; font-size: 16px; fill: #000; opacity: 1;">Envoy</text><text text-anchor="end" transform="translate(402.33333333333337,7) rotate(270) translate(0,5)" style="font-family: sans-serif; font-size: 16px; fill: #000; opacity: 1;">ExpressJet</text><text text-anchor="end" transform="translate(475.66666666666674,7) rotate(270) translate(0,5)" style="font-family: sans-serif; font-size: 16px; fill: #000; opacity: 1;">JetBLue</text><text text-anchor="end" transform="translate(549,7) rotate(270) translate(0,5)" style="font-family: sans-serif; font-size: 16px; fill: #000; opacity: 1;">Mesa</text><text text-anchor="end" transform="translate(622.3333333333334,7) rotate(270) translate(0,5)" style="font-family: sans-serif; font-size: 16px; fill: #000; opacity: 1;">Republic</text><text text-anchor="end" transform="translate(695.6666666666667,7) rotate(270) translate(0,5)" style="font-family: sans-serif; font-size: 16px; fill: #000; opacity: 1;">SkyWest</text><text text-anchor="end" transform="translate(769,7) rotate(270) translate(0,5)" style="font-family: sans-serif; font-size: 16px; fill: #000; opacity: 1;">Southwest</text><text text-anchor="end" transform="translate(842.3333333333334,7) rotate(270) translate(0,5)" style="font-family: sans-serif; font-size: 16px; fill: #000; opacity: 1;">Spirit</text><text text-anchor="end" transform="translate(915.6666666666667,7) rotate(270) translate(0,5)" style="font-family: sans-serif; font-size: 16px; fill: #000; opacity: 1;">US Airways</text><text text-anchor="end" transform="translate(989,7) rotate(270) translate(0,5)" style="font-family: sans-serif; font-size: 16px; fill: #000; opacity: 1;">United</text><text text-anchor="end" transform="translate(1062.3333333333333,7) rotate(270) translate(0,5)" style="font-family: sans-serif; font-size: 16px; fill: #000; opacity: 1;">Virgin</text></g><g class="mark-rule role-axis-domain" style="pointer-events: none;"><line transform="translate(0,0)" x2="1100" y2="0" style="fill: none; stroke: #888; stroke-width: 1; opacity: 1;"></line></g><g class="mark-text role-axis-title" style="pointer-events: none;"><text text-anchor="middle" transform="translate(550,107.6796875)" style="font-family: sans-serif; font-size: 16px; font-weight: bold; fill: #000; opacity: 1;">Carrier</text></g></g></g></g><g class="mark-group role-axis"><g transform="translate(0.5,0.5)"><path class="background" d="M0,0h0v0h0Z" style="pointer-events: none; fill: none;"></path><g><g class="mark-rule role-axis-tick" style="pointer-events: none;"><line transform="translate(0,450)" x2="-5" y2="0" style="fill: none; stroke: #888; stroke-width: 1; opacity: 1;"></line><line transform="translate(0,422)" x2="-5" y2="0" style="fill: none; stroke: #888; stroke-width: 1; opacity: 1;"></line><line transform="translate(0,394)" x2="-5" y2="0" style="fill: none; stroke: #888; stroke-width: 1; opacity: 1;"></line><line transform="translate(0,366)" x2="-5" y2="0" style="fill: none; stroke: #888; stroke-width: 1; opacity: 1;"></line><line transform="translate(0,338)" x2="-5" y2="0" style="fill: none; stroke: #888; stroke-width: 1; opacity: 1;"></line><line transform="translate(0,309)" x2="-5" y2="0" style="fill: none; stroke: #888; stroke-width: 1; opacity: 1;"></line><line transform="translate(0,281)" x2="-5" y2="0" style="fill: none; stroke: #888; stroke-width: 1; opacity: 1;"></line><line transform="translate(0,253)" x2="-5" y2="0" style="fill: none; stroke: #888; stroke-width: 1; opacity: 1;"></line><line transform="translate(0,225)" x2="-5" y2="0" style="fill: none; stroke: #888; stroke-width: 1; opacity: 1;"></line><line transform="translate(0,197)" x2="-5" y2="0" style="fill: none; stroke: #888; stroke-width: 1; opacity: 1;"></line><line transform="translate(0,169)" x2="-5" y2="0" style="fill: none; stroke: #888; stroke-width: 1; opacity: 1;"></line><line transform="translate(0,141)" x2="-5" y2="0" style="fill: none; stroke: #888; stroke-width: 1; opacity: 1;"></line><line transform="translate(0,113)" x2="-5" y2="0" style="fill: none; stroke: #888; stroke-width: 1; opacity: 1;"></line><line transform="translate(0,84)" x2="-5" y2="0" style="fill: none; stroke: #888; stroke-width: 1; opacity: 1;"></line><line transform="translate(0,56)" x2="-5" y2="0" style="fill: none; stroke: #888; stroke-width: 1; opacity: 1;"></line><line transform="translate(0,28)" x2="-5" y2="0" style="fill: none; stroke: #888; stroke-width: 1; opacity: 1;"></line><line transform="translate(0,0)" x2="-5" y2="0" style="fill: none; stroke: #888; stroke-width: 1; opacity: 1;"></line></g><g class="mark-text role-axis-label" style="pointer-events: none;"><text text-anchor="end" transform="translate(-7,455)" style="font-family: sans-serif; font-size: 16px; fill: #000; opacity: 1;">0.000</text><text text-anchor="end" transform="translate(-7,426.875)" style="font-family: sans-serif; font-size: 16px; fill: #000; opacity: 1;">0.005</text><text text-anchor="end" transform="translate(-7,398.75)" style="font-family: sans-serif; font-size: 16px; fill: #000; opacity: 1;">0.010</text><text text-anchor="end" transform="translate(-7,370.625)" style="font-family: sans-serif; font-size: 16px; fill: #000; opacity: 1;">0.015</text><text text-anchor="end" transform="translate(-7,342.5)" style="font-family: sans-serif; font-size: 16px; fill: #000; opacity: 1;">0.020</text><text text-anchor="end" transform="translate(-7,314.375)" style="font-family: sans-serif; font-size: 16px; fill: #000; opacity: 1;">0.025</text><text text-anchor="end" transform="translate(-7,286.25)" style="font-family: sans-serif; font-size: 16px; fill: #000; opacity: 1;">0.030</text><text text-anchor="end" transform="translate(-7,258.125)" style="font-family: sans-serif; font-size: 16px; fill: #000; opacity: 1;">0.035</text><text text-anchor="end" transform="translate(-7,230)" style="font-family: sans-serif; font-size: 16px; fill: #000; opacity: 1;">0.040</text><text text-anchor="end" transform="translate(-7,201.875)" style="font-family: sans-serif; font-size: 16px; fill: #000; opacity: 1;">0.045</text><text text-anchor="end" transform="translate(-7,173.75)" style="font-family: sans-serif; font-size: 16px; fill: #000; opacity: 1;">0.050</text><text text-anchor="end" transform="translate(-7,145.625)" style="font-family: sans-serif; font-size: 16px; fill: #000; opacity: 1;">0.055</text><text text-anchor="end" transform="translate(-7,117.5)" style="font-family: sans-serif; font-size: 16px; fill: #000; opacity: 1;">0.060</text><text text-anchor="end" transform="translate(-7,89.375)" style="font-family: sans-serif; font-size: 16px; fill: #000; opacity: 1;">0.065</text><text text-anchor="end" transform="translate(-7,61.24999999999994)" style="font-family: sans-serif; font-size: 16px; fill: #000; opacity: 1;">0.070</text><text text-anchor="end" transform="translate(-7,33.125)" style="font-family: sans-serif; font-size: 16px; fill: #000; opacity: 1;">0.075</text><text text-anchor="end" transform="translate(-7,5)" style="font-family: sans-serif; font-size: 16px; fill: #000; opacity: 1;">0.080</text></g><g class="mark-rule role-axis-domain" style="pointer-events: none;"><line transform="translate(0,450)" x2="0" y2="-450" style="fill: none; stroke: #888; stroke-width: 1; opacity: 1;"></line></g><g class="mark-text role-axis-title" style="pointer-events: none;"><text text-anchor="middle" transform="translate(-52.0390625,225) rotate(-90) translate(0,-3)" style="font-family: sans-serif; font-size: 16px; font-weight: bold; fill: #000; opacity: 1;">BOS</text></g></g></g></g></g></g></g></g></svg>