<svg class="marks" width="1172" height="611" viewBox="0 0 1172 611" version="1.1" xmlns="http://www.w3.org/2000/svg" xmlns:xlink="http://www.w3.org/1999/xlink"><g transform="translate(67,43)"><g class="mark-group role-frame root"><g transform="translate(0,0)"><path class="background" d="M0.5,0.5h1100v450h-1100Z" style="fill: none; stroke: #ddd;"></path><g><g class="mark-group role-axis"><g transform="translate(0.5,0.5)"><path class="background" d="M0,0h0v0h0Z" style="pointer-events: none; fill: none;"></path><g><g class="mark-rule role-axis-grid" style="pointer-events: none;"><line transform="translate(0,450)" x2="1100" y2="0" style="fill: none; stroke: #ddd; stroke-width: 1; opacity: 1;"></line><line transform="translate(0,405)" x2="1100" y2="0" style="fill: none; stroke: #ddd; stroke-width: 1; opacity: 1;"></line><line transform="translate(0,360)" x2="1100" y2="0" style="fill: none; stroke: #ddd; stroke-width: 1; opacity: 1;"></line><line transform="translate(0,315)" x2="1100" y2="0" style="fill: none; stroke: #ddd; stroke-width: 1; opacity: 1;"></line><line transform="translate(0,270)" x2="1100" y2="0" style="fill: none; stroke: #ddd; stroke-width: 1; opacity: 1;"></line><line transform="translate(0,225)" x2="1100" y2="0" style="fill: none; stroke: #ddd; stroke-width: 1; opacity: 1;"></line><line transform="translate(0,180)" x2="1100" y2="0" style="fill: none; stroke: #ddd; stroke-width: 1; opacity: 1;"></line><line transform="translate(0,135)" x2="1100" y2="0" style="fill: none; stroke: #ddd; stroke-width: 1; opacity: 1;"></line><line transform="translate(0,90)" x2="1100" y2="0" style="fill: none; stroke: #ddd; stroke-width: 1; opacity: 1;"></line><line transform="translate(0,45)" x2="1100" y2="0" style="fill: none; stroke: #ddd; stroke-width: 1; opacity: 1;"></line><line transform="translate(0,0)" x2="1100" y2="0" style="fill: none; stroke: #ddd; stroke-width: 1; opacity: 1;"></line></g></g></g></g><g class="mark-rect role-mark marks"><path d="M711.0714285714286,354.72882714400214h70.71428571428571v95.27117285599786h-70.71428571428571Z" style="fill: #bab0ac;"></path><path d="M161.07142857142858,418.06018146319053h70.71428571428571v31.93981853680947h-70.71428571428571Z" style="fill: #e45756;"></path><path d="M82.50000000000001,393.6098153236629h70.71428571428571v56.39018467633713h-70.71428571428571Z" style="fill: #f58518;"></path><path d="M632.5,398.02701631393643h70.71428571428571v51.97298368606357h-70.71428571428571Z" style="fill: #9d755d;"></path><path d="M946.7857142857143,397.4815241888988h70.71428571428571v52.51847581110121h-70.71428571428571Z" style="fill: #e45756;"></path><path d="M239.64285714285717,34.23913043478268h70.71428571428571v415.7608695652173h-70.71428571428571Z" style="fill: #72b7b2;"></path><path d="M868.2142857142857,406.07375271149675h70.71428571428571v43.92624728850325h-70.71428571428571Z" style="fill: #f58518;"></path><path d="M475.3571428571429,394.13650939074665h70.71428571428571v55.86349060925335h-70.71428571428571Z" style="fill: #b279a2;"></path><path d="M3.928571428571445,410.3047313552526h70.71428571428571v39.69526864474739h-70.71428571428571Z" style="fill: #4c78a8;"></path><path d="M318.2142857142857,369.2634560906516h70.71428571428571v80.73654390934843h-70.71428571428571Z" style="fill: #54a24b;"></path><path d="M789.6428571428571,367.4087905774203h70.71428571428571v82.59120942257971h-70.71428571428571Z" style="fill: #4c78a8;"></path><path d="M396.7857142857143,407.29971533143555h70.71428571428571v42.70028466856445h-70.71428571428571Z" style="fill: #eeca3b;"></path><path d="M1025.357142857143,393.4431117884832h70.71428571428571v56.55688821151682h-70.71428571428571Z" style="fill: #72b7b2;"></path><path d="M553.9285714285714,369.89828353464713h70.71428571428571v80.10171646535287h-70.71428571428571Z" style="fill: #ff9da6;"></path></g><g class="mark-text role-title" style="pointer-events: none;"><text text-anchor="middle" transform="translate(519.4296875,-18)" style="font-family: sans-serif; font-size: 24px; font-weight: bold; fill: #000; opacity: 1;">Disruption % by Carrier at LAX</text></g><g class="mark-group role-axis"><g transform="translate(0.5,450.5)"><path class="background" d="M0,0h0v0h0Z" style="pointer-events: none; fill: none;"></path><g><g class="mark-rule role-axis-tick" style="pointer-events: none;"><line transform="translate(38,0)" x2="0" y2="5" style="fill: none; stroke: #888; stroke-width: 1; opacity: 1;"></line><line transform="translate(117,0)" x2="0" y2="5" style="fill: none; stroke: #888; stroke-width: 1; opacity: 1;"></line><line transform="translate(195,0)" x2="0" y2="5" style="fill: none; stroke: #888; stroke-width: 1; opacity: 1;"></line><line transform="translate(274,0)" x2="0" y2="5" style="fill: none; stroke: #888; stroke-width: 1; opacity: 1;"></line><line transform="translate(353,0)" x2="0" y2="5" style="fill: none; stroke: #888; stroke-width: 1; opacity: 1;"></line><line transform="translate(431,0)" x2="0" y2="5" style="fill: none; stroke: #888; stroke-width: 1; opacity: 1;"></line><line transform="translate(510,0)" x2="0" y2="5" style="fill: none; stroke: #888; stroke-width: 1; opacity: 1;"></line><line transform="translate(588,0)" x2="0" y2="5" style="fill: none; stroke: #888; stroke-width: 1; opacity: 1;"></line><line transform="translate(667,0)" x2="0" y2="5" style="fill: none; stroke: #888; stroke-width: 1; opacity: 1;"></line><line transform="translate(745,0)" x2="0" y2="5" style="fill: none; stroke: #888; stroke-width: 1; opacity: 1;"></line><line transform="translate(824,0)" x2="0" y2="5" style="fill: none; stroke: #888; stroke-width: 1; opacity: 1;"></line><line transform="translate(903,0)" x2="0" y2="5" style="fill: none; stroke: #888; stroke-width: 1; opacity: 1;"></line><line transform="translate(981,0)" x2="0" y2="5" style="fill: none; stroke: #888; stroke-width: 1; opacity: 1;"></line><line transform="translate(1060,0)" x2="0" y2="5" style="fill: none; stroke: #888; stroke-width: 1; opacity: 1;"></line></g><g class="mark-text role-axis-label" style="pointer-events: none;"><text text-anchor="end" transform="translate(38.2857142857143,7) rotate(270) translate(0,5)" style="font-family: sans-serif; font-size: 16px; fill: #000; opacity: 1;">Alaska</text><text text-anchor="end" transform="translate(116.85714285714286,7) rotate(270) translate(0,5)" style="font-family: sans-serif; font-size: 16px; fill: #000; opacity: 1;">American</text><text text-anchor="end" transform="translate(195.42857142857144,7) rotate(270) translate(0,5)" style="font-family: sans-serif; font-size: 16px; fill: #000; opacity: 1;">Delta</text><text text-anchor="end" transform="translate(274,7) rotate(270) translate(0,5)" style="font-family: sans-serif; font-size: 16px; fill: #000; opacity: 1;">Envoy</text><text text-anchor="end" transform="translate(352.57142857142856,7) rotate(270) translate(0,5)" style="font-family: sans-serif; font-size: 16px; fill: #000; opacity: 1;">Frontier</text><text text-anchor="end" transform="translate(431.1428571428571,7) rotate(270) translate(0,5)" style="font-family: sans-serif; font-size: 16px; fill: #000; opacity: 1;">Hawaiian</text><text text-anchor="end" transform="translate(509.7142857142857,7) rotate(270) translate(0,5)" style="font-family: sans-serif; font-size: 16px; fill: #000; opacity: 1;">JetBLue</text><text text-anchor="end" transform="translate(588.2857142857143,7) rotate(270) translate(0,5)" style="font-family: sans-serif; font-size: 16px; fill: #000; opacity: 1;">Other</text><text text-anchor="end" transform="translate(666.8571428571429,7) rotate(270) translate(0,5)" style="font-family: sans-serif; font-size: 16px; fill: #000; opacity: 1;">SkyWest</text><text text-anchor="end" transform="translate(745.4285714285714,7) rotate(270) translate(0,5)" style="font-family: sans-serif; font-size: 16px; fill: #000; opacity: 1;">Southwest</text><text text-anchor="end" transform="translate(824,7) rotate(270) translate(0,5)" style="font-family: sans-serif; font-size: 16px; fill: #000; opacity: 1;">Spirit</text><text text-anchor="end" transform="translate(902.5714285714286,7) rotate(270) translate(0,5)" style="font-family: sans-serif; font-size: 16px; fill: #000; opacity: 1;">US Airways</text><text text-anchor="end" transform="translate(981.1428571428572,7) rotate(270) translate(0,5)" style="font-family: sans-serif; font-size: 16px; fill: #000; opacity: 1;">United</text><text text-anchor="end" transform="translate(1059.7142857142858,7) rotate(270) translate(0,5)" style="font-family: sans-serif; font-size: 16px; fill: #000; opacity: 1;">Virgin</text></g><g class="mark-rule role-axis-domain" style="pointer-events: none;"><line transform="translate(0,0)" x2="1100" y2="0" style="fill: none; stroke: #888; stroke-width: 1; opacity: 1;"></line></g><g class="mark-text role-axis-title" style="pointer-events: none;"><text text-anchor="middle" transform="translate(550,107.6796875)" style="font-family: sans-serif; font-size: 16px; font-weight: bold; fill: #000; opacity: 1;">Carrier</text></g></g></g></g><g class="mark-group role-axis"><g transform="translate(0.5,0.5)"><path class="background" d="M0,0h0v0h0Z" style="pointer-events: none; fill: none;"></path><g><g class="mark-rule role-axis-tick" style="pointer-events: none;"><line transform="translate(0,450)" x2="-5" y2="0" style="fill: none; stroke: #888; stroke-width: 1; opacity: 1;"></line><line transform="translate(0,405)" x2="-5" y2="0" style="fill: none; stroke: #888; stroke-width: 1; opacity: 1;"></line><line transform="translate(0,360)" x2="-5" y2="0" style="fill: none; stroke: #888; stroke-width: 1; opacity: 1;"></line><line transform="translate(0,315)" x2="-5" y2="0" style="fill: none; stroke: #888; stroke-width: 1; opacity: 1;"></line><line transform="translate(0,270)" x2="-5" y2="0" style="fill: none; stroke: #888; stroke-width: 1; opacity: 1;"></line><line transform="translate(0,225)" x2="-5" y2="0" style="fill: none; stroke: #888; stroke-width: 1; opacity: 1;"></line><line transform="translate(0,180)" x2="-5" y2="0" style="fill: none; stroke: #888; stroke-width: 1; opacity: 1;"></line><line transform="translate(0,135)" x2="-5" y2="0" style="fill: none; stroke: #888; stroke-width: 1; opacity: 1;"></line><line transform="translate(0,90)" x2="-5" y2="0" style="fill: none; stroke: #888; stroke-width: 1; opacity: 1;"></line><line transform="translate(0,45)" x2="-5" y2="0" style="fill: none; stroke: #888; stroke-width: 1; opacity: 1;"></line><line transform="translate(0,0)" x2="-5" y2="0" style="fill: none; stroke: #888; stroke-width: 1; opacity: 1;"></line></g><g class="mark-text role-axis-label" style="pointer-events: none;"><text text-anchor="end" transform="translate(-7,455)" style="font-family: sans-serif; font-size: 16px; fill: #000; opacity: 1;">0.00</text><text text-anchor="end" transform="translate(-7,410)" style="font-family: sans-serif; font-size: 16px; fill: #000; opacity: 1;">0.01</text><text text-anchor="end" transform="translate(-7,365)" style="font-family: sans-serif; font-size: 16px; fill: #000; opacity: 1;">0.02</text><text text-anchor="end" transform="translate(-7,320)" style="font-family: sans-serif; font-size: 16px; fill: #000; opacity: 1;">0.03</text><text text-anchor="end" transform="translate(-7,275)" style="font-family: sans-serif; font-size: 16px; fill: #000; opacity: 1;">0.04</text><text text-anchor="end" transform="translate(-7,230)" style="font-family: sans-serif; font-size: 16px; fill: #000; opacity: 1;">0.05</text><text text-anchor="end" transform="translate(-7,185)" style="font-family: sans-serif; font-size: 16px; fill: #000; opacity: 1;">0.06</text><text text-anchor="end" transform="translate(-7,139.99999999999994)" style="font-family: sans-serif; font-size: 16px; fill: #000; opacity: 1;">0.07</text><text text-anchor="end" transform="translate(-7,95.00000000000006)" style="font-family: sans-serif; font-size: 16px; fill: #000; opacity: 1;">0.08</text><text text-anchor="end" transform="translate(-7,50.00000000000006)" style="font-family: sans-serif; font-size: 16px; fill: #000; opacity: 1;">0.09</text><text text-anchor="end" transform="translate(-7,5)" style="font-family: sans-serif; font-size: 16px; fill: #000; opacity: 1;">0.10</text></g><g class="mark-rule role-axis-domain" style="pointer-events: none;"><line transform="translate(0,450)" x2="0" y2="-450" style="fill: none; stroke: #888; stroke-width: 1; opacity: 1;"></line></g><g class="mark-text role-axis-title" style="pointer-events: none;"><text text-anchor="middle" transform="translate(-43.140625,225) rotate(-90) translate(0,-3)" style="font-family: sans-serif; font-size: 16px; font-weight: bold; fill: #000; opacity: 1;">LAX</text></g></g></g></g></g></g></g></g></svg>