<svg class="marks" width="1162" height="607" viewBox="0 0 1162 607" version="1.1" xmlns="http://www.w3.org/2000/svg" xmlns:xlink="http://www.w3.org/1999/xlink"><g transform="translate(57,43)"><g class="mark-group role-frame root"><g transform="translate(0,0)"><path class="background" d="M0.5,0.5h1100v450h-1100Z" style="fill: none; stroke: #ddd;"></path><g><g class="mark-group role-axis"><g transform="translate(0.5,0.5)"><path class="background" d="M0,0h0v0h0Z" style="pointer-events: none; fill: none;"></path><g><g class="mark-rule role-axis-grid" style="pointer-events: none;"><line transform="translate(0,450)" x2="1100" y2="0" style="fill: none; stroke: #ddd; stroke-width: 1; opacity: 1;"></line><line transform="translate(0,415)" x2="1100" y2="0" style="fill: none; stroke: #ddd; stroke-width: 1; opacity: 1;"></line><line transform="translate(0,381)" x2="1100" y2="0" style="fill: none; stroke: #ddd; stroke-width: 1; opacity: 1;"></line><line transform="translate(0,346)" x2="1100" y2="0" style="fill: none; stroke: #ddd; stroke-width: 1; opacity: 1;"></line><line transform="translate(0,312)" x2="1100" y2="0" style="fill: none; stroke: #ddd; stroke-width: 1; opacity: 1;"></line><line transform="translate(0,277)" x2="1100" y2="0" style="fill: none; stroke: #ddd; stroke-width: 1; opacity: 1;"></line><line transform="translate(0,242)" x2="1100" y2="0" style="fill: none; stroke: #ddd; stroke-width: 1; opacity: 1;"></line><line transform="translate(0,208)" x2="1100" y2="0" style="fill: none; stroke: #ddd; stroke-width: 1; opacity: 1;"></line><line transform="translate(0,173)" x2="1100" y2="0" style="fill: none; stroke: #ddd; stroke-width: 1; opacity: 1;"></line><line transform="translate(0,138)" x2="1100" y2="0" style="fill: none; stroke: #ddd; stroke-width: 1; opacity: 1;"></line><line transform="translate(0,104)" x2="1100" y2="0" style="fill: none; stroke: #ddd; stroke-width: 1; opacity: 1;"></line><line transform="translate(0,69)" x2="1100" y2="0" style="fill: none; stroke: #ddd; stroke-width: 1; opacity: 1;"></line><line transform="translate(0,35)" x2="1100" y2="0" style="fill: none; stroke: #ddd; stroke-width: 1; opacity: 1;"></line><line transform="translate(0,0)" x2="1100" y2="0" style="fill: none; stroke: #ddd; stroke-width: 1; opacity: 1;"></line></g></g></g></g><g class="mark-rect role-mark marks"><path d="M4.5833333333332575,4.663658508096546h82.5v445.33634149190345h-82.5Z" style="fill: #54a24b;"></path><path d="M96.24999999999993,167.60022446779578h82.5v282.3997755322042h-82.5Z" style="fill: #72b7b2;"></path><path d="M187.9166666666666,115.39538175019715h82.5v334.60461824980285h-82.5Z" style="fill: #ff9da6;"></path><path d="M279.58333333333326,248.5917477334609h82.5v201.4082522665391h-82.5Z" style="fill: #4c78a8;"></path><path d="M371.24999999999994,300.1189306595122h82.5v149.88106934048778h-82.5Z" style="fill: #9d755d;"></path><path d="M462.91666666666663,223.38824203377067h82.5v226.61175796622933h-82.5Z" style="fill: #b279a2;"></path><path d="M554.5833333333333,176.83984549141184h82.5v273.16015450858816h-82.5Z" style="fill: #eeca3b;"></path><path d="M646.25,133.32700399062617h82.5v316.67299600937383h-82.5Z" style="fill: #f58518;"></path><path d="M737.9166666666666,161.50652470740982h82.5v288.4934752925902h-82.5Z" style="fill: #f58518;"></path><path d="M829.5833333333333,313.89090341277233h82.5v136.10909658722767h-82.5Z" style="fill: #4c78a8;"></path><path d="M921.25,345.7553908072859h82.5v104.24460919271411h-82.5Z" style="fill: #bab0ac;"></path><path d="M1012.9166666666666,193.0313273950057h82.5v256.9686726049943h-82.5Z" style="fill: #e45756;"></path></g><g class="mark-text role-title" style="pointer-events: none;"><text text-anchor="middle" transform="translate(524,-18)" style="font-family: sans-serif; font-size: 24px; font-weight: bold; fill: #000; opacity: 1;">Average Cancellation Costs per Customer by Month</text></g><g class="mark-group role-axis"><g transform="translate(0.5,450.5)"><path class="background" d="M0,0h0v0h0Z" style="pointer-events: none; fill: none;"></path><g><g class="mark-rule role-axis-tick" style="pointer-events: none;"><line transform="translate(45,0)" x2="0" y2="5" style="fill: none; stroke: #888; stroke-width: 1; opacity: 1;"></line><line transform="translate(136,0)" x2="0" y2="5" style="fill: none; stroke: #888; stroke-width: 1; opacity: 1;"></line><line transform="translate(228,0)" x2="0" y2="5" style="fill: none; stroke: #888; stroke-width: 1; opacity: 1;"></line><line transform="translate(320,0)" x2="0" y2="5" style="fill: none; stroke: #888; stroke-width: 1; opacity: 1;"></line><line transform="translate(411,0)" x2="0" y2="5" style="fill: none; stroke: #888; stroke-width: 1; opacity: 1;"></line><line transform="translate(503,0)" x2="0" y2="5" style="fill: none; stroke: #888; stroke-width: 1; opacity: 1;"></line><line transform="translate(595,0)" x2="0" y2="5" style="fill: none; stroke: #888; stroke-width: 1; opacity: 1;"></line><line transform="translate(687,0)" x2="0" y2="5" style="fill: none; stroke: #888; stroke-width: 1; opacity: 1;"></line><line transform="translate(778,0)" x2="0" y2="5" style="fill: none; stroke: #888; stroke-width: 1; opacity: 1;"></line><line transform="translate(870,0)" x2="0" y2="5" style="fill: none; stroke: #888; stroke-width: 1; opacity: 1;"></line><line transform="translate(962,0)" x2="0" y2="5" style="fill: none; stroke: #888; stroke-width: 1; opacity: 1;"></line><line transform="translate(1053,0)" x2="0" y2="5" style="fill: none; stroke: #888; stroke-width: 1; opacity: 1;"></line></g><g class="mark-text role-axis-label" style="pointer-events: none;"><text text-anchor="end" transform="translate(44.83333333333326,7) rotate(270) translate(0,5)" style="font-family: sans-serif; font-size: 16px; fill: #000; opacity: 1;">January</text><text text-anchor="end" transform="translate(136.49999999999994,7) rotate(270) translate(0,5)" style="font-family: sans-serif; font-size: 16px; fill: #000; opacity: 1;">February</text><text text-anchor="end" transform="translate(228.1666666666666,7) rotate(270) translate(0,5)" style="font-family: sans-serif; font-size: 16px; fill: #000; opacity: 1;">March</text><text text-anchor="end" transform="translate(319.83333333333326,7) rotate(270) translate(0,5)" style="font-family: sans-serif; font-size: 16px; fill: #000; opacity: 1;">April</text><text text-anchor="end" transform="translate(411.49999999999994,7) rotate(270) translate(0,5)" style="font-family: sans-serif; font-size: 16px; fill: #000; opacity: 1;">May</text><text text-anchor="end" transform="translate(503.16666666666663,7) rotate(270) translate(0,5)" style="font-family: sans-serif; font-size: 16px; fill: #000; opacity: 1;">June</text><text text-anchor="end" transform="translate(594.8333333333333,7) rotate(270) translate(0,5)" style="font-family: sans-serif; font-size: 16px; fill: #000; opacity: 1;">July</text><text text-anchor="end" transform="translate(686.5,7) rotate(270) translate(0,5)" style="font-family: sans-serif; font-size: 16px; fill: #000; opacity: 1;">August</text><text text-anchor="end" transform="translate(778.1666666666666,7) rotate(270) translate(0,5)" style="font-family: sans-serif; font-size: 16px; fill: #000; opacity: 1;">September</text><text text-anchor="end" transform="translate(869.8333333333333,7) rotate(270) translate(0,5)" style="font-family: sans-serif; font-size: 16px; fill: #000; opacity: 1;">October</text><text text-anchor="end" transform="translate(961.5,7) rotate(270) translate(0,5)" style="font-family: sans-serif; font-size: 16px; fill: #000; opacity: 1;">November</text><text text-anchor="end" transform="translate(1053.1666666666665,7) rotate(270) translate(0,5)" style="font-family: sans-serif; font-size: 16px; fill: #000; opacity: 1;">December</text></g><g class="mark-rule role-axis-domain" style="pointer-events: none;"><line transform="translate(0,0)" x2="1100" y2="0" style="fill: none; stroke: #888; stroke-width: 1; opacity: 1;"></line></g><g class="mark-text role-axis-title" style="pointer-events: none;"><text text-anchor="middle" transform="translate(550,103.265625)" style="font-family: sans-serif; font-size: 16px; font-weight: bold; fill: #000; opacity: 1;">Month</text></g></g></g></g><g class="mark-group role-axis"><g transform="translate(0.5,0.5)"><path class="background" d="M0,0h0v0h0Z" style="pointer-events: none; fill: none;"></path><g><g class="mark-rule role-axis-tick" style="pointer-events: none;"><line transform="translate(0,450)" x2="-5" y2="0" style="fill: none; stroke: #888; stroke-width: 1; opacity: 1;"></line><line transform="translate(0,415)" x2="-5" y2="0" style="fill: none; stroke: #888; stroke-width: 1; opacity: 1;"></line><line transform="translate(0,381)" x2="-5" y2="0" style="fill: none; stroke: #888; stroke-width: 1; opacity: 1;"></line><line transform="translate(0,346)" x2="-5" y2="0" style="fill: none; stroke: #888; stroke-width: 1; opacity: 1;"></line><line transform="translate(0,312)" x2="-5" y2="0" style="fill: none; stroke: #888; stroke-width: 1; opacity: 1;"></line><line transform="translate(0,277)" x2="-5" y2="0" style="fill: none; stroke: #888; stroke-width: 1; opacity: 1;"></line><line transform="translate(0,242)" x2="-5" y2="0" style="fill: none; stroke: #888; stroke-width: 1; opacity: 1;"></line><line transform="translate(0,208)" x2="-5" y2="0" style="fill: none; stroke: #888; stroke-width: 1; opacity: 1;"></line><line transform="translate(0,173)" x2="-5" y2="0" style="fill: none; stroke: #888; stroke-width: 1; opacity: 1;"></line><line transform="translate(0,138)" x2="-5" y2="0" style="fill: none; stroke: #888; stroke-width: 1; opacity: 1;"></line><line transform="translate(0,104)" x2="-5" y2="0" style="fill: none; stroke: #888; stroke-width: 1; opacity: 1;"></line><line transform="translate(0,69)" x2="-5" y2="0" style="fill: none; stroke: #888; stroke-width: 1; opacity: 1;"></line><line transform="translate(0,35)" x2="-5" y2="0" style="fill: none; stroke: #888; stroke-width: 1; opacity: 1;"></line><line transform="translate(0,0)" x2="-5" y2="0" style="fill: none; stroke: #888; stroke-width: 1; opacity: 1;"></line></g><g class="mark-text role-axis-label" style="pointer-events: none;"><text text-anchor="end" transform="translate(-7,455)" style="font-family: sans-serif; font-size: 16px; fill: #000; opacity: 1;">0</text><text text-anchor="end" transform="translate(-7,420.38461538461536)" style="font-family: sans-serif; font-size: 16px; fill: #000; opacity: 1;">1</text><text text-anchor="end" transform="translate(-7,385.7692307692308)" style="font-family: sans-serif; font-size: 16px; fill: #000; opacity: 1;">2</text><text text-anchor="end" transform="translate(-7,351.15384615384613)" style="font-family: sans-serif; font-size: 16px; fill: #000; opacity: 1;">3</text><text text-anchor="end" transform="translate(-7,316.53846153846155)" style="font-family: sans-serif; font-size: 16px; fill: #000; opacity: 1;">4</text><text text-anchor="end" transform="translate(-7,281.9230769230769)" style="font-family: sans-serif; font-size: 16px; fill: #000; opacity: 1;">5</text><text text-anchor="end" transform="translate(-7,247.3076923076923)" style="font-family: sans-serif; font-size: 16px; fill: #000; opacity: 1;">6</text><text text-anchor="end" transform="translate(-7,212.6923076923077)" style="font-family: sans-serif; font-size: 16px; fill: #000; opacity: 1;">7</text><text text-anchor="end" transform="translate(-7,178.07692307692304)" style="font-family: sans-serif; font-size: 16px; fill: #000; opacity: 1;">8</text><text text-anchor="end" transform="translate(-7,143.46153846153845)" style="font-family: sans-serif; font-size: 16px; fill: #000; opacity: 1;">9</text><text text-anchor="end" transform="translate(-7,108.84615384615381)" style="font-family: sans-serif; font-size: 16px; fill: #000; opacity: 1;">10</text><text text-anchor="end" transform="translate(-7,74.23076923076923)" style="font-family: sans-serif; font-size: 16px; fill: #000; opacity: 1;">11</text><text text-anchor="end" transform="translate(-7,39.615384615384585)" style="font-family: sans-serif; font-size: 16px; fill: #000; opacity: 1;">12</text><text text-anchor="end" transform="translate(-7,5)" style="font-family: sans-serif; font-size: 16px; fill: #000; opacity: 1;">13</text></g><g class="mark-rule role-axis-domain" style="pointer-events: none;"><line transform="translate(0,450)" x2="0" y2="-450" style="fill: none; stroke: #888; stroke-width: 1; opacity: 1;"></line></g><g class="mark-text role-axis-title" style="pointer-events: none;"><text text-anchor="middle" transform="translate(-34,225) rotate(-90) translate(0,-3)" style="font-family: sans-serif; font-size: 16px; font-weight: bold; fill: #000; opacity: 1;">Avg_Cancel_Cost</text></g></g></g></g></g></g></g></g></svg>