<svg class="marks" width="1163" height="598" viewBox="0 0 1163 598" version="1.1" xmlns="http://www.w3.org/2000/svg" xmlns:xlink="http://www.w3.org/1999/xlink"><g transform="translate(58,34)"><g class="mark-group role-frame root"><g transform="translate(0,0)"><path class="background" d="M0.5,0.5h1100v450h-1100Z" style="fill: none; stroke: #ddd;"></path><g><g class="mark-group role-axis"><g transform="translate(0.5,0.5)"><path class="background" d="M0,0h0v0h0Z" style="pointer-events: none; fill: none;"></path><g><g class="mark-rule role-axis-grid" style="pointer-events: none;"><line transform="translate(0,450)" x2="1100" y2="0" style="fill: none; stroke: #ddd; stroke-width: 1; opacity: 1;"></line><line transform="translate(0,424)" x2="1100" y2="0" style="fill: none; stroke: #ddd; stroke-width: 1; opacity: 1;"></line><line transform="translate(0,399)" x2="1100" y2="0" style="fill: none; stroke: #ddd; stroke-width: 1; opacity: 1;"></line><line transform="translate(0,373)" x2="1100" y2="0" style="fill: none; stroke: #ddd; stroke-width: 1; opacity: 1;"></line><line transform="translate(0,347)" x2="1100" y2="0" style="fill: none; stroke: #ddd; stroke-width: 1; opacity: 1;"></line><line transform="translate(0,321)" x2="1100" y2="0" style="fill: none; stroke: #ddd; stroke-width: 1; opacity: 1;"></line><line transform="translate(0,296)" x2="1100" y2="0" style="fill: none; stroke: #ddd; stroke-width: 1; opacity: 1;"></line><line transform="translate(0,270)" x2="1100" y2="0" style="fill: none; stroke: #ddd; stroke-width: 1; opacity: 1;"></line><line transform="translate(0,244)" x2="1100" y2="0" style="fill: none; stroke: #ddd; stroke-width: 1; opacity: 1;"></line><line transform="translate(0,219)" x2="1100" y2="0" style="fill: none; stroke: #ddd; stroke-width: 1; opacity: 1;"></line><line transform="translate(0,193)" x2="1100" y2="0" style="fill: none; stroke: #ddd; stroke-width: 1; opacity: 1;"></line><line transform="translate(0,167)" x2="1100" y2="0" style="fill: none; stroke: #ddd; stroke-width: 1; opacity: 1;"></line><line transform="translate(0,141)" x2="1100" y2="0" style="fill: none; stroke: #ddd; stroke-width: 1; opacity: 1;"></line><line transform="translate(0,116)" x2="1100" y2="0" style="fill: none; stroke: #ddd; stroke-width: 1; opacity: 1;"></line><line transform="translate(0,90)" x2="1100" y2="0" style="fill: none; stroke: #ddd; stroke-width: 1; opacity: 1;"></line><line transform="translate(0,64)" x2="1100" y2="0" style="fill: none; stroke: #ddd; stroke-width: 1; opacity: 1;"></line><line transform="translate(0,39)" x2="1100" y2="0" style="fill: none; stroke: #ddd; stroke-width: 1; opacity: 1;"></line><line transform="translate(0,13)" x2="1100" y2="0" style="fill: none; stroke: #ddd; stroke-width: 1; opacity: 1;"></line></g></g></g></g><g class="mark-rect role-mark marks"><path d="M4.5833333333332575,53.707326656489045h82.5v396.29267334351096h-82.5Z" style="fill: #54a24b;"></path><path d="M96.24999999999993,183.04438697236623h82.5v266.9556130276338h-82.5Z" style="fill: #72b7b2;"></path><path d="M187.9166666666666,152.9040304244678h82.5v297.0959695755322h-82.5Z" style="fill: #ff9da6;"></path><path d="M279.58333333333326,233.0469568766626h82.5v216.9530431233374h-82.5Z" style="fill: #4c78a8;"></path><path d="M371.24999999999994,277.8992000245563h82.5v172.1007999754437h-82.5Z" style="fill: #9d755d;"></path><path d="M462.91666666666663,200.82777574046753h82.5v249.17222425953247h-82.5Z" style="fill: #b279a2;"></path><path d="M554.5833333333333,154.81338586981548h82.5v295.1866141301845h-82.5Z" style="fill: #eeca3b;"></path><path d="M646.25,131.21346808363398h82.5v318.786531916366h-82.5Z" style="fill: #f58518;"></path><path d="M737.9166666666666,190.13094020110378h82.5v259.8690597988962h-82.5Z" style="fill: #f58518;"></path><path d="M829.5833333333333,303.4136004840948h82.5v146.5863995159052h-82.5Z" style="fill: #4c78a8;"></path><path d="M921.25,324.59078723081814h82.5v125.40921276918186h-82.5Z" style="fill: #bab0ac;"></path><path d="M1012.9166666666666,184.67879359003155h82.5v265.32120640996845h-82.5Z" style="fill: #e45756;"></path></g><g class="mark-text role-title" style="pointer-events: none;"><text text-anchor="middle" transform="translate(523.87890625,-9)" style="font-family: sans-serif; font-size: 24px; font-weight: bold; fill: #000; opacity: 1;">Disruption % by Month</text></g><g class="mark-group role-axis"><g transform="translate(0.5,450.5)"><path class="background" d="M0,0h0v0h0Z" style="pointer-events: none; fill: none;"></path><g><g class="mark-rule role-axis-tick" style="pointer-events: none;"><line transform="translate(45,0)" x2="0" y2="5" style="fill: none; stroke: #888; stroke-width: 1; opacity: 1;"></line><line transform="translate(136,0)" x2="0" y2="5" style="fill: none; stroke: #888; stroke-width: 1; opacity: 1;"></line><line transform="translate(228,0)" x2="0" y2="5" style="fill: none; stroke: #888; stroke-width: 1; opacity: 1;"></line><line transform="translate(320,0)" x2="0" y2="5" style="fill: none; stroke: #888; stroke-width: 1; opacity: 1;"></line><line transform="translate(411,0)" x2="0" y2="5" style="fill: none; stroke: #888; stroke-width: 1; opacity: 1;"></line><line transform="translate(503,0)" x2="0" y2="5" style="fill: none; stroke: #888; stroke-width: 1; opacity: 1;"></line><line transform="translate(595,0)" x2="0" y2="5" style="fill: none; stroke: #888; stroke-width: 1; opacity: 1;"></line><line transform="translate(687,0)" x2="0" y2="5" style="fill: none; stroke: #888; stroke-width: 1; opacity: 1;"></line><line transform="translate(778,0)" x2="0" y2="5" style="fill: none; stroke: #888; stroke-width: 1; opacity: 1;"></line><line transform="translate(870,0)" x2="0" y2="5" style="fill: none; stroke: #888; stroke-width: 1; opacity: 1;"></line><line transform="translate(962,0)" x2="0" y2="5" style="fill: none; stroke: #888; stroke-width: 1; opacity: 1;"></line><line transform="translate(1053,0)" x2="0" y2="5" style="fill: none; stroke: #888; stroke-width: 1; opacity: 1;"></line></g><g class="mark-text role-axis-label" style="pointer-events: none;"><text text-anchor="end" transform="translate(44.83333333333326,7) rotate(270) translate(0,5)" style="font-family: sans-serif; font-size: 16px; fill: #000; opacity: 1;">January</text><text text-anchor="end" transform="translate(136.49999999999994,7) rotate(270) translate(0,5)" style="font-family: sans-serif; font-size: 16px; fill: #000; opacity: 1;">February</text><text text-anchor="end" transform="translate(228.1666666666666,7) rotate(270) translate(0,5)" style="font-family: sans-serif; font-size: 16px; fill: #000; opacity: 1;">March</text><text text-anchor="end" transform="translate(319.83333333333326,7) rotate(270) translate(0,5)" style="font-family: sans-serif; font-size: 16px; fill: #000; opacity: 1;">April</text><text text-anchor="end" transform="translate(411.49999999999994,7) rotate(270) translate(0,5)" style="font-family: sans-serif; font-size: 16px; fill: #000; opacity: 1;">May</text><text text-anchor="end" transform="translate(503.16666666666663,7) rotate(270) translate(0,5)" style="font-family: sans-serif; font-size: 16px; fill: #000; opacity: 1;">June</text><text text-anchor="end" transform="translate(594.8333333333333,7) rotate(270) translate(0,5)" style="font-family: sans-serif; font-size: 16px; fill: #000; opacity: 1;">July</text><text text-anchor="end" transform="translate(686.5,7) rotate(270) translate(0,5)" style="font-family: sans-serif; font-size: 16px; fill: #000; opacity: 1;">August</text><text text-anchor="end" transform="translate(778.1666666666666,7) rotate(270) translate(0,5)" style="font-family: sans-serif; font-size: 16px; fill: #000; opacity: 1;">September</text><text text-anchor="end" transform="translate(869.8333333333333,7) rotate(270) translate(0,5)" style="font-family: sans-serif; font-size: 16px; fill: #000; opacity: 1;">October</text><text text-anchor="end" transform="translate(961.5,7) rotate(270) translate(0,5)" style="font-family: sans-serif; font-size: 16px; fill: #000; opacity: 1;">November</text><text text-anchor="end" transform="translate(1053.1666666666665,7) rotate(270) translate(0,5)" style="font-family: sans-serif; font-size: 16px; fill: #000; opacity: 1;">December</text></g><g class="mark-rule role-axis-domain" style="pointer-events: none;"><line transform="translate(0,0)" x2="1100" y2="0" style="fill: none; stroke: #888; stroke-width: 1; opacity: 1;"></line></g><g class="mark-text role-axis-title" style="pointer-events: none;"><text text-anchor="middle" transform="translate(550,103.265625)" style="font-family: sans-serif; font-size: 16px; font-weight: bold; fill: #000; opacity: 1;">Month</text></g></g></g></g><g class="mark-group role-axis"><g transform="translate(0.5,0.5)"><path class="background" d="M0,0h0v0h0Z" style="pointer-events: none; fill: none;"></path><g><g class="mark-rule role-axis-tick" style="pointer-events: none;"><line transform="translate(0,450)" x2="-5" y2="0" style="fill: none; stroke: #888; stroke-width: 1; opacity: 1;"></line><line transform="translate(0,424)" x2="-5" y2="0" style="fill: none; stroke: #888; stroke-width: 1; opacity: 1;"></line><line transform="translate(0,399)" x2="-5" y2="0" style="fill: none; stroke: #888; stroke-width: 1; opacity: 1;"></line><line transform="translate(0,373)" x2="-5" y2="0" style="fill: none; stroke: #888; stroke-width: 1; opacity: 1;"></line><line transform="translate(0,347)" x2="-5" y2="0" style="fill: none; stroke: #888; stroke-width: 1; opacity: 1;"></line><line transform="translate(0,321)" x2="-5" y2="0" style="fill: none; stroke: #888; stroke-width: 1; opacity: 1;"></line><line transform="translate(0,296)" x2="-5" y2="0" style="fill: none; stroke: #888; stroke-width: 1; opacity: 1;"></line><line transform="translate(0,270)" x2="-5" y2="0" style="fill: none; stroke: #888; stroke-width: 1; opacity: 1;"></line><line transform="translate(0,244)" x2="-5" y2="0" style="fill: none; stroke: #888; stroke-width: 1; opacity: 1;"></line><line transform="translate(0,219)" x2="-5" y2="0" style="fill: none; stroke: #888; stroke-width: 1; opacity: 1;"></line><line transform="translate(0,193)" x2="-5" y2="0" style="fill: none; stroke: #888; stroke-width: 1; opacity: 1;"></line><line transform="translate(0,167)" x2="-5" y2="0" style="fill: none; stroke: #888; stroke-width: 1; opacity: 1;"></line><line transform="translate(0,141)" x2="-5" y2="0" style="fill: none; stroke: #888; stroke-width: 1; opacity: 1;"></line><line transform="translate(0,116)" x2="-5" y2="0" style="fill: none; stroke: #888; stroke-width: 1; opacity: 1;"></line><line transform="translate(0,90)" x2="-5" y2="0" style="fill: none; stroke: #888; stroke-width: 1; opacity: 1;"></line><line transform="translate(0,64)" x2="-5" y2="0" style="fill: none; stroke: #888; stroke-width: 1; opacity: 1;"></line><line transform="translate(0,39)" x2="-5" y2="0" style="fill: none; stroke: #888; stroke-width: 1; opacity: 1;"></line><line transform="translate(0,13)" x2="-5" y2="0" style="fill: none; stroke: #888; stroke-width: 1; opacity: 1;"></line></g><g class="mark-text role-axis-label" style="pointer-events: none;"><text text-anchor="end" transform="translate(-7,455)" style="font-family: sans-serif; font-size: 16px; fill: #000; opacity: 1;">0.0</text><text text-anchor="end" transform="translate(-7,429.2857142857143)" style="font-family: sans-serif; font-size: 16px; fill: #000; opacity: 1;">0.2</text><text text-anchor="end" transform="translate(-7,403.57142857142856)" style="font-family: sans-serif; font-size: 16px; fill: #000; opacity: 1;">0.4</text><text text-anchor="end" transform="translate(-7,377.8571428571429)" style="font-family: sans-serif; font-size: 16px; fill: #000; opacity: 1;">0.6</text><text text-anchor="end" transform="translate(-7,352.1428571428571)" style="font-family: sans-serif; font-size: 16px; fill: #000; opacity: 1;">0.8</text><text text-anchor="end" transform="translate(-7,326.42857142857144)" style="font-family: sans-serif; font-size: 16px; fill: #000; opacity: 1;">1.0</text><text text-anchor="end" transform="translate(-7,300.7142857142857)" style="font-family: sans-serif; font-size: 16px; fill: #000; opacity: 1;">1.2</text><text text-anchor="end" transform="translate(-7,275)" style="font-family: sans-serif; font-size: 16px; fill: #000; opacity: 1;">1.4</text><text text-anchor="end" transform="translate(-7,249.28571428571428)" style="font-family: sans-serif; font-size: 16px; fill: #000; opacity: 1;">1.6</text><text text-anchor="end" transform="translate(-7,223.57142857142856)" style="font-family: sans-serif; font-size: 16px; fill: #000; opacity: 1;">1.8</text><text text-anchor="end" transform="translate(-7,197.8571428571429)" style="font-family: sans-serif; font-size: 16px; fill: #000; opacity: 1;">2.0</text><text text-anchor="end" transform="translate(-7,172.1428571428571)" style="font-family: sans-serif; font-size: 16px; fill: #000; opacity: 1;">2.2</text><text text-anchor="end" transform="translate(-7,146.42857142857144)" style="font-family: sans-serif; font-size: 16px; fill: #000; opacity: 1;">2.4</text><text text-anchor="end" transform="translate(-7,120.71428571428572)" style="font-family: sans-serif; font-size: 16px; fill: #000; opacity: 1;">2.6</text><text text-anchor="end" transform="translate(-7,95.00000000000006)" style="font-family: sans-serif; font-size: 16px; fill: #000; opacity: 1;">2.8</text><text text-anchor="end" transform="translate(-7,69.28571428571433)" style="font-family: sans-serif; font-size: 16px; fill: #000; opacity: 1;">3.0</text><text text-anchor="end" transform="translate(-7,43.571428571428555)" style="font-family: sans-serif; font-size: 16px; fill: #000; opacity: 1;">3.2</text><text text-anchor="end" transform="translate(-7,17.85714285714289)" style="font-family: sans-serif; font-size: 16px; fill: #000; opacity: 1;">3.4</text></g><g class="mark-rule role-axis-domain" style="pointer-events: none;"><line transform="translate(0,450)" x2="0" y2="-450" style="fill: none; stroke: #888; stroke-width: 1; opacity: 1;"></line></g><g class="mark-text role-axis-title" style="pointer-events: none;"><text text-anchor="middle" transform="translate(-34.2421875,225) rotate(-90) translate(0,-3)" style="font-family: sans-serif; font-size: 16px; font-weight: bold; fill: #000; opacity: 1;">Disrupt_Pct</text></g></g></g></g></g></g></g></g></svg>