<svg class="marks" width="1158" height="579" viewBox="0 0 1158 579" version="1.1" xmlns="http://www.w3.org/2000/svg" xmlns:xlink="http://www.w3.org/1999/xlink"><g transform="translate(53,41)"><g class="mark-group role-frame root"><g transform="translate(0,0)"><path class="background" d="M0.5,0.5h1100v450h-1100Z" style="fill: none; stroke: #ddd;"></path><g><g class="mark-group role-axis"><g transform="translate(0.5,0.5)"><path class="background" d="M0,0h0v0h0Z" style="pointer-events: none; fill: none;"></path><g><g class="mark-rule role-axis-grid" style="pointer-events: none;"><line transform="translate(0,450)" x2="1100" y2="0" style="fill: none; stroke: #ddd; stroke-width: 1; opacity: 1;"></line><line transform="translate(0,400)" x2="1100" y2="0" style="fill: none; stroke: #ddd; stroke-width: 1; opacity: 1;"></line><line transform="translate(0,350)" x2="1100" y2="0" style="fill: none; stroke: #ddd; stroke-width: 1; opacity: 1;"></line><line transform="translate(0,300)" x2="1100" y2="0" style="fill: none; stroke: #ddd; stroke-width: 1; opacity: 1;"></line><line transform="translate(0,250)" x2="1100" y2="0" style="fill: none; stroke: #ddd; stroke-width: 1; opacity: 1;"></line><line transform="translate(0,200)" x2="1100" y2="0" style="fill: none; stroke: #ddd; stroke-width: 1; opacity: 1;"></line><line transform="translate(0,150)" x2="1100" y2="0" style="fill: none; stroke: #ddd; stroke-width: 1; opacity: 1;"></line><line transform="translate(0,100)" x2="1100" y2="0" style="fill: none; stroke: #ddd; stroke-width: 1; opacity: 1;"></line><line transform="translate(0,50)" x2="1100" y2="0" style="fill: none; stroke: #ddd; stroke-width: 1; opacity: 1;"></line><line transform="translate(0,0)" x2="1100" y2="0" style="fill: none; stroke: #ddd; stroke-width: 1; opacity: 1;"></line></g></g></g></g><g class="mark-rect role-mark marks"><path d="M716.375,348.47715736040607h24.75v101.52284263959393h-24.75Z" style="fill: #b279a2;"></path><path d="M468.875,223.964861810336h24.75v226.035138189664h-24.75Z" style="fill: #ff9da6;"></path><path d="M688.875,355.4844890983479h24.75v94.51551090165208h-24.75Z" style="fill: #eeca3b;"></path><path d="M1018.875,376.1963952765693h24.75v73.80360472343068h-24.75Z" style="fill: #ff9da6;"></path><path d="M28.875,272.9480471433857h24.75v177.05195285661432h-24.75Z" style="fill: #f58518;"></path><path d="M331.375,272.5823535642411h24.75v177.4176464357589h-24.75Z" style="fill: #e45756;"></path><path d="M56.375,229.48188175460902h24.75v220.51811824539098h-24.75Z" style="fill: #e45756;"></path><path d="M358.875,191.0047162312543h24.75v258.9952837687457h-24.75Z" style="fill: #72b7b2;"></path><path d="M853.875,72.79910903691137h24.75v377.2008909630886h-24.75Z" style="fill: #f58518;"></path><path d="M798.875,81.02088661551574h24.75v368.97911338448426h-24.75Z" style="fill: #bab0ac;"></path><path d="M1.375,225.47702803539067h24.75v224.52297196460933h-24.75Z" style="fill: #4c78a8;"></path><path d="M248.875,189.24989329918907h24.75v260.75010670081093h-24.75Z" style="fill: #bab0ac;"></path><path d="M578.875,190.93959731543623h24.75v259.06040268456377h-24.75Z" style="fill: #f58518;"></path><path d="M1046.375,213.99870905276745h24.75v236.00129094723255h-24.75Z" style="fill: #9d755d;"></path><path d="M138.875,118.37587782855866h24.75v331.62412217144134h-24.75Z" style="fill: #eeca3b;"></path><path d="M771.375,2.2013280508899697h24.75v447.79867194911003h-24.75Z" style="fill: #9d755d;"></path><path d="M551.375,113.74595378948538h24.75v336.2540462105146h-24.75Z" style="fill: #4c78a8;"></path><path d="M936.375,36.569082071624166h24.75v413.43091792837583h-24.75Z" style="fill: #54a24b;"></path><path d="M413.875,242.22632639355274h24.75v207.77367360644726h-24.75Z" style="fill: #eeca3b;"></path><path d="M826.375,237.26977551363152h24.75v212.73022448636848h-24.75Z" style="fill: #4c78a8;"></path><path d="M193.875,242.83314669652856h24.75v207.16685330347144h-24.75Z" style="fill: #ff9da6;"></path><path d="M441.375,308.4482565310012h24.75v141.55174346899878h-24.75Z" style="fill: #b279a2;"></path><path d="M881.375,305.1499128086854h24.75v144.85008719131463h-24.75Z" style="fill: #e45756;"></path><path d="M83.875,300.8746773731001h24.75v149.1253226268999h-24.75Z" style="fill: #72b7b2;"></path><path d="M1073.875,264.03297145154806h24.75v185.96702854845194h-24.75Z" style="fill: #bab0ac;"></path><path d="M386.375,309.1954022988506h24.75v140.80459770114942h-24.75Z" style="fill: #54a24b;"></path><path d="M743.875,328.31922124301593h24.75v121.68077875698407h-24.75Z" style="fill: #ff9da6;"></path><path d="M606.375,298.7729001036986h24.75v151.2270998963014h-24.75Z" style="fill: #e45756;"></path><path d="M963.875,279.2211909840318h24.75v170.7788090159682h-24.75Z" style="fill: #eeca3b;"></path><path d="M221.375,329.5093795093795h24.75v120.49062049062047h-24.75Z" style="fill: #9d755d;"></path><path d="M908.875,300.6234845860755h24.75v149.3765154139245h-24.75Z" style="fill: #72b7b2;"></path><path d="M276.375,63.17098565478943h24.75v386.82901434521057h-24.75Z" style="fill: #4c78a8;"></path><path d="M303.875,55.81995246652366h24.75v394.18004753347634h-24.75Z" style="fill: #f58518;"></path><path d="M496.375,256.27466914325515h24.75v193.72533085674485h-24.75Z" style="fill: #9d755d;"></path><path d="M111.375,316.28250591016547h24.75v133.71749408983453h-24.75Z" style="fill: #54a24b;"></path><path d="M523.875,302.8628889151781h24.75v147.13711108482192h-24.75Z" style="fill: #bab0ac;"></path><path d="M991.375,308.36744379189656h24.75v141.63255620810344h-24.75Z" style="fill: #b279a2;"></path><path d="M661.375,232.94481446241673h24.75v217.05518553758327h-24.75Z" style="fill: #54a24b;"></path><path d="M166.375,315.64009661835746h24.75v134.35990338164254h-24.75Z" style="fill: #b279a2;"></path><path d="M633.875,270.2308296573811h24.75v179.7691703426189h-24.75Z" style="fill: #72b7b2;"></path></g><g class="mark-text role-title" style="pointer-events: none;"><text text-anchor="middle" transform="translate(526,-16)" style="font-family: sans-serif; font-size: 24px; font-weight: bold; fill: #000; opacity: 1;">Disruption Cost per Customer by Route: Routes #81 - 120</text></g><g class="mark-group role-axis"><g transform="translate(0.5,450.5)"><path class="background" d="M0,0h0v0h0Z" style="pointer-events: none; fill: none;"></path><g><g class="mark-rule role-axis-tick" style="pointer-events: none;"><line transform="translate(13,0)" x2="0" y2="5" style="fill: none; stroke: #888; stroke-width: 1; opacity: 1;"></line><line transform="translate(40,0)" x2="0" y2="5" style="fill: none; stroke: #888; stroke-width: 1; opacity: 1;"></line><line transform="translate(68,0)" x2="0" y2="5" style="fill: none; stroke: #888; stroke-width: 1; opacity: 1;"></line><line transform="translate(95,0)" x2="0" y2="5" style="fill: none; stroke: #888; stroke-width: 1; opacity: 1;"></line><line transform="translate(123,0)" x2="0" y2="5" style="fill: none; stroke: #888; stroke-width: 1; opacity: 1;"></line><line transform="translate(150,0)" x2="0" y2="5" style="fill: none; stroke: #888; stroke-width: 1; opacity: 1;"></line><line transform="translate(178,0)" x2="0" y2="5" style="fill: none; stroke: #888; stroke-width: 1; opacity: 1;"></line><line transform="translate(205,0)" x2="0" y2="5" style="fill: none; stroke: #888; stroke-width: 1; opacity: 1;"></line><line transform="translate(233,0)" x2="0" y2="5" style="fill: none; stroke: #888; stroke-width: 1; opacity: 1;"></line><line transform="translate(260,0)" x2="0" y2="5" style="fill: none; stroke: #888; stroke-width: 1; opacity: 1;"></line><line transform="translate(288,0)" x2="0" y2="5" style="fill: none; stroke: #888; stroke-width: 1; opacity: 1;"></line><line transform="translate(315,0)" x2="0" y2="5" style="fill: none; stroke: #888; stroke-width: 1; opacity: 1;"></line><line transform="translate(343,0)" x2="0" y2="5" style="fill: none; stroke: #888; stroke-width: 1; opacity: 1;"></line><line transform="translate(370,0)" x2="0" y2="5" style="fill: none; stroke: #888; stroke-width: 1; opacity: 1;"></line><line transform="translate(398,0)" x2="0" y2="5" style="fill: none; stroke: #888; stroke-width: 1; opacity: 1;"></line><line transform="translate(425,0)" x2="0" y2="5" style="fill: none; stroke: #888; stroke-width: 1; opacity: 1;"></line><line transform="translate(453,0)" x2="0" y2="5" style="fill: none; stroke: #888; stroke-width: 1; opacity: 1;"></line><line transform="translate(480,0)" x2="0" y2="5" style="fill: none; stroke: #888; stroke-width: 1; opacity: 1;"></line><line transform="translate(508,0)" x2="0" y2="5" style="fill: none; stroke: #888; stroke-width: 1; opacity: 1;"></line><line transform="translate(535,0)" x2="0" y2="5" style="fill: none; stroke: #888; stroke-width: 1; opacity: 1;"></line><line transform="translate(563,0)" x2="0" y2="5" style="fill: none; stroke: #888; stroke-width: 1; opacity: 1;"></line><line transform="translate(590,0)" x2="0" y2="5" style="fill: none; stroke: #888; stroke-width: 1; opacity: 1;"></line><line transform="translate(618,0)" x2="0" y2="5" style="fill: none; stroke: #888; stroke-width: 1; opacity: 1;"></line><line transform="translate(645,0)" x2="0" y2="5" style="fill: none; stroke: #888; stroke-width: 1; opacity: 1;"></line><line transform="translate(673,0)" x2="0" y2="5" style="fill: none; stroke: #888; stroke-width: 1; opacity: 1;"></line><line transform="translate(700,0)" x2="0" y2="5" style="fill: none; stroke: #888; stroke-width: 1; opacity: 1;"></line><line transform="translate(728,0)" x2="0" y2="5" style="fill: none; stroke: #888; stroke-width: 1; opacity: 1;"></line><line transform="translate(755,0)" x2="0" y2="5" style="fill: none; stroke: #888; stroke-width: 1; opacity: 1;"></line><line transform="translate(783,0)" x2="0" y2="5" style="fill: none; stroke: #888; stroke-width: 1; opacity: 1;"></line><line transform="translate(810,0)" x2="0" y2="5" style="fill: none; stroke: #888; stroke-width: 1; opacity: 1;"></line><line transform="translate(838,0)" x2="0" y2="5" style="fill: none; stroke: #888; stroke-width: 1; opacity: 1;"></line><line transform="translate(865,0)" x2="0" y2="5" style="fill: none; stroke: #888; stroke-width: 1; opacity: 1;"></line><line transform="translate(893,0)" x2="0" y2="5" style="fill: none; stroke: #888; stroke-width: 1; opacity: 1;"></line><line transform="translate(920,0)" x2="0" y2="5" style="fill: none; stroke: #888; stroke-width: 1; opacity: 1;"></line><line transform="translate(948,0)" x2="0" y2="5" style="fill: none; stroke: #888; stroke-width: 1; opacity: 1;"></line><line transform="translate(975,0)" x2="0" y2="5" style="fill: none; stroke: #888; stroke-width: 1; opacity: 1;"></line><line transform="translate(1003,0)" x2="0" y2="5" style="fill: none; stroke: #888; stroke-width: 1; opacity: 1;"></line><line transform="translate(1030,0)" x2="0" y2="5" style="fill: none; stroke: #888; stroke-width: 1; opacity: 1;"></line><line transform="translate(1058,0)" x2="0" y2="5" style="fill: none; stroke: #888; stroke-width: 1; opacity: 1;"></line><line transform="translate(1085,0)" x2="0" y2="5" style="fill: none; stroke: #888; stroke-width: 1; opacity: 1;"></line></g><g class="mark-text role-axis-label" style="pointer-events: none;"><text text-anchor="end" transform="translate(12.75,7) rotate(270) translate(0,4)" style="font-family: sans-serif; font-size: 12px; fill: #000; opacity: 1;">ATL-BOS</text><text text-anchor="end" transform="translate(40.25,7) rotate(270) translate(0,4)" style="font-family: sans-serif; font-size: 12px; fill: #000; opacity: 1;">ATL-CLT</text><text text-anchor="end" transform="translate(67.75,7) rotate(270) translate(0,4)" style="font-family: sans-serif; font-size: 12px; fill: #000; opacity: 1;">ATL-DCA</text><text text-anchor="end" transform="translate(95.25,7) rotate(270) translate(0,4)" style="font-family: sans-serif; font-size: 12px; fill: #000; opacity: 1;">ATL-DEN</text><text text-anchor="end" transform="translate(122.75,7) rotate(270) translate(0,4)" style="font-family: sans-serif; font-size: 12px; fill: #000; opacity: 1;">ATL-DTW</text><text text-anchor="end" transform="translate(150.25,7) rotate(270) translate(0,4)" style="font-family: sans-serif; font-size: 12px; fill: #000; opacity: 1;">ATL-EWR</text><text text-anchor="end" transform="translate(177.75,7) rotate(270) translate(0,4)" style="font-family: sans-serif; font-size: 12px; fill: #000; opacity: 1;">ATL-JAX</text><text text-anchor="end" transform="translate(205.25,7) rotate(270) translate(0,4)" style="font-family: sans-serif; font-size: 12px; fill: #000; opacity: 1;">ATL-MIA</text><text text-anchor="end" transform="translate(232.75,7) rotate(270) translate(0,4)" style="font-family: sans-serif; font-size: 12px; fill: #000; opacity: 1;">ATL-MSY</text><text text-anchor="end" transform="translate(260.25,7) rotate(270) translate(0,4)" style="font-family: sans-serif; font-size: 12px; fill: #000; opacity: 1;">BOS-ATL</text><text text-anchor="end" transform="translate(287.75,7) rotate(270) translate(0,4)" style="font-family: sans-serif; font-size: 12px; fill: #000; opacity: 1;">BOS-BWI</text><text text-anchor="end" transform="translate(315.25,7) rotate(270) translate(0,4)" style="font-family: sans-serif; font-size: 12px; fill: #000; opacity: 1;">BWI-BOS</text><text text-anchor="end" transform="translate(342.75,7) rotate(270) translate(0,4)" style="font-family: sans-serif; font-size: 12px; fill: #000; opacity: 1;">CLT-ATL</text><text text-anchor="end" transform="translate(370.25,7) rotate(270) translate(0,4)" style="font-family: sans-serif; font-size: 12px; fill: #000; opacity: 1;">DCA-ATL</text><text text-anchor="end" transform="translate(397.75,7) rotate(270) translate(0,4)" style="font-family: sans-serif; font-size: 12px; fill: #000; opacity: 1;">DEN-ATL</text><text text-anchor="end" transform="translate(425.25,7) rotate(270) translate(0,4)" style="font-family: sans-serif; font-size: 12px; fill: #000; opacity: 1;">DEN-DFW</text><text text-anchor="end" transform="translate(452.75,7) rotate(270) translate(0,4)" style="font-family: sans-serif; font-size: 12px; fill: #000; opacity: 1;">DEN-MSP</text><text text-anchor="end" transform="translate(480.25,7) rotate(270) translate(0,4)" style="font-family: sans-serif; font-size: 12px; fill: #000; opacity: 1;">DEN-ORD</text><text text-anchor="end" transform="translate(507.75,7) rotate(270) translate(0,4)" style="font-family: sans-serif; font-size: 12px; fill: #000; opacity: 1;">DFW-DEN</text><text text-anchor="end" transform="translate(535.25,7) rotate(270) translate(0,4)" style="font-family: sans-serif; font-size: 12px; fill: #000; opacity: 1;">DTW-ATL</text><text text-anchor="end" transform="translate(562.75,7) rotate(270) translate(0,4)" style="font-family: sans-serif; font-size: 12px; fill: #000; opacity: 1;">EWR-ATL</text><text text-anchor="end" transform="translate(590.25,7) rotate(270) translate(0,4)" style="font-family: sans-serif; font-size: 12px; fill: #000; opacity: 1;">EWR-SFO</text><text text-anchor="end" transform="translate(617.75,7) rotate(270) translate(0,4)" style="font-family: sans-serif; font-size: 12px; fill: #000; opacity: 1;">HNL-LAX</text><text text-anchor="end" transform="translate(645.25,7) rotate(270) translate(0,4)" style="font-family: sans-serif; font-size: 12px; fill: #000; opacity: 1;">JAX-ATL</text><text text-anchor="end" transform="translate(672.75,7) rotate(270) translate(0,4)" style="font-family: sans-serif; font-size: 12px; fill: #000; opacity: 1;">LAS-PHX</text><text text-anchor="end" transform="translate(700.25,7) rotate(270) translate(0,4)" style="font-family: sans-serif; font-size: 12px; fill: #000; opacity: 1;">LAS-SEA</text><text text-anchor="end" transform="translate(727.75,7) rotate(270) translate(0,4)" style="font-family: sans-serif; font-size: 12px; fill: #000; opacity: 1;">LAX-ATL</text><text text-anchor="end" transform="translate(755.25,7) rotate(270) translate(0,4)" style="font-family: sans-serif; font-size: 12px; fill: #000; opacity: 1;">LAX-HNL</text><text text-anchor="end" transform="translate(782.75,7) rotate(270) translate(0,4)" style="font-family: sans-serif; font-size: 12px; fill: #000; opacity: 1;">LAX-OAK</text><text text-anchor="end" transform="translate(810.25,7) rotate(270) translate(0,4)" style="font-family: sans-serif; font-size: 12px; fill: #000; opacity: 1;">LGA-MIA</text><text text-anchor="end" transform="translate(837.75,7) rotate(270) translate(0,4)" style="font-family: sans-serif; font-size: 12px; fill: #000; opacity: 1;">MIA-ATL</text><text text-anchor="end" transform="translate(865.25,7) rotate(270) translate(0,4)" style="font-family: sans-serif; font-size: 12px; fill: #000; opacity: 1;">MIA-LGA</text><text text-anchor="end" transform="translate(892.75,7) rotate(270) translate(0,4)" style="font-family: sans-serif; font-size: 12px; fill: #000; opacity: 1;">MSP-DEN</text><text text-anchor="end" transform="translate(920.25,7) rotate(270) translate(0,4)" style="font-family: sans-serif; font-size: 12px; fill: #000; opacity: 1;">MSY-ATL</text><text text-anchor="end" transform="translate(947.75,7) rotate(270) translate(0,4)" style="font-family: sans-serif; font-size: 12px; fill: #000; opacity: 1;">OAK-LAX</text><text text-anchor="end" transform="translate(975.25,7) rotate(270) translate(0,4)" style="font-family: sans-serif; font-size: 12px; fill: #000; opacity: 1;">PDX-SFO</text><text text-anchor="end" transform="translate(1002.75,7) rotate(270) translate(0,4)" style="font-family: sans-serif; font-size: 12px; fill: #000; opacity: 1;">PHX-LAS</text><text text-anchor="end" transform="translate(1030.25,7) rotate(270) translate(0,4)" style="font-family: sans-serif; font-size: 12px; fill: #000; opacity: 1;">SEA-LAS</text><text text-anchor="end" transform="translate(1057.75,7) rotate(270) translate(0,4)" style="font-family: sans-serif; font-size: 12px; fill: #000; opacity: 1;">SFO-EWR</text><text text-anchor="end" transform="translate(1085.25,7) rotate(270) translate(0,4)" style="font-family: sans-serif; font-size: 12px; fill: #000; opacity: 1;">SFO-PDX</text></g><g class="mark-rule role-axis-domain" style="pointer-events: none;"><line transform="translate(0,0)" x2="1100" y2="0" style="fill: none; stroke: #888; stroke-width: 1; opacity: 1;"></line></g><g class="mark-text role-axis-title" style="pointer-events: none;"><text text-anchor="middle" transform="translate(550,77.66015625)" style="font-family: sans-serif; font-size: 12px; font-weight: bold; fill: #000; opacity: 1;">Route</text></g></g></g></g><g class="mark-group role-axis"><g transform="translate(0.5,0.5)"><path class="background" d="M0,0h0v0h0Z" style="pointer-events: none; fill: none;"></path><g><g class="mark-rule role-axis-tick" style="pointer-events: none;"><line transform="translate(0,450)" x2="-5" y2="0" style="fill: none; stroke: #888; stroke-width: 1; opacity: 1;"></line><line transform="translate(0,400)" x2="-5" y2="0" style="fill: none; stroke: #888; stroke-width: 1; opacity: 1;"></line><line transform="translate(0,350)" x2="-5" y2="0" style="fill: none; stroke: #888; stroke-width: 1; opacity: 1;"></line><line transform="translate(0,300)" x2="-5" y2="0" style="fill: none; stroke: #888; stroke-width: 1; opacity: 1;"></line><line transform="translate(0,250)" x2="-5" y2="0" style="fill: none; stroke: #888; stroke-width: 1; opacity: 1;"></line><line transform="translate(0,200)" x2="-5" y2="0" style="fill: none; stroke: #888; stroke-width: 1; opacity: 1;"></line><line transform="translate(0,150)" x2="-5" y2="0" style="fill: none; stroke: #888; stroke-width: 1; opacity: 1;"></line><line transform="translate(0,100)" x2="-5" y2="0" style="fill: none; stroke: #888; stroke-width: 1; opacity: 1;"></line><line transform="translate(0,50)" x2="-5" y2="0" style="fill: none; stroke: #888; stroke-width: 1; opacity: 1;"></line><line transform="translate(0,0)" x2="-5" y2="0" style="fill: none; stroke: #888; stroke-width: 1; opacity: 1;"></line></g><g class="mark-text role-axis-label" style="pointer-events: none;"><text text-anchor="end" transform="translate(-7,454)" style="font-family: sans-serif; font-size: 12px; fill: #000; opacity: 1;">0</text><text text-anchor="end" transform="translate(-7,404)" style="font-family: sans-serif; font-size: 12px; fill: #000; opacity: 1;">2</text><text text-anchor="end" transform="translate(-7,354)" style="font-family: sans-serif; font-size: 12px; fill: #000; opacity: 1;">4</text><text text-anchor="end" transform="translate(-7,304)" style="font-family: sans-serif; font-size: 12px; fill: #000; opacity: 1;">6</text><text text-anchor="end" transform="translate(-7,254)" style="font-family: sans-serif; font-size: 12px; fill: #000; opacity: 1;">8</text><text text-anchor="end" transform="translate(-7,204)" style="font-family: sans-serif; font-size: 12px; fill: #000; opacity: 1;">10</text><text text-anchor="end" transform="translate(-7,154)" style="font-family: sans-serif; font-size: 12px; fill: #000; opacity: 1;">12</text><text text-anchor="end" transform="translate(-7,104)" style="font-family: sans-serif; font-size: 12px; fill: #000; opacity: 1;">14</text><text text-anchor="end" transform="translate(-7,54)" style="font-family: sans-serif; font-size: 12px; fill: #000; opacity: 1;">16</text><text text-anchor="end" transform="translate(-7,4)" style="font-family: sans-serif; font-size: 12px; fill: #000; opacity: 1;">18</text></g><g class="mark-rule role-axis-domain" style="pointer-events: none;"><line transform="translate(0,450)" x2="0" y2="-450" style="fill: none; stroke: #888; stroke-width: 1; opacity: 1;"></line></g><g class="mark-text role-axis-title" style="pointer-events: none;"><text text-anchor="middle" transform="translate(-34,225) rotate(-90) translate(0,-3)" style="font-family: sans-serif; font-size: 12px; font-weight: bold; fill: #000; opacity: 1;">Avg_Total_Cost</text></g></g></g></g></g></g></g></g></svg>