<svg class="marks" width="1158" height="582" viewBox="0 0 1158 582" version="1.1" xmlns="http://www.w3.org/2000/svg" xmlns:xlink="http://www.w3.org/1999/xlink"><g transform="translate(53,41)"><g class="mark-group role-frame root"><g transform="translate(0,0)"><path class="background" d="M0.5,0.5h1100v450h-1100Z" style="fill: none; stroke: #ddd;"></path><g><g class="mark-group role-axis"><g transform="translate(0.5,0.5)"><path class="background" d="M0,0h0v0h0Z" style="pointer-events: none; fill: none;"></path><g><g class="mark-rule role-axis-grid" style="pointer-events: none;"><line transform="translate(0,450)" x2="1100" y2="0" style="fill: none; stroke: #ddd; stroke-width: 1; opacity: 1;"></line><line transform="translate(0,418)" x2="1100" y2="0" style="fill: none; stroke: #ddd; stroke-width: 1; opacity: 1;"></line><line transform="translate(0,386)" x2="1100" y2="0" style="fill: none; stroke: #ddd; stroke-width: 1; opacity: 1;"></line><line transform="translate(0,354)" x2="1100" y2="0" style="fill: none; stroke: #ddd; stroke-width: 1; opacity: 1;"></line><line transform="translate(0,321)" x2="1100" y2="0" style="fill: none; stroke: #ddd; stroke-width: 1; opacity: 1;"></line><line transform="translate(0,289)" x2="1100" y2="0" style="fill: none; stroke: #ddd; stroke-width: 1; opacity: 1;"></line><line transform="translate(0,257)" x2="1100" y2="0" style="fill: none; stroke: #ddd; stroke-width: 1; opacity: 1;"></line><line transform="translate(0,225)" x2="1100" y2="0" style="fill: none; stroke: #ddd; stroke-width: 1; opacity: 1;"></line><line transform="translate(0,193)" x2="1100" y2="0" style="fill: none; stroke: #ddd; stroke-width: 1; opacity: 1;"></line><line transform="translate(0,161)" x2="1100" y2="0" style="fill: none; stroke: #ddd; stroke-width: 1; opacity: 1;"></line><line transform="translate(0,129)" x2="1100" y2="0" style="fill: none; stroke: #ddd; stroke-width: 1; opacity: 1;"></line><line transform="translate(0,96)" x2="1100" y2="0" style="fill: none; stroke: #ddd; stroke-width: 1; opacity: 1;"></line><line transform="translate(0,64)" x2="1100" y2="0" style="fill: none; stroke: #ddd; stroke-width: 1; opacity: 1;"></line><line transform="translate(0,32)" x2="1100" y2="0" style="fill: none; stroke: #ddd; stroke-width: 1; opacity: 1;"></line><line transform="translate(0,0)" x2="1100" y2="0" style="fill: none; stroke: #ddd; stroke-width: 1; opacity: 1;"></line></g></g></g></g><g class="mark-rect role-mark marks"><path d="M111.375,7.909055577147285h24.75v442.0909444228527h-24.75Z" style="fill: #54a24b;"></path><path d="M688.875,26.501763516180006h24.75v423.49823648382h-24.75Z" style="fill: #eeca3b;"></path><path d="M496.375,81.18029409675353h24.75v368.8197059032465h-24.75Z" style="fill: #9d755d;"></path><path d="M193.875,85.15848914365364h24.75v364.84151085634636h-24.75Z" style="fill: #ff9da6;"></path><path d="M716.375,108.54359432295331h24.75v341.4564056770467h-24.75Z" style="fill: #b279a2;"></path><path d="M166.375,120.50883898709986h24.75v329.49116101290014h-24.75Z" style="fill: #b279a2;"></path><path d="M83.875,122.18476959240695h24.75v327.81523040759305h-24.75Z" style="fill: #72b7b2;"></path><path d="M826.375,131.93197548753733h24.75v318.06802451246267h-24.75Z" style="fill: #4c78a8;"></path><path d="M771.375,146.4285714285714h24.75v303.5714285714286h-24.75Z" style="fill: #9d755d;"></path><path d="M881.375,146.51570152172144h24.75v303.48429847827856h-24.75Z" style="fill: #e45756;"></path><path d="M358.875,158.79635828089437h24.75v291.20364171910563h-24.75Z" style="fill: #72b7b2;"></path><path d="M56.375,159.23936584943255h24.75v290.76063415056745h-24.75Z" style="fill: #e45756;"></path><path d="M991.375,161.3315180838792h24.75v288.6684819161208h-24.75Z" style="fill: #b279a2;"></path><path d="M221.375,161.4725538356086h24.75v288.5274461643914h-24.75Z" style="fill: #9d755d;"></path><path d="M606.375,162.12942517557212h24.75v287.8705748244279h-24.75Z" style="fill: #e45756;"></path><path d="M551.375,162.61750750804111h24.75v287.3824924919589h-24.75Z" style="fill: #4c78a8;"></path><path d="M468.875,162.93937737977717h24.75v287.06062262022283h-24.75Z" style="fill: #ff9da6;"></path><path d="M331.375,165.492277992278h24.75v284.507722007722h-24.75Z" style="fill: #e45756;"></path><path d="M413.875,173.91260973663208h24.75v276.0873902633679h-24.75Z" style="fill: #eeca3b;"></path><path d="M853.875,175.58094771470564h24.75v274.41905228529436h-24.75Z" style="fill: #f58518;"></path><path d="M441.375,176.7344770001518h24.75v273.2655229998482h-24.75Z" style="fill: #b279a2;"></path><path d="M1018.875,178.7422830238536h24.75v271.2577169761464h-24.75Z" style="fill: #ff9da6;"></path><path d="M633.875,182.46572414243553h24.75v267.53427585756447h-24.75Z" style="fill: #72b7b2;"></path><path d="M936.375,184.22298133175838h24.75v265.7770186682416h-24.75Z" style="fill: #54a24b;"></path><path d="M28.875,190.4315089980891h24.75v259.5684910019109h-24.75Z" style="fill: #f58518;"></path><path d="M963.875,196.3895737935893h24.75v253.6104262064107h-24.75Z" style="fill: #eeca3b;"></path><path d="M138.875,196.59854087133664h24.75v253.40145912866336h-24.75Z" style="fill: #eeca3b;"></path><path d="M1046.375,197.24028971828386h24.75v252.75971028171614h-24.75Z" style="fill: #9d755d;"></path><path d="M386.375,197.59186273617595h24.75v252.40813726382405h-24.75Z" style="fill: #54a24b;"></path><path d="M1073.875,199.20123470161374h24.75v250.79876529838626h-24.75Z" style="fill: #bab0ac;"></path><path d="M1.375,201.32420506379322h24.75v248.67579493620678h-24.75Z" style="fill: #4c78a8;"></path><path d="M578.875,202.23850223850224h24.75v247.76149776149776h-24.75Z" style="fill: #f58518;"></path><path d="M908.875,207.51371295230015h24.75v242.48628704769985h-24.75Z" style="fill: #72b7b2;"></path><path d="M661.375,207.52982352361235h24.75v242.47017647638765h-24.75Z" style="fill: #54a24b;"></path><path d="M798.875,212.7991413956887h24.75v237.2008586043113h-24.75Z" style="fill: #bab0ac;"></path><path d="M523.875,213.57127591365673h24.75v236.42872408634327h-24.75Z" style="fill: #bab0ac;"></path><path d="M743.875,225.31630229288865h24.75v224.68369770711135h-24.75Z" style="fill: #ff9da6;"></path><path d="M248.875,228.4942627375531h24.75v221.5057372624469h-24.75Z" style="fill: #bab0ac;"></path><path d="M276.375,230.82350803520956h24.75v219.17649196479044h-24.75Z" style="fill: #4c78a8;"></path><path d="M303.875,233.43619408760253h24.75v216.56380591239747h-24.75Z" style="fill: #f58518;"></path></g><g class="mark-text role-title" style="pointer-events: none;"><text text-anchor="middle" transform="translate(526,-16)" style="font-family: sans-serif; font-size: 24px; font-weight: bold; fill: #000; opacity: 1;">Cost per Customer of 40 Most Disruption Prone Routes</text></g><g class="mark-group role-axis"><g transform="translate(0.5,450.5)"><path class="background" d="M0,0h0v0h0Z" style="pointer-events: none; fill: none;"></path><g><g class="mark-rule role-axis-tick" style="pointer-events: none;"><line transform="translate(13,0)" x2="0" y2="5" style="fill: none; stroke: #888; stroke-width: 1; opacity: 1;"></line><line transform="translate(40,0)" x2="0" y2="5" style="fill: none; stroke: #888; stroke-width: 1; opacity: 1;"></line><line transform="translate(68,0)" x2="0" y2="5" style="fill: none; stroke: #888; stroke-width: 1; opacity: 1;"></line><line transform="translate(95,0)" x2="0" y2="5" style="fill: none; stroke: #888; stroke-width: 1; opacity: 1;"></line><line transform="translate(123,0)" x2="0" y2="5" style="fill: none; stroke: #888; stroke-width: 1; opacity: 1;"></line><line transform="translate(150,0)" x2="0" y2="5" style="fill: none; stroke: #888; stroke-width: 1; opacity: 1;"></line><line transform="translate(178,0)" x2="0" y2="5" style="fill: none; stroke: #888; stroke-width: 1; opacity: 1;"></line><line transform="translate(205,0)" x2="0" y2="5" style="fill: none; stroke: #888; stroke-width: 1; opacity: 1;"></line><line transform="translate(233,0)" x2="0" y2="5" style="fill: none; stroke: #888; stroke-width: 1; opacity: 1;"></line><line transform="translate(260,0)" x2="0" y2="5" style="fill: none; stroke: #888; stroke-width: 1; opacity: 1;"></line><line transform="translate(288,0)" x2="0" y2="5" style="fill: none; stroke: #888; stroke-width: 1; opacity: 1;"></line><line transform="translate(315,0)" x2="0" y2="5" style="fill: none; stroke: #888; stroke-width: 1; opacity: 1;"></line><line transform="translate(343,0)" x2="0" y2="5" style="fill: none; stroke: #888; stroke-width: 1; opacity: 1;"></line><line transform="translate(370,0)" x2="0" y2="5" style="fill: none; stroke: #888; stroke-width: 1; opacity: 1;"></line><line transform="translate(398,0)" x2="0" y2="5" style="fill: none; stroke: #888; stroke-width: 1; opacity: 1;"></line><line transform="translate(425,0)" x2="0" y2="5" style="fill: none; stroke: #888; stroke-width: 1; opacity: 1;"></line><line transform="translate(453,0)" x2="0" y2="5" style="fill: none; stroke: #888; stroke-width: 1; opacity: 1;"></line><line transform="translate(480,0)" x2="0" y2="5" style="fill: none; stroke: #888; stroke-width: 1; opacity: 1;"></line><line transform="translate(508,0)" x2="0" y2="5" style="fill: none; stroke: #888; stroke-width: 1; opacity: 1;"></line><line transform="translate(535,0)" x2="0" y2="5" style="fill: none; stroke: #888; stroke-width: 1; opacity: 1;"></line><line transform="translate(563,0)" x2="0" y2="5" style="fill: none; stroke: #888; stroke-width: 1; opacity: 1;"></line><line transform="translate(590,0)" x2="0" y2="5" style="fill: none; stroke: #888; stroke-width: 1; opacity: 1;"></line><line transform="translate(618,0)" x2="0" y2="5" style="fill: none; stroke: #888; stroke-width: 1; opacity: 1;"></line><line transform="translate(645,0)" x2="0" y2="5" style="fill: none; stroke: #888; stroke-width: 1; opacity: 1;"></line><line transform="translate(673,0)" x2="0" y2="5" style="fill: none; stroke: #888; stroke-width: 1; opacity: 1;"></line><line transform="translate(700,0)" x2="0" y2="5" style="fill: none; stroke: #888; stroke-width: 1; opacity: 1;"></line><line transform="translate(728,0)" x2="0" y2="5" style="fill: none; stroke: #888; stroke-width: 1; opacity: 1;"></line><line transform="translate(755,0)" x2="0" y2="5" style="fill: none; stroke: #888; stroke-width: 1; opacity: 1;"></line><line transform="translate(783,0)" x2="0" y2="5" style="fill: none; stroke: #888; stroke-width: 1; opacity: 1;"></line><line transform="translate(810,0)" x2="0" y2="5" style="fill: none; stroke: #888; stroke-width: 1; opacity: 1;"></line><line transform="translate(838,0)" x2="0" y2="5" style="fill: none; stroke: #888; stroke-width: 1; opacity: 1;"></line><line transform="translate(865,0)" x2="0" y2="5" style="fill: none; stroke: #888; stroke-width: 1; opacity: 1;"></line><line transform="translate(893,0)" x2="0" y2="5" style="fill: none; stroke: #888; stroke-width: 1; opacity: 1;"></line><line transform="translate(920,0)" x2="0" y2="5" style="fill: none; stroke: #888; stroke-width: 1; opacity: 1;"></line><line transform="translate(948,0)" x2="0" y2="5" style="fill: none; stroke: #888; stroke-width: 1; opacity: 1;"></line><line transform="translate(975,0)" x2="0" y2="5" style="fill: none; stroke: #888; stroke-width: 1; opacity: 1;"></line><line transform="translate(1003,0)" x2="0" y2="5" style="fill: none; stroke: #888; stroke-width: 1; opacity: 1;"></line><line transform="translate(1030,0)" x2="0" y2="5" style="fill: none; stroke: #888; stroke-width: 1; opacity: 1;"></line><line transform="translate(1058,0)" x2="0" y2="5" style="fill: none; stroke: #888; stroke-width: 1; opacity: 1;"></line><line transform="translate(1085,0)" x2="0" y2="5" style="fill: none; stroke: #888; stroke-width: 1; opacity: 1;"></line></g><g class="mark-text role-axis-label" style="pointer-events: none;"><text text-anchor="end" transform="translate(12.75,7) rotate(270) translate(0,4)" style="font-family: sans-serif; font-size: 12px; fill: #000; opacity: 1;">BOS-BWI</text><text text-anchor="end" transform="translate(40.25,7) rotate(270) translate(0,4)" style="font-family: sans-serif; font-size: 12px; fill: #000; opacity: 1;">BOS-DCA</text><text text-anchor="end" transform="translate(67.75,7) rotate(270) translate(0,4)" style="font-family: sans-serif; font-size: 12px; fill: #000; opacity: 1;">BOS-EWR</text><text text-anchor="end" transform="translate(95.25,7) rotate(270) translate(0,4)" style="font-family: sans-serif; font-size: 12px; fill: #000; opacity: 1;">BOS-JFK</text><text text-anchor="end" transform="translate(122.75,7) rotate(270) translate(0,4)" style="font-family: sans-serif; font-size: 12px; fill: #000; opacity: 1;">BOS-LGA</text><text text-anchor="end" transform="translate(150.25,7) rotate(270) translate(0,4)" style="font-family: sans-serif; font-size: 12px; fill: #000; opacity: 1;">BWI-BOS</text><text text-anchor="end" transform="translate(177.75,7) rotate(270) translate(0,4)" style="font-family: sans-serif; font-size: 12px; fill: #000; opacity: 1;">CLT-LGA</text><text text-anchor="end" transform="translate(205.25,7) rotate(270) translate(0,4)" style="font-family: sans-serif; font-size: 12px; fill: #000; opacity: 1;">DAL-HOU</text><text text-anchor="end" transform="translate(232.75,7) rotate(270) translate(0,4)" style="font-family: sans-serif; font-size: 12px; fill: #000; opacity: 1;">DCA-BOS</text><text text-anchor="end" transform="translate(260.25,7) rotate(270) translate(0,4)" style="font-family: sans-serif; font-size: 12px; fill: #000; opacity: 1;">DCA-ORD</text><text text-anchor="end" transform="translate(287.75,7) rotate(270) translate(0,4)" style="font-family: sans-serif; font-size: 12px; fill: #000; opacity: 1;">DFW-IAH</text><text text-anchor="end" transform="translate(315.25,7) rotate(270) translate(0,4)" style="font-family: sans-serif; font-size: 12px; fill: #000; opacity: 1;">DFW-LGA</text><text text-anchor="end" transform="translate(342.75,7) rotate(270) translate(0,4)" style="font-family: sans-serif; font-size: 12px; fill: #000; opacity: 1;">EWR-BOS</text><text text-anchor="end" transform="translate(370.25,7) rotate(270) translate(0,4)" style="font-family: sans-serif; font-size: 12px; fill: #000; opacity: 1;">EWR-FLL</text><text text-anchor="end" transform="translate(397.75,7) rotate(270) translate(0,4)" style="font-family: sans-serif; font-size: 12px; fill: #000; opacity: 1;">EWR-MCO</text><text text-anchor="end" transform="translate(425.25,7) rotate(270) translate(0,4)" style="font-family: sans-serif; font-size: 12px; fill: #000; opacity: 1;">EWR-ORD</text><text text-anchor="end" transform="translate(452.75,7) rotate(270) translate(0,4)" style="font-family: sans-serif; font-size: 12px; fill: #000; opacity: 1;">FLL-EWR</text><text text-anchor="end" transform="translate(480.25,7) rotate(270) translate(0,4)" style="font-family: sans-serif; font-size: 12px; fill: #000; opacity: 1;">FLL-LGA</text><text text-anchor="end" transform="translate(507.75,7) rotate(270) translate(0,4)" style="font-family: sans-serif; font-size: 12px; fill: #000; opacity: 1;">HOU-DAL</text><text text-anchor="end" transform="translate(535.25,7) rotate(270) translate(0,4)" style="font-family: sans-serif; font-size: 12px; fill: #000; opacity: 1;">IAH-DFW</text><text text-anchor="end" transform="translate(562.75,7) rotate(270) translate(0,4)" style="font-family: sans-serif; font-size: 12px; fill: #000; opacity: 1;">JFK-BOS</text><text text-anchor="end" transform="translate(590.25,7) rotate(270) translate(0,4)" style="font-family: sans-serif; font-size: 12px; fill: #000; opacity: 1;">JFK-MCO</text><text text-anchor="end" transform="translate(617.75,7) rotate(270) translate(0,4)" style="font-family: sans-serif; font-size: 12px; fill: #000; opacity: 1;">LAX-OAK</text><text text-anchor="end" transform="translate(645.25,7) rotate(270) translate(0,4)" style="font-family: sans-serif; font-size: 12px; fill: #000; opacity: 1;">LAX-SFO</text><text text-anchor="end" transform="translate(672.75,7) rotate(270) translate(0,4)" style="font-family: sans-serif; font-size: 12px; fill: #000; opacity: 1;">LGA-ATL</text><text text-anchor="end" transform="translate(700.25,7) rotate(270) translate(0,4)" style="font-family: sans-serif; font-size: 12px; fill: #000; opacity: 1;">LGA-BOS</text><text text-anchor="end" transform="translate(727.75,7) rotate(270) translate(0,4)" style="font-family: sans-serif; font-size: 12px; fill: #000; opacity: 1;">LGA-CLT</text><text text-anchor="end" transform="translate(755.25,7) rotate(270) translate(0,4)" style="font-family: sans-serif; font-size: 12px; fill: #000; opacity: 1;">LGA-DFW</text><text text-anchor="end" transform="translate(782.75,7) rotate(270) translate(0,4)" style="font-family: sans-serif; font-size: 12px; fill: #000; opacity: 1;">LGA-FLL</text><text text-anchor="end" transform="translate(810.25,7) rotate(270) translate(0,4)" style="font-family: sans-serif; font-size: 12px; fill: #000; opacity: 1;">LGA-MIA</text><text text-anchor="end" transform="translate(837.75,7) rotate(270) translate(0,4)" style="font-family: sans-serif; font-size: 12px; fill: #000; opacity: 1;">LGA-ORD</text><text text-anchor="end" transform="translate(865.25,7) rotate(270) translate(0,4)" style="font-family: sans-serif; font-size: 12px; fill: #000; opacity: 1;">MCO-EWR</text><text text-anchor="end" transform="translate(892.75,7) rotate(270) translate(0,4)" style="font-family: sans-serif; font-size: 12px; fill: #000; opacity: 1;">MCO-JFK</text><text text-anchor="end" transform="translate(920.25,7) rotate(270) translate(0,4)" style="font-family: sans-serif; font-size: 12px; fill: #000; opacity: 1;">MIA-LGA</text><text text-anchor="end" transform="translate(947.75,7) rotate(270) translate(0,4)" style="font-family: sans-serif; font-size: 12px; fill: #000; opacity: 1;">OAK-LAX</text><text text-anchor="end" transform="translate(975.25,7) rotate(270) translate(0,4)" style="font-family: sans-serif; font-size: 12px; fill: #000; opacity: 1;">ORD-EWR</text><text text-anchor="end" transform="translate(1002.75,7) rotate(270) translate(0,4)" style="font-family: sans-serif; font-size: 12px; fill: #000; opacity: 1;">ORD-LGA</text><text text-anchor="end" transform="translate(1030.25,7) rotate(270) translate(0,4)" style="font-family: sans-serif; font-size: 12px; fill: #000; opacity: 1;">SAN-SFO</text><text text-anchor="end" transform="translate(1057.75,7) rotate(270) translate(0,4)" style="font-family: sans-serif; font-size: 12px; fill: #000; opacity: 1;">SFO-LAX</text><text text-anchor="end" transform="translate(1085.25,7) rotate(270) translate(0,4)" style="font-family: sans-serif; font-size: 12px; fill: #000; opacity: 1;">SFO-SAN</text></g><g class="mark-rule role-axis-domain" style="pointer-events: none;"><line transform="translate(0,0)" x2="1100" y2="0" style="fill: none; stroke: #888; stroke-width: 1; opacity: 1;"></line></g><g class="mark-text role-axis-title" style="pointer-events: none;"><text text-anchor="middle" transform="translate(550,80.98828125)" style="font-family: sans-serif; font-size: 12px; font-weight: bold; fill: #000; opacity: 1;">Route</text></g></g></g></g><g class="mark-group role-axis"><g transform="translate(0.5,0.5)"><path class="background" d="M0,0h0v0h0Z" style="pointer-events: none; fill: none;"></path><g><g class="mark-rule role-axis-tick" style="pointer-events: none;"><line transform="translate(0,450)" x2="-5" y2="0" style="fill: none; stroke: #888; stroke-width: 1; opacity: 1;"></line><line transform="translate(0,418)" x2="-5" y2="0" style="fill: none; stroke: #888; stroke-width: 1; opacity: 1;"></line><line transform="translate(0,386)" x2="-5" y2="0" style="fill: none; stroke: #888; stroke-width: 1; opacity: 1;"></line><line transform="translate(0,354)" x2="-5" y2="0" style="fill: none; stroke: #888; stroke-width: 1; opacity: 1;"></line><line transform="translate(0,321)" x2="-5" y2="0" style="fill: none; stroke: #888; stroke-width: 1; opacity: 1;"></line><line transform="translate(0,289)" x2="-5" y2="0" style="fill: none; stroke: #888; stroke-width: 1; opacity: 1;"></line><line transform="translate(0,257)" x2="-5" y2="0" style="fill: none; stroke: #888; stroke-width: 1; opacity: 1;"></line><line transform="translate(0,225)" x2="-5" y2="0" style="fill: none; stroke: #888; stroke-width: 1; opacity: 1;"></line><line transform="translate(0,193)" x2="-5" y2="0" style="fill: none; stroke: #888; stroke-width: 1; opacity: 1;"></line><line transform="translate(0,161)" x2="-5" y2="0" style="fill: none; stroke: #888; stroke-width: 1; opacity: 1;"></line><line transform="translate(0,129)" x2="-5" y2="0" style="fill: none; stroke: #888; stroke-width: 1; opacity: 1;"></line><line transform="translate(0,96)" x2="-5" y2="0" style="fill: none; stroke: #888; stroke-width: 1; opacity: 1;"></line><line transform="translate(0,64)" x2="-5" y2="0" style="fill: none; stroke: #888; stroke-width: 1; opacity: 1;"></line><line transform="translate(0,32)" x2="-5" y2="0" style="fill: none; stroke: #888; stroke-width: 1; opacity: 1;"></line><line transform="translate(0,0)" x2="-5" y2="0" style="fill: none; stroke: #888; stroke-width: 1; opacity: 1;"></line></g><g class="mark-text role-axis-label" style="pointer-events: none;"><text text-anchor="end" transform="translate(-7,454)" style="font-family: sans-serif; font-size: 12px; fill: #000; opacity: 1;">0</text><text text-anchor="end" transform="translate(-7,421.8571428571429)" style="font-family: sans-serif; font-size: 12px; fill: #000; opacity: 1;">2</text><text text-anchor="end" transform="translate(-7,389.7142857142857)" style="font-family: sans-serif; font-size: 12px; fill: #000; opacity: 1;">4</text><text text-anchor="end" transform="translate(-7,357.57142857142856)" style="font-family: sans-serif; font-size: 12px; fill: #000; opacity: 1;">6</text><text text-anchor="end" transform="translate(-7,325.42857142857144)" style="font-family: sans-serif; font-size: 12px; fill: #000; opacity: 1;">8</text><text text-anchor="end" transform="translate(-7,293.2857142857143)" style="font-family: sans-serif; font-size: 12px; fill: #000; opacity: 1;">10</text><text text-anchor="end" transform="translate(-7,261.14285714285717)" style="font-family: sans-serif; font-size: 12px; fill: #000; opacity: 1;">12</text><text text-anchor="end" transform="translate(-7,229)" style="font-family: sans-serif; font-size: 12px; fill: #000; opacity: 1;">14</text><text text-anchor="end" transform="translate(-7,196.8571428571429)" style="font-family: sans-serif; font-size: 12px; fill: #000; opacity: 1;">16</text><text text-anchor="end" transform="translate(-7,164.71428571428567)" style="font-family: sans-serif; font-size: 12px; fill: #000; opacity: 1;">18</text><text text-anchor="end" transform="translate(-7,132.57142857142856)" style="font-family: sans-serif; font-size: 12px; fill: #000; opacity: 1;">20</text><text text-anchor="end" transform="translate(-7,100.42857142857144)" style="font-family: sans-serif; font-size: 12px; fill: #000; opacity: 1;">22</text><text text-anchor="end" transform="translate(-7,68.28571428571433)" style="font-family: sans-serif; font-size: 12px; fill: #000; opacity: 1;">24</text><text text-anchor="end" transform="translate(-7,36.14285714285711)" style="font-family: sans-serif; font-size: 12px; fill: #000; opacity: 1;">26</text><text text-anchor="end" transform="translate(-7,4)" style="font-family: sans-serif; font-size: 12px; fill: #000; opacity: 1;">28</text></g><g class="mark-rule role-axis-domain" style="pointer-events: none;"><line transform="translate(0,450)" x2="0" y2="-450" style="fill: none; stroke: #888; stroke-width: 1; opacity: 1;"></line></g><g class="mark-text role-axis-title" style="pointer-events: none;"><text text-anchor="middle" transform="translate(-34,225) rotate(-90) translate(0,-3)" style="font-family: sans-serif; font-size: 12px; font-weight: bold; fill: #000; opacity: 1;">Avg_Total_Cost</text></g></g></g></g></g></g></g></g></svg>