<svg class="marks" width="1158" height="580" viewBox="0 0 1158 580" version="1.1" xmlns="http://www.w3.org/2000/svg" xmlns:xlink="http://www.w3.org/1999/xlink"><g transform="translate(53,41)"><g class="mark-group role-frame root"><g transform="translate(0,0)"><path class="background" d="M0.5,0.5h1100v450h-1100Z" style="fill: none; stroke: #ddd;"></path><g><g class="mark-group role-axis"><g transform="translate(0.5,0.5)"><path class="background" d="M0,0h0v0h0Z" style="pointer-events: none; fill: none;"></path><g><g class="mark-rule role-axis-grid" style="pointer-events: none;"><line transform="translate(0,450)" x2="1100" y2="0" style="fill: none; stroke: #ddd; stroke-width: 1; opacity: 1;"></line><line transform="translate(0,418)" x2="1100" y2="0" style="fill: none; stroke: #ddd; stroke-width: 1; opacity: 1;"></line><line transform="translate(0,386)" x2="1100" y2="0" style="fill: none; stroke: #ddd; stroke-width: 1; opacity: 1;"></line><line transform="translate(0,354)" x2="1100" y2="0" style="fill: none; stroke: #ddd; stroke-width: 1; opacity: 1;"></line><line transform="translate(0,321)" x2="1100" y2="0" style="fill: none; stroke: #ddd; stroke-width: 1; opacity: 1;"></line><line transform="translate(0,289)" x2="1100" y2="0" style="fill: none; stroke: #ddd; stroke-width: 1; opacity: 1;"></line><line transform="translate(0,257)" x2="1100" y2="0" style="fill: none; stroke: #ddd; stroke-width: 1; opacity: 1;"></line><line transform="translate(0,225)" x2="1100" y2="0" style="fill: none; stroke: #ddd; stroke-width: 1; opacity: 1;"></line><line transform="translate(0,193)" x2="1100" y2="0" style="fill: none; stroke: #ddd; stroke-width: 1; opacity: 1;"></line><line transform="translate(0,161)" x2="1100" y2="0" style="fill: none; stroke: #ddd; stroke-width: 1; opacity: 1;"></line><line transform="translate(0,129)" x2="1100" y2="0" style="fill: none; stroke: #ddd; stroke-width: 1; opacity: 1;"></line><line transform="translate(0,96)" x2="1100" y2="0" style="fill: none; stroke: #ddd; stroke-width: 1; opacity: 1;"></line><line transform="translate(0,64)" x2="1100" y2="0" style="fill: none; stroke: #ddd; stroke-width: 1; opacity: 1;"></line><line transform="translate(0,32)" x2="1100" y2="0" style="fill: none; stroke: #ddd; stroke-width: 1; opacity: 1;"></line><line transform="translate(0,0)" x2="1100" y2="0" style="fill: none; stroke: #ddd; stroke-width: 1; opacity: 1;"></line></g></g></g></g><g class="mark-rect role-mark marks"><path d="M991.375,197.24028971828386h24.75v252.75971028171614h-24.75Z" style="fill: #b279a2;"></path><path d="M551.375,182.46572414243553h24.75v267.53427585756447h-24.75Z" style="fill: #4c78a8;"></path><path d="M303.875,332.502113271344h24.75v117.497886728656h-24.75Z" style="fill: #f58518;"></path><path d="M441.375,325.09580919317386h24.75v124.90419080682614h-24.75Z" style="fill: #b279a2;"></path><path d="M633.875,131.93197548753733h24.75v318.06802451246267h-24.75Z" style="fill: #72b7b2;"></path><path d="M771.375,161.3315180838792h24.75v288.6684819161208h-24.75Z" style="fill: #9d755d;"></path><path d="M468.875,381.6357640617222h24.75v68.36423593827777h-24.75Z" style="fill: #ff9da6;"></path><path d="M358.875,371.49565318524117h24.75v78.50434681475883h-24.75Z" style="fill: #72b7b2;"></path><path d="M881.375,394.0764945830957h24.75v55.92350541690428h-24.75Z" style="fill: #e45756;"></path><path d="M523.875,393.4954552547398h24.75v56.504544745260205h-24.75Z" style="fill: #bab0ac;"></path><path d="M716.375,421.6484656816722h24.75v28.351534318327822h-24.75Z" style="fill: #b279a2;"></path><path d="M276.375,430.4714622969032h24.75v19.528537703096788h-24.75Z" style="fill: #4c78a8;"></path><path d="M661.375,330.31790068732465h24.75v119.68209931267535h-24.75Z" style="fill: #54a24b;"></path><path d="M56.375,335.2753391859537h24.75v114.72466081404627h-24.75Z" style="fill: #e45756;"></path><path d="M496.375,353.03353914707463h24.75v96.96646085292537h-24.75Z" style="fill: #9d755d;"></path><path d="M908.875,343.84829994126477h24.75v106.15170005873523h-24.75Z" style="fill: #72b7b2;"></path><path d="M1073.875,308.5444846637455h24.75v141.4555153362545h-24.75Z" style="fill: #bab0ac;"></path><path d="M28.875,258.44616235334047h24.75v191.55383764665953h-24.75Z" style="fill: #f58518;"></path><path d="M578.875,207.52982352361235h24.75v242.47017647638765h-24.75Z" style="fill: #f58518;"></path><path d="M743.875,336.2797538712396h24.75v113.72024612876038h-24.75Z" style="fill: #ff9da6;"></path><path d="M963.875,326.0037789324516h24.75v123.99622106754839h-24.75Z" style="fill: #eeca3b;"></path><path d="M386.375,303.93642907837375h24.75v146.06357092162625h-24.75Z" style="fill: #54a24b;"></path><path d="M83.875,190.4315089980891h24.75v259.5684910019109h-24.75Z" style="fill: #72b7b2;"></path><path d="M138.875,161.4725538356086h24.75v288.5274461643914h-24.75Z" style="fill: #eeca3b;"></path><path d="M1.375,334.38528050307144h24.75v115.61471949692856h-24.75Z" style="fill: #4c78a8;"></path><path d="M248.875,323.8532110091743h24.75v126.14678899082571h-24.75Z" style="fill: #bab0ac;"></path><path d="M166.375,362.9573089078151h24.75v87.0426910921849h-24.75Z" style="fill: #b279a2;"></path><path d="M331.375,300.1781665046971h24.75v149.82183349530288h-24.75Z" style="fill: #e45756;"></path><path d="M936.375,300.8467763706499h24.75v149.15322362935012h-24.75Z" style="fill: #54a24b;"></path><path d="M853.875,178.7422830238536h24.75v271.2577169761464h-24.75Z" style="fill: #f58518;"></path><path d="M1046.375,199.20123470161374h24.75v250.79876529838626h-24.75Z" style="fill: #9d755d;"></path><path d="M413.875,364.02004076086956h24.75v85.97995923913044h-24.75Z" style="fill: #eeca3b;"></path><path d="M193.875,365.05297771282426h24.75v84.94702228717574h-24.75Z" style="fill: #ff9da6;"></path><path d="M826.375,362.6292097873559h24.75v87.37079021264412h-24.75Z" style="fill: #4c78a8;"></path><path d="M221.375,295.34032833778224h24.75v154.65967166221776h-24.75Z" style="fill: #9d755d;"></path><path d="M606.375,26.501763516180006h24.75v423.49823648382h-24.75Z" style="fill: #e45756;"></path><path d="M111.375,7.909055577147285h24.75v442.0909444228527h-24.75Z" style="fill: #54a24b;"></path><path d="M798.875,292.78026431279295h24.75v157.21973568720705h-24.75Z" style="fill: #bab0ac;"></path><path d="M688.875,275.74261486239226h24.75v174.25738513760774h-24.75Z" style="fill: #eeca3b;"></path><path d="M1018.875,332.2097591527643h24.75v117.79024084723568h-24.75Z" style="fill: #ff9da6;"></path></g><g class="mark-text role-title" style="pointer-events: none;"><text text-anchor="middle" transform="translate(526,-16)" style="font-family: sans-serif; font-size: 24px; font-weight: bold; fill: #000; opacity: 1;">Disruption Cost per Customer by Route: Top 40 Routes</text></g><g class="mark-group role-axis"><g transform="translate(0.5,450.5)"><path class="background" d="M0,0h0v0h0Z" style="pointer-events: none; fill: none;"></path><g><g class="mark-rule role-axis-tick" style="pointer-events: none;"><line transform="translate(13,0)" x2="0" y2="5" style="fill: none; stroke: #888; stroke-width: 1; opacity: 1;"></line><line transform="translate(40,0)" x2="0" y2="5" style="fill: none; stroke: #888; stroke-width: 1; opacity: 1;"></line><line transform="translate(68,0)" x2="0" y2="5" style="fill: none; stroke: #888; stroke-width: 1; opacity: 1;"></line><line transform="translate(95,0)" x2="0" y2="5" style="fill: none; stroke: #888; stroke-width: 1; opacity: 1;"></line><line transform="translate(123,0)" x2="0" y2="5" style="fill: none; stroke: #888; stroke-width: 1; opacity: 1;"></line><line transform="translate(150,0)" x2="0" y2="5" style="fill: none; stroke: #888; stroke-width: 1; opacity: 1;"></line><line transform="translate(178,0)" x2="0" y2="5" style="fill: none; stroke: #888; stroke-width: 1; opacity: 1;"></line><line transform="translate(205,0)" x2="0" y2="5" style="fill: none; stroke: #888; stroke-width: 1; opacity: 1;"></line><line transform="translate(233,0)" x2="0" y2="5" style="fill: none; stroke: #888; stroke-width: 1; opacity: 1;"></line><line transform="translate(260,0)" x2="0" y2="5" style="fill: none; stroke: #888; stroke-width: 1; opacity: 1;"></line><line transform="translate(288,0)" x2="0" y2="5" style="fill: none; stroke: #888; stroke-width: 1; opacity: 1;"></line><line transform="translate(315,0)" x2="0" y2="5" style="fill: none; stroke: #888; stroke-width: 1; opacity: 1;"></line><line transform="translate(343,0)" x2="0" y2="5" style="fill: none; stroke: #888; stroke-width: 1; opacity: 1;"></line><line transform="translate(370,0)" x2="0" y2="5" style="fill: none; stroke: #888; stroke-width: 1; opacity: 1;"></line><line transform="translate(398,0)" x2="0" y2="5" style="fill: none; stroke: #888; stroke-width: 1; opacity: 1;"></line><line transform="translate(425,0)" x2="0" y2="5" style="fill: none; stroke: #888; stroke-width: 1; opacity: 1;"></line><line transform="translate(453,0)" x2="0" y2="5" style="fill: none; stroke: #888; stroke-width: 1; opacity: 1;"></line><line transform="translate(480,0)" x2="0" y2="5" style="fill: none; stroke: #888; stroke-width: 1; opacity: 1;"></line><line transform="translate(508,0)" x2="0" y2="5" style="fill: none; stroke: #888; stroke-width: 1; opacity: 1;"></line><line transform="translate(535,0)" x2="0" y2="5" style="fill: none; stroke: #888; stroke-width: 1; opacity: 1;"></line><line transform="translate(563,0)" x2="0" y2="5" style="fill: none; stroke: #888; stroke-width: 1; opacity: 1;"></line><line transform="translate(590,0)" x2="0" y2="5" style="fill: none; stroke: #888; stroke-width: 1; opacity: 1;"></line><line transform="translate(618,0)" x2="0" y2="5" style="fill: none; stroke: #888; stroke-width: 1; opacity: 1;"></line><line transform="translate(645,0)" x2="0" y2="5" style="fill: none; stroke: #888; stroke-width: 1; opacity: 1;"></line><line transform="translate(673,0)" x2="0" y2="5" style="fill: none; stroke: #888; stroke-width: 1; opacity: 1;"></line><line transform="translate(700,0)" x2="0" y2="5" style="fill: none; stroke: #888; stroke-width: 1; opacity: 1;"></line><line transform="translate(728,0)" x2="0" y2="5" style="fill: none; stroke: #888; stroke-width: 1; opacity: 1;"></line><line transform="translate(755,0)" x2="0" y2="5" style="fill: none; stroke: #888; stroke-width: 1; opacity: 1;"></line><line transform="translate(783,0)" x2="0" y2="5" style="fill: none; stroke: #888; stroke-width: 1; opacity: 1;"></line><line transform="translate(810,0)" x2="0" y2="5" style="fill: none; stroke: #888; stroke-width: 1; opacity: 1;"></line><line transform="translate(838,0)" x2="0" y2="5" style="fill: none; stroke: #888; stroke-width: 1; opacity: 1;"></line><line transform="translate(865,0)" x2="0" y2="5" style="fill: none; stroke: #888; stroke-width: 1; opacity: 1;"></line><line transform="translate(893,0)" x2="0" y2="5" style="fill: none; stroke: #888; stroke-width: 1; opacity: 1;"></line><line transform="translate(920,0)" x2="0" y2="5" style="fill: none; stroke: #888; stroke-width: 1; opacity: 1;"></line><line transform="translate(948,0)" x2="0" y2="5" style="fill: none; stroke: #888; stroke-width: 1; opacity: 1;"></line><line transform="translate(975,0)" x2="0" y2="5" style="fill: none; stroke: #888; stroke-width: 1; opacity: 1;"></line><line transform="translate(1003,0)" x2="0" y2="5" style="fill: none; stroke: #888; stroke-width: 1; opacity: 1;"></line><line transform="translate(1030,0)" x2="0" y2="5" style="fill: none; stroke: #888; stroke-width: 1; opacity: 1;"></line><line transform="translate(1058,0)" x2="0" y2="5" style="fill: none; stroke: #888; stroke-width: 1; opacity: 1;"></line><line transform="translate(1085,0)" x2="0" y2="5" style="fill: none; stroke: #888; stroke-width: 1; opacity: 1;"></line></g><g class="mark-text role-axis-label" style="pointer-events: none;"><text text-anchor="end" transform="translate(12.75,7) rotate(270) translate(0,4)" style="font-family: sans-serif; font-size: 12px; fill: #000; opacity: 1;">ATL-FLL</text><text text-anchor="end" transform="translate(40.25,7) rotate(270) translate(0,4)" style="font-family: sans-serif; font-size: 12px; fill: #000; opacity: 1;">ATL-LGA</text><text text-anchor="end" transform="translate(67.75,7) rotate(270) translate(0,4)" style="font-family: sans-serif; font-size: 12px; fill: #000; opacity: 1;">ATL-MCO</text><text text-anchor="end" transform="translate(95.25,7) rotate(270) translate(0,4)" style="font-family: sans-serif; font-size: 12px; fill: #000; opacity: 1;">BOS-DCA</text><text text-anchor="end" transform="translate(122.75,7) rotate(270) translate(0,4)" style="font-family: sans-serif; font-size: 12px; fill: #000; opacity: 1;">BOS-LGA</text><text text-anchor="end" transform="translate(150.25,7) rotate(270) translate(0,4)" style="font-family: sans-serif; font-size: 12px; fill: #000; opacity: 1;">DCA-BOS</text><text text-anchor="end" transform="translate(177.75,7) rotate(270) translate(0,4)" style="font-family: sans-serif; font-size: 12px; fill: #000; opacity: 1;">DEN-LAX</text><text text-anchor="end" transform="translate(205.25,7) rotate(270) translate(0,4)" style="font-family: sans-serif; font-size: 12px; fill: #000; opacity: 1;">DEN-PHX</text><text text-anchor="end" transform="translate(232.75,7) rotate(270) translate(0,4)" style="font-family: sans-serif; font-size: 12px; fill: #000; opacity: 1;">DFW-ORD</text><text text-anchor="end" transform="translate(260.25,7) rotate(270) translate(0,4)" style="font-family: sans-serif; font-size: 12px; fill: #000; opacity: 1;">FLL-ATL</text><text text-anchor="end" transform="translate(287.75,7) rotate(270) translate(0,4)" style="font-family: sans-serif; font-size: 12px; fill: #000; opacity: 1;">HNL-OGG</text><text text-anchor="end" transform="translate(315.25,7) rotate(270) translate(0,4)" style="font-family: sans-serif; font-size: 12px; fill: #000; opacity: 1;">JFK-LAX</text><text text-anchor="end" transform="translate(342.75,7) rotate(270) translate(0,4)" style="font-family: sans-serif; font-size: 12px; fill: #000; opacity: 1;">JFK-SFO</text><text text-anchor="end" transform="translate(370.25,7) rotate(270) translate(0,4)" style="font-family: sans-serif; font-size: 12px; fill: #000; opacity: 1;">LAS-LAX</text><text text-anchor="end" transform="translate(397.75,7) rotate(270) translate(0,4)" style="font-family: sans-serif; font-size: 12px; fill: #000; opacity: 1;">LAS-SFO</text><text text-anchor="end" transform="translate(425.25,7) rotate(270) translate(0,4)" style="font-family: sans-serif; font-size: 12px; fill: #000; opacity: 1;">LAX-DEN</text><text text-anchor="end" transform="translate(452.75,7) rotate(270) translate(0,4)" style="font-family: sans-serif; font-size: 12px; fill: #000; opacity: 1;">LAX-JFK</text><text text-anchor="end" transform="translate(480.25,7) rotate(270) translate(0,4)" style="font-family: sans-serif; font-size: 12px; fill: #000; opacity: 1;">LAX-LAS</text><text text-anchor="end" transform="translate(507.75,7) rotate(270) translate(0,4)" style="font-family: sans-serif; font-size: 12px; fill: #000; opacity: 1;">LAX-ORD</text><text text-anchor="end" transform="translate(535.25,7) rotate(270) translate(0,4)" style="font-family: sans-serif; font-size: 12px; fill: #000; opacity: 1;">LAX-SEA</text><text text-anchor="end" transform="translate(562.75,7) rotate(270) translate(0,4)" style="font-family: sans-serif; font-size: 12px; fill: #000; opacity: 1;">LAX-SFO</text><text text-anchor="end" transform="translate(590.25,7) rotate(270) translate(0,4)" style="font-family: sans-serif; font-size: 12px; fill: #000; opacity: 1;">LGA-ATL</text><text text-anchor="end" transform="translate(617.75,7) rotate(270) translate(0,4)" style="font-family: sans-serif; font-size: 12px; fill: #000; opacity: 1;">LGA-BOS</text><text text-anchor="end" transform="translate(645.25,7) rotate(270) translate(0,4)" style="font-family: sans-serif; font-size: 12px; fill: #000; opacity: 1;">LGA-ORD</text><text text-anchor="end" transform="translate(672.75,7) rotate(270) translate(0,4)" style="font-family: sans-serif; font-size: 12px; fill: #000; opacity: 1;">MCO-ATL</text><text text-anchor="end" transform="translate(700.25,7) rotate(270) translate(0,4)" style="font-family: sans-serif; font-size: 12px; fill: #000; opacity: 1;">MSP-ORD</text><text text-anchor="end" transform="translate(727.75,7) rotate(270) translate(0,4)" style="font-family: sans-serif; font-size: 12px; fill: #000; opacity: 1;">OGG-HNL</text><text text-anchor="end" transform="translate(755.25,7) rotate(270) translate(0,4)" style="font-family: sans-serif; font-size: 12px; fill: #000; opacity: 1;">ORD-LAX</text><text text-anchor="end" transform="translate(782.75,7) rotate(270) translate(0,4)" style="font-family: sans-serif; font-size: 12px; fill: #000; opacity: 1;">ORD-LGA</text><text text-anchor="end" transform="translate(810.25,7) rotate(270) translate(0,4)" style="font-family: sans-serif; font-size: 12px; fill: #000; opacity: 1;">ORD-MSP</text><text text-anchor="end" transform="translate(837.75,7) rotate(270) translate(0,4)" style="font-family: sans-serif; font-size: 12px; fill: #000; opacity: 1;">PHX-DEN</text><text text-anchor="end" transform="translate(865.25,7) rotate(270) translate(0,4)" style="font-family: sans-serif; font-size: 12px; fill: #000; opacity: 1;">SAN-SFO</text><text text-anchor="end" transform="translate(892.75,7) rotate(270) translate(0,4)" style="font-family: sans-serif; font-size: 12px; fill: #000; opacity: 1;">SEA-LAX</text><text text-anchor="end" transform="translate(920.25,7) rotate(270) translate(0,4)" style="font-family: sans-serif; font-size: 12px; fill: #000; opacity: 1;">SEA-SFO</text><text text-anchor="end" transform="translate(947.75,7) rotate(270) translate(0,4)" style="font-family: sans-serif; font-size: 12px; fill: #000; opacity: 1;">SFO-JFK</text><text text-anchor="end" transform="translate(975.25,7) rotate(270) translate(0,4)" style="font-family: sans-serif; font-size: 12px; fill: #000; opacity: 1;">SFO-LAS</text><text text-anchor="end" transform="translate(1002.75,7) rotate(270) translate(0,4)" style="font-family: sans-serif; font-size: 12px; fill: #000; opacity: 1;">SFO-LAX</text><text text-anchor="end" transform="translate(1030.25,7) rotate(270) translate(0,4)" style="font-family: sans-serif; font-size: 12px; fill: #000; opacity: 1;">SFO-ORD</text><text text-anchor="end" transform="translate(1057.75,7) rotate(270) translate(0,4)" style="font-family: sans-serif; font-size: 12px; fill: #000; opacity: 1;">SFO-SAN</text><text text-anchor="end" transform="translate(1085.25,7) rotate(270) translate(0,4)" style="font-family: sans-serif; font-size: 12px; fill: #000; opacity: 1;">SFO-SEA</text></g><g class="mark-rule role-axis-domain" style="pointer-events: none;"><line transform="translate(0,0)" x2="1100" y2="0" style="fill: none; stroke: #888; stroke-width: 1; opacity: 1;"></line></g><g class="mark-text role-axis-title" style="pointer-events: none;"><text text-anchor="middle" transform="translate(550,78.767578125)" style="font-family: sans-serif; font-size: 12px; font-weight: bold; fill: #000; opacity: 1;">Route</text></g></g></g></g><g class="mark-group role-axis"><g transform="translate(0.5,0.5)"><path class="background" d="M0,0h0v0h0Z" style="pointer-events: none; fill: none;"></path><g><g class="mark-rule role-axis-tick" style="pointer-events: none;"><line transform="translate(0,450)" x2="-5" y2="0" style="fill: none; stroke: #888; stroke-width: 1; opacity: 1;"></line><line transform="translate(0,418)" x2="-5" y2="0" style="fill: none; stroke: #888; stroke-width: 1; opacity: 1;"></line><line transform="translate(0,386)" x2="-5" y2="0" style="fill: none; stroke: #888; stroke-width: 1; opacity: 1;"></line><line transform="translate(0,354)" x2="-5" y2="0" style="fill: none; stroke: #888; stroke-width: 1; opacity: 1;"></line><line transform="translate(0,321)" x2="-5" y2="0" style="fill: none; stroke: #888; stroke-width: 1; opacity: 1;"></line><line transform="translate(0,289)" x2="-5" y2="0" style="fill: none; stroke: #888; stroke-width: 1; opacity: 1;"></line><line transform="translate(0,257)" x2="-5" y2="0" style="fill: none; stroke: #888; stroke-width: 1; opacity: 1;"></line><line transform="translate(0,225)" x2="-5" y2="0" style="fill: none; stroke: #888; stroke-width: 1; opacity: 1;"></line><line transform="translate(0,193)" x2="-5" y2="0" style="fill: none; stroke: #888; stroke-width: 1; opacity: 1;"></line><line transform="translate(0,161)" x2="-5" y2="0" style="fill: none; stroke: #888; stroke-width: 1; opacity: 1;"></line><line transform="translate(0,129)" x2="-5" y2="0" style="fill: none; stroke: #888; stroke-width: 1; opacity: 1;"></line><line transform="translate(0,96)" x2="-5" y2="0" style="fill: none; stroke: #888; stroke-width: 1; opacity: 1;"></line><line transform="translate(0,64)" x2="-5" y2="0" style="fill: none; stroke: #888; stroke-width: 1; opacity: 1;"></line><line transform="translate(0,32)" x2="-5" y2="0" style="fill: none; stroke: #888; stroke-width: 1; opacity: 1;"></line><line transform="translate(0,0)" x2="-5" y2="0" style="fill: none; stroke: #888; stroke-width: 1; opacity: 1;"></line></g><g class="mark-text role-axis-label" style="pointer-events: none;"><text text-anchor="end" transform="translate(-7,454)" style="font-family: sans-serif; font-size: 12px; fill: #000; opacity: 1;">0</text><text text-anchor="end" transform="translate(-7,421.8571428571429)" style="font-family: sans-serif; font-size: 12px; fill: #000; opacity: 1;">2</text><text text-anchor="end" transform="translate(-7,389.7142857142857)" style="font-family: sans-serif; font-size: 12px; fill: #000; opacity: 1;">4</text><text text-anchor="end" transform="translate(-7,357.57142857142856)" style="font-family: sans-serif; font-size: 12px; fill: #000; opacity: 1;">6</text><text text-anchor="end" transform="translate(-7,325.42857142857144)" style="font-family: sans-serif; font-size: 12px; fill: #000; opacity: 1;">8</text><text text-anchor="end" transform="translate(-7,293.2857142857143)" style="font-family: sans-serif; font-size: 12px; fill: #000; opacity: 1;">10</text><text text-anchor="end" transform="translate(-7,261.14285714285717)" style="font-family: sans-serif; font-size: 12px; fill: #000; opacity: 1;">12</text><text text-anchor="end" transform="translate(-7,229)" style="font-family: sans-serif; font-size: 12px; fill: #000; opacity: 1;">14</text><text text-anchor="end" transform="translate(-7,196.8571428571429)" style="font-family: sans-serif; font-size: 12px; fill: #000; opacity: 1;">16</text><text text-anchor="end" transform="translate(-7,164.71428571428567)" style="font-family: sans-serif; font-size: 12px; fill: #000; opacity: 1;">18</text><text text-anchor="end" transform="translate(-7,132.57142857142856)" style="font-family: sans-serif; font-size: 12px; fill: #000; opacity: 1;">20</text><text text-anchor="end" transform="translate(-7,100.42857142857144)" style="font-family: sans-serif; font-size: 12px; fill: #000; opacity: 1;">22</text><text text-anchor="end" transform="translate(-7,68.28571428571433)" style="font-family: sans-serif; font-size: 12px; fill: #000; opacity: 1;">24</text><text text-anchor="end" transform="translate(-7,36.14285714285711)" style="font-family: sans-serif; font-size: 12px; fill: #000; opacity: 1;">26</text><text text-anchor="end" transform="translate(-7,4)" style="font-family: sans-serif; font-size: 12px; fill: #000; opacity: 1;">28</text></g><g class="mark-rule role-axis-domain" style="pointer-events: none;"><line transform="translate(0,450)" x2="0" y2="-450" style="fill: none; stroke: #888; stroke-width: 1; opacity: 1;"></line></g><g class="mark-text role-axis-title" style="pointer-events: none;"><text text-anchor="middle" transform="translate(-34,225) rotate(-90) translate(0,-3)" style="font-family: sans-serif; font-size: 12px; font-weight: bold; fill: #000; opacity: 1;">Avg_Total_Cost</text></g></g></g></g></g></g></g></g></svg>