<svg class="marks" width="1160" height="547" viewBox="0 0 1160 547" version="1.1" xmlns="http://www.w3.org/2000/svg" xmlns:xlink="http://www.w3.org/1999/xlink"><g transform="translate(55,42)"><g class="mark-group role-frame root"><g transform="translate(0,0)"><path class="background" d="M0.5,0.5h1100v450h-1100Z" style="fill: none; stroke: #ddd;"></path><g><g class="mark-group role-axis"><g transform="translate(0.5,0.5)"><path class="background" d="M0,0h0v0h0Z" style="pointer-events: none; fill: none;"></path><g><g class="mark-rule role-axis-grid" style="pointer-events: none;"><line transform="translate(0,450)" x2="1100" y2="0" style="fill: none; stroke: #ddd; stroke-width: 1; opacity: 1;"></line><line transform="translate(0,409)" x2="1100" y2="0" style="fill: none; stroke: #ddd; stroke-width: 1; opacity: 1;"></line><line transform="translate(0,368)" x2="1100" y2="0" style="fill: none; stroke: #ddd; stroke-width: 1; opacity: 1;"></line><line transform="translate(0,327)" x2="1100" y2="0" style="fill: none; stroke: #ddd; stroke-width: 1; opacity: 1;"></line><line transform="translate(0,286)" x2="1100" y2="0" style="fill: none; stroke: #ddd; stroke-width: 1; opacity: 1;"></line><line transform="translate(0,245)" x2="1100" y2="0" style="fill: none; stroke: #ddd; stroke-width: 1; opacity: 1;"></line><line transform="translate(0,205)" x2="1100" y2="0" style="fill: none; stroke: #ddd; stroke-width: 1; opacity: 1;"></line><line transform="translate(0,164)" x2="1100" y2="0" style="fill: none; stroke: #ddd; stroke-width: 1; opacity: 1;"></line><line transform="translate(0,123)" x2="1100" y2="0" style="fill: none; stroke: #ddd; stroke-width: 1; opacity: 1;"></line><line transform="translate(0,82)" x2="1100" y2="0" style="fill: none; stroke: #ddd; stroke-width: 1; opacity: 1;"></line><line transform="translate(0,41)" x2="1100" y2="0" style="fill: none; stroke: #ddd; stroke-width: 1; opacity: 1;"></line><line transform="translate(0,0)" x2="1100" y2="0" style="fill: none; stroke: #ddd; stroke-width: 1; opacity: 1;"></line></g></g></g></g><g class="mark-rect role-mark marks"><path d="M85.67307692307699,324.0353721766656h19.03846153846154v125.96462782333441h-19.03846153846154Z" style="fill: rgb(187, 60, 176);"></path><path d="M910.673076923077,295.22599543092986h19.03846153846154v154.77400456907014h-19.03846153846154Z" style="fill: rgb(46, 152, 223);"></path><path d="M254.90384615384622,257.5153812673499h19.03846153846154v192.48461873265012h-19.03846153846154Z" style="fill: rgb(255, 92, 102);"></path><path d="M170.2884615384616,335.4871081665793h19.03846153846154v114.51289183342072h-19.03846153846154Z" style="fill: rgb(240, 68, 148);"></path><path d="M149.13461538461544,277.9560030658971h19.03846153846154v172.0439969341029h-19.03846153846154Z" style="fill: rgb(228, 65, 157);"></path><path d="M677.9807692307693,158.93747480060648h19.03846153846154v291.0625251993935h-19.03846153846154Z" style="fill: rgb(65, 244, 114);"></path><path d="M106.82692307692315,326.0199559470308h19.03846153846154v123.98004405296922h-19.03846153846154Z" style="fill: rgb(201, 61, 171);"></path><path d="M64.51923076923083,373.78906314554376h19.03846153846154v76.21093685445624h-19.03846153846154Z" style="fill: rgb(171, 60, 178);"></path><path d="M529.9038461538462,257.11421145846765h19.03846153846154v192.88578854153235h-19.03846153846154Z" style="fill: rgb(179, 236, 84);"></path><path d="M952.9807692307693,209.2482363427473h19.03846153846154v240.7517636572527h-19.03846153846154Z" style="fill: rgb(62, 129, 225);"></path><path d="M656.8269230769231,351.9034054307871h19.03846153846154v98.09659456921293h-19.03846153846154Z" style="fill: rgb(79, 246, 105);"></path><path d="M424.1346153846155,302.45325038860085h19.03846153846154v147.54674961139915h-19.03846153846154Z" style="fill: rgb(228, 181, 46);"></path><path d="M1016.4423076923077,383.87884166652424h19.03846153846154v66.12115833347576h-19.03846153846154Z" style="fill: rgb(87, 97, 211);"></path><path d="M360.67307692307696,233.18990182533076h19.03846153846154v216.81009817466924h-19.03846153846154Z" style="fill: rgb(255, 144, 54);"></path><path d="M445.2884615384616,342.27032632069756h19.03846153846154v107.72967367930244h-19.03846153846154Z" style="fill: rgb(218, 193, 49);"></path><path d="M931.8269230769231,391.0685911960911h19.03846153846154v58.93140880390888h-19.03846153846154Z" style="fill: rgb(54, 141, 225);"></path><path d="M466.44230769230774,310.9036559551223h19.03846153846154v139.0963440448777h-19.03846153846154Z" style="fill: rgb(207, 205, 54);"></path><path d="M762.5961538461539,247.31705408585043h19.03846153846154v202.68294591414957h-19.03846153846154Z" style="fill: rgb(30, 223, 162);"></path><path d="M614.5192307692308,157.80564888170466h19.03846153846154v292.19435111829534h-19.03846153846154Z" style="fill: rgb(112, 246, 91);"></path><path d="M191.44230769230776,399.4886878416514h19.03846153846154v50.511312158348574h-19.03846153846154Z" style="fill: rgb(249, 72, 137);"></path><path d="M381.82692307692315,266.28856529176164h19.03846153846154v183.71143470823836h-19.03846153846154Z" style="fill: rgb(247, 156, 49);"></path><path d="M868.3653846153846,290.51848851339616h19.03846153846154v159.48151148660384h-19.03846153846154Z" style="fill: rgb(33, 175, 214);"></path><path d="M699.1346153846155,246.82933045278065h19.03846153846154v203.17066954721935h-19.03846153846154Z" style="fill: rgb(53, 240, 125);"></path><path d="M339.51923076923083,285.37619784609586h19.03846153846154v164.62380215390414h-19.03846153846154Z" style="fill: rgb(255, 132, 61);"></path><path d="M741.4423076923077,349.68545474590826h19.03846153846154v100.31454525409174h-19.03846153846154Z" style="fill: rgb(35, 230, 149);"></path><path d="M1037.5961538461538,262.65015242363677h19.03846153846154v187.34984757636323h-19.03846153846154Z" style="fill: rgb(94, 88, 203);"></path><path d="M318.3653846153847,246.04804899935334h19.03846153846154v203.95195100064666h-19.03846153846154Z" style="fill: rgb(255, 121, 70);"></path><path d="M720.2884615384615,308.91755603416743h19.03846153846154v141.08244396583257h-19.03846153846154Z" style="fill: rgb(43, 236, 137);"></path><path d="M276.0576923076924,275.42592057852386h19.03846153846154v174.57407942147614h-19.03846153846154Z" style="fill: rgb(255, 101, 91);"></path><path d="M826.0576923076924,185.56994243350817h19.03846153846154v264.4300575664918h-19.03846153846154Z" style="fill: rgb(26, 197, 196);"></path><path d="M1.0576923076923777,334.52263057136804h19.03846153846154v115.47736942863196h-19.03846153846154Z" style="fill: rgb(125, 63, 175);"></path><path d="M22.21153846153853,254.05580667519953h19.03846153846154v195.94419332480047h-19.03846153846154Z" style="fill: rgb(140, 62, 178);"></path><path d="M635.673076923077,333.94003893339635h19.03846153846154v116.05996106660365h-19.03846153846154Z" style="fill: rgb(95, 247, 97);"></path><path d="M43.365384615384684,269.35485867802356h19.03846153846154v180.64514132197644h-19.03846153846154Z" style="fill: rgb(156, 61, 179);"></path><path d="M572.2115384615386,285.1695714583758h19.03846153846154v164.8304285416242h-19.03846153846154Z" style="fill: rgb(148, 243, 87);"></path><path d="M783.75,227.03299176071454h19.03846153846154v222.96700823928546h-19.03846153846154Z" style="fill: rgb(26, 215, 174);"></path><path d="M127.9807692307693,248.91253578279378h19.03846153846154v201.08746421720622h-19.03846153846154Z" style="fill: rgb(215, 62, 165);"></path><path d="M212.59615384615392,248.73189958015593h19.03846153846154v201.26810041984407h-19.03846153846154Z" style="fill: rgb(255, 78, 126);"></path><path d="M233.75000000000006,313.377878687028h19.03846153846154v136.622121312972h-19.03846153846154Z" style="fill: rgb(255, 84, 114);"></path><path d="M551.0576923076924,207.2172645500764h19.03846153846154v242.7827354499236h-19.03846153846154Z" style="fill: rgb(166, 241, 89);"></path><path d="M297.2115384615385,253.694313654473h19.03846153846154v196.305686345527h-19.03846153846154Z" style="fill: rgb(255, 110, 80);"></path><path d="M508.75000000000006,339.673918474622h19.03846153846154v110.32608152537802h-19.03846153846154Z" style="fill: rgb(187, 226, 71);"></path><path d="M487.5961538461539,226.09513634040974h19.03846153846154v223.90486365959026h-19.03846153846154Z" style="fill: rgb(197, 216, 61);"></path><path d="M804.9038461538462,203.82852126414357h19.03846153846154v246.17147873585643h-19.03846153846154Z" style="fill: rgb(25, 207, 186);"></path><path d="M847.2115384615386,243.06627269732573h19.03846153846154v206.93372730267427h-19.03846153846154Z" style="fill: rgb(29, 186, 206);"></path><path d="M1079.9038461538462,261.99311870238387h19.03846153846154v188.00688129761613h-19.03846153846154Z" style="fill: rgb(106, 71, 182);"></path><path d="M593.3653846153846,197.66086769245499h19.03846153846154v252.33913230754501h-19.03846153846154Z" style="fill: rgb(129, 245, 88);"></path><path d="M402.9807692307693,48.67090704710358h19.03846153846154v401.3290929528964h-19.03846153846154Z" style="fill: rgb(238, 168, 47);"></path><path d="M995.2884615384615,34.09172652069185h19.03846153846154v415.90827347930815h-19.03846153846154Z" style="fill: rgb(79, 107, 218);"></path><path d="M974.1346153846155,185.23372678041812h19.03846153846154v264.7662732195819h-19.03846153846154Z" style="fill: rgb(70, 118, 222);"></path><path d="M1058.75,125.63636363636357h19.03846153846154v324.36363636363643h-19.03846153846154Z" style="fill: rgb(100, 79, 193);"></path><path d="M889.5192307692308,251.28635883651722h19.03846153846154v198.71364116348278h-19.03846153846154Z" style="fill: rgb(39, 164, 219);"></path></g><g class="mark-text role-title" style="pointer-events: none;"><text text-anchor="middle" transform="translate(525,-17)" style="font-family: sans-serif; font-size: 24px; font-weight: bold; fill: #000; opacity: 1;">Disruption % by Origin State</text></g><g class="mark-group role-axis"><g transform="translate(0.5,450.5)"><path class="background" d="M0,0h0v0h0Z" style="pointer-events: none; fill: none;"></path><g><g class="mark-rule role-axis-tick" style="pointer-events: none;"><line transform="translate(10,0)" x2="0" y2="5" style="fill: none; stroke: #888; stroke-width: 1; opacity: 1;"></line><line transform="translate(31,0)" x2="0" y2="5" style="fill: none; stroke: #888; stroke-width: 1; opacity: 1;"></line><line transform="translate(52,0)" x2="0" y2="5" style="fill: none; stroke: #888; stroke-width: 1; opacity: 1;"></line><line transform="translate(73,0)" x2="0" y2="5" style="fill: none; stroke: #888; stroke-width: 1; opacity: 1;"></line><line transform="translate(94,0)" x2="0" y2="5" style="fill: none; stroke: #888; stroke-width: 1; opacity: 1;"></line><line transform="translate(115,0)" x2="0" y2="5" style="fill: none; stroke: #888; stroke-width: 1; opacity: 1;"></line><line transform="translate(137,0)" x2="0" y2="5" style="fill: none; stroke: #888; stroke-width: 1; opacity: 1;"></line><line transform="translate(158,0)" x2="0" y2="5" style="fill: none; stroke: #888; stroke-width: 1; opacity: 1;"></line><line transform="translate(179,0)" x2="0" y2="5" style="fill: none; stroke: #888; stroke-width: 1; opacity: 1;"></line><line transform="translate(200,0)" x2="0" y2="5" style="fill: none; stroke: #888; stroke-width: 1; opacity: 1;"></line><line transform="translate(221,0)" x2="0" y2="5" style="fill: none; stroke: #888; stroke-width: 1; opacity: 1;"></line><line transform="translate(242,0)" x2="0" y2="5" style="fill: none; stroke: #888; stroke-width: 1; opacity: 1;"></line><line transform="translate(263,0)" x2="0" y2="5" style="fill: none; stroke: #888; stroke-width: 1; opacity: 1;"></line><line transform="translate(285,0)" x2="0" y2="5" style="fill: none; stroke: #888; stroke-width: 1; opacity: 1;"></line><line transform="translate(306,0)" x2="0" y2="5" style="fill: none; stroke: #888; stroke-width: 1; opacity: 1;"></line><line transform="translate(327,0)" x2="0" y2="5" style="fill: none; stroke: #888; stroke-width: 1; opacity: 1;"></line><line transform="translate(348,0)" x2="0" y2="5" style="fill: none; stroke: #888; stroke-width: 1; opacity: 1;"></line><line transform="translate(369,0)" x2="0" y2="5" style="fill: none; stroke: #888; stroke-width: 1; opacity: 1;"></line><line transform="translate(390,0)" x2="0" y2="5" style="fill: none; stroke: #888; stroke-width: 1; opacity: 1;"></line><line transform="translate(412,0)" x2="0" y2="5" style="fill: none; stroke: #888; stroke-width: 1; opacity: 1;"></line><line transform="translate(433,0)" x2="0" y2="5" style="fill: none; stroke: #888; stroke-width: 1; opacity: 1;"></line><line transform="translate(454,0)" x2="0" y2="5" style="fill: none; stroke: #888; stroke-width: 1; opacity: 1;"></line><line transform="translate(475,0)" x2="0" y2="5" style="fill: none; stroke: #888; stroke-width: 1; opacity: 1;"></line><line transform="translate(496,0)" x2="0" y2="5" style="fill: none; stroke: #888; stroke-width: 1; opacity: 1;"></line><line transform="translate(517,0)" x2="0" y2="5" style="fill: none; stroke: #888; stroke-width: 1; opacity: 1;"></line><line transform="translate(538,0)" x2="0" y2="5" style="fill: none; stroke: #888; stroke-width: 1; opacity: 1;"></line><line transform="translate(560,0)" x2="0" y2="5" style="fill: none; stroke: #888; stroke-width: 1; opacity: 1;"></line><line transform="translate(581,0)" x2="0" y2="5" style="fill: none; stroke: #888; stroke-width: 1; opacity: 1;"></line><line transform="translate(602,0)" x2="0" y2="5" style="fill: none; stroke: #888; stroke-width: 1; opacity: 1;"></line><line transform="translate(623,0)" x2="0" y2="5" style="fill: none; stroke: #888; stroke-width: 1; opacity: 1;"></line><line transform="translate(644,0)" x2="0" y2="5" style="fill: none; stroke: #888; stroke-width: 1; opacity: 1;"></line><line transform="translate(665,0)" x2="0" y2="5" style="fill: none; stroke: #888; stroke-width: 1; opacity: 1;"></line><line transform="translate(687,0)" x2="0" y2="5" style="fill: none; stroke: #888; stroke-width: 1; opacity: 1;"></line><line transform="translate(708,0)" x2="0" y2="5" style="fill: none; stroke: #888; stroke-width: 1; opacity: 1;"></line><line transform="translate(729,0)" x2="0" y2="5" style="fill: none; stroke: #888; stroke-width: 1; opacity: 1;"></line><line transform="translate(750,0)" x2="0" y2="5" style="fill: none; stroke: #888; stroke-width: 1; opacity: 1;"></line><line transform="translate(771,0)" x2="0" y2="5" style="fill: none; stroke: #888; stroke-width: 1; opacity: 1;"></line><line transform="translate(792,0)" x2="0" y2="5" style="fill: none; stroke: #888; stroke-width: 1; opacity: 1;"></line><line transform="translate(813,0)" x2="0" y2="5" style="fill: none; stroke: #888; stroke-width: 1; opacity: 1;"></line><line transform="translate(835,0)" x2="0" y2="5" style="fill: none; stroke: #888; stroke-width: 1; opacity: 1;"></line><line transform="translate(856,0)" x2="0" y2="5" style="fill: none; stroke: #888; stroke-width: 1; opacity: 1;"></line><line transform="translate(877,0)" x2="0" y2="5" style="fill: none; stroke: #888; stroke-width: 1; opacity: 1;"></line><line transform="translate(898,0)" x2="0" y2="5" style="fill: none; stroke: #888; stroke-width: 1; opacity: 1;"></line><line transform="translate(919,0)" x2="0" y2="5" style="fill: none; stroke: #888; stroke-width: 1; opacity: 1;"></line><line transform="translate(940,0)" x2="0" y2="5" style="fill: none; stroke: #888; stroke-width: 1; opacity: 1;"></line><line transform="translate(962,0)" x2="0" y2="5" style="fill: none; stroke: #888; stroke-width: 1; opacity: 1;"></line><line transform="translate(983,0)" x2="0" y2="5" style="fill: none; stroke: #888; stroke-width: 1; opacity: 1;"></line><line transform="translate(1004,0)" x2="0" y2="5" style="fill: none; stroke: #888; stroke-width: 1; opacity: 1;"></line><line transform="translate(1025,0)" x2="0" y2="5" style="fill: none; stroke: #888; stroke-width: 1; opacity: 1;"></line><line transform="translate(1046,0)" x2="0" y2="5" style="fill: none; stroke: #888; stroke-width: 1; opacity: 1;"></line><line transform="translate(1067,0)" x2="0" y2="5" style="fill: none; stroke: #888; stroke-width: 1; opacity: 1;"></line><line transform="translate(1088,0)" x2="0" y2="5" style="fill: none; stroke: #888; stroke-width: 1; opacity: 1;"></line></g><g class="mark-text role-axis-label" style="pointer-events: none;"><text text-anchor="end" transform="translate(9.576923076923148,7) rotate(270) translate(0,4)" style="font-family: sans-serif; font-size: 14px; fill: #000; opacity: 1;">AK</text><text text-anchor="end" transform="translate(30.7307692307693,7) rotate(270) translate(0,4)" style="font-family: sans-serif; font-size: 14px; fill: #000; opacity: 1;">AL</text><text text-anchor="end" transform="translate(51.88461538461546,7) rotate(270) translate(0,4)" style="font-family: sans-serif; font-size: 14px; fill: #000; opacity: 1;">AR</text><text text-anchor="end" transform="translate(73.0384615384616,7) rotate(270) translate(0,4)" style="font-family: sans-serif; font-size: 14px; fill: #000; opacity: 1;">AZ</text><text text-anchor="end" transform="translate(94.19230769230776,7) rotate(270) translate(0,4)" style="font-family: sans-serif; font-size: 14px; fill: #000; opacity: 1;">CA</text><text text-anchor="end" transform="translate(115.34615384615392,7) rotate(270) translate(0,4)" style="font-family: sans-serif; font-size: 14px; fill: #000; opacity: 1;">CO</text><text text-anchor="end" transform="translate(136.50000000000006,7) rotate(270) translate(0,4)" style="font-family: sans-serif; font-size: 14px; fill: #000; opacity: 1;">CT</text><text text-anchor="end" transform="translate(157.65384615384622,7) rotate(270) translate(0,4)" style="font-family: sans-serif; font-size: 14px; fill: #000; opacity: 1;">FL</text><text text-anchor="end" transform="translate(178.80769230769238,7) rotate(270) translate(0,4)" style="font-family: sans-serif; font-size: 14px; fill: #000; opacity: 1;">GA</text><text text-anchor="end" transform="translate(199.96153846153854,7) rotate(270) translate(0,4)" style="font-family: sans-serif; font-size: 14px; fill: #000; opacity: 1;">HI</text><text text-anchor="end" transform="translate(221.1153846153847,7) rotate(270) translate(0,4)" style="font-family: sans-serif; font-size: 14px; fill: #000; opacity: 1;">IA</text><text text-anchor="end" transform="translate(242.26923076923083,7) rotate(270) translate(0,4)" style="font-family: sans-serif; font-size: 14px; fill: #000; opacity: 1;">ID</text><text text-anchor="end" transform="translate(263.42307692307696,7) rotate(270) translate(0,4)" style="font-family: sans-serif; font-size: 14px; fill: #000; opacity: 1;">IL</text><text text-anchor="end" transform="translate(284.57692307692315,7) rotate(270) translate(0,4)" style="font-family: sans-serif; font-size: 14px; fill: #000; opacity: 1;">IN</text><text text-anchor="end" transform="translate(305.7307692307693,7) rotate(270) translate(0,4)" style="font-family: sans-serif; font-size: 14px; fill: #000; opacity: 1;">KS</text><text text-anchor="end" transform="translate(326.8846153846155,7) rotate(270) translate(0,4)" style="font-family: sans-serif; font-size: 14px; fill: #000; opacity: 1;">KY</text><text text-anchor="end" transform="translate(348.0384615384616,7) rotate(270) translate(0,4)" style="font-family: sans-serif; font-size: 14px; fill: #000; opacity: 1;">LA</text><text text-anchor="end" transform="translate(369.19230769230774,7) rotate(270) translate(0,4)" style="font-family: sans-serif; font-size: 14px; fill: #000; opacity: 1;">MA</text><text text-anchor="end" transform="translate(390.3461538461539,7) rotate(270) translate(0,4)" style="font-family: sans-serif; font-size: 14px; fill: #000; opacity: 1;">MD</text><text text-anchor="end" transform="translate(411.50000000000006,7) rotate(270) translate(0,4)" style="font-family: sans-serif; font-size: 14px; fill: #000; opacity: 1;">ME</text><text text-anchor="end" transform="translate(432.65384615384625,7) rotate(270) translate(0,4)" style="font-family: sans-serif; font-size: 14px; fill: #000; opacity: 1;">MI</text><text text-anchor="end" transform="translate(453.8076923076924,7) rotate(270) translate(0,4)" style="font-family: sans-serif; font-size: 14px; fill: #000; opacity: 1;">MN</text><text text-anchor="end" transform="translate(474.9615384615385,7) rotate(270) translate(0,4)" style="font-family: sans-serif; font-size: 14px; fill: #000; opacity: 1;">MO</text><text text-anchor="end" transform="translate(496.1153846153847,7) rotate(270) translate(0,4)" style="font-family: sans-serif; font-size: 14px; fill: #000; opacity: 1;">MS</text><text text-anchor="end" transform="translate(517.2692307692308,7) rotate(270) translate(0,4)" style="font-family: sans-serif; font-size: 14px; fill: #000; opacity: 1;">MT</text><text text-anchor="end" transform="translate(538.4230769230769,7) rotate(270) translate(0,4)" style="font-family: sans-serif; font-size: 14px; fill: #000; opacity: 1;">NC</text><text text-anchor="end" transform="translate(559.5769230769231,7) rotate(270) translate(0,4)" style="font-family: sans-serif; font-size: 14px; fill: #000; opacity: 1;">ND</text><text text-anchor="end" transform="translate(580.7307692307693,7) rotate(270) translate(0,4)" style="font-family: sans-serif; font-size: 14px; fill: #000; opacity: 1;">NE</text><text text-anchor="end" transform="translate(601.8846153846154,7) rotate(270) translate(0,4)" style="font-family: sans-serif; font-size: 14px; fill: #000; opacity: 1;">NH</text><text text-anchor="end" transform="translate(623.0384615384615,7) rotate(270) translate(0,4)" style="font-family: sans-serif; font-size: 14px; fill: #000; opacity: 1;">NJ</text><text text-anchor="end" transform="translate(644.1923076923077,7) rotate(270) translate(0,4)" style="font-family: sans-serif; font-size: 14px; fill: #000; opacity: 1;">NM</text><text text-anchor="end" transform="translate(665.3461538461538,7) rotate(270) translate(0,4)" style="font-family: sans-serif; font-size: 14px; fill: #000; opacity: 1;">NV</text><text text-anchor="end" transform="translate(686.5,7) rotate(270) translate(0,4)" style="font-family: sans-serif; font-size: 14px; fill: #000; opacity: 1;">NY</text><text text-anchor="end" transform="translate(707.6538461538462,7) rotate(270) translate(0,4)" style="font-family: sans-serif; font-size: 14px; fill: #000; opacity: 1;">OH</text><text text-anchor="end" transform="translate(728.8076923076923,7) rotate(270) translate(0,4)" style="font-family: sans-serif; font-size: 14px; fill: #000; opacity: 1;">OK</text><text text-anchor="end" transform="translate(749.9615384615385,7) rotate(270) translate(0,4)" style="font-family: sans-serif; font-size: 14px; fill: #000; opacity: 1;">OR</text><text text-anchor="end" transform="translate(771.1153846153846,7) rotate(270) translate(0,4)" style="font-family: sans-serif; font-size: 14px; fill: #000; opacity: 1;">PA</text><text text-anchor="end" transform="translate(792.2692307692307,7) rotate(270) translate(0,4)" style="font-family: sans-serif; font-size: 14px; fill: #000; opacity: 1;">PR</text><text text-anchor="end" transform="translate(813.4230769230769,7) rotate(270) translate(0,4)" style="font-family: sans-serif; font-size: 14px; fill: #000; opacity: 1;">RI</text><text text-anchor="end" transform="translate(834.5769230769231,7) rotate(270) translate(0,4)" style="font-family: sans-serif; font-size: 14px; fill: #000; opacity: 1;">SC</text><text text-anchor="end" transform="translate(855.7307692307693,7) rotate(270) translate(0,4)" style="font-family: sans-serif; font-size: 14px; fill: #000; opacity: 1;">SD</text><text text-anchor="end" transform="translate(876.8846153846154,7) rotate(270) translate(0,4)" style="font-family: sans-serif; font-size: 14px; fill: #000; opacity: 1;">TN</text><text text-anchor="end" transform="translate(898.0384615384615,7) rotate(270) translate(0,4)" style="font-family: sans-serif; font-size: 14px; fill: #000; opacity: 1;">TT</text><text text-anchor="end" transform="translate(919.1923076923077,7) rotate(270) translate(0,4)" style="font-family: sans-serif; font-size: 14px; fill: #000; opacity: 1;">TX</text><text text-anchor="end" transform="translate(940.3461538461538,7) rotate(270) translate(0,4)" style="font-family: sans-serif; font-size: 14px; fill: #000; opacity: 1;">UT</text><text text-anchor="end" transform="translate(961.5,7) rotate(270) translate(0,4)" style="font-family: sans-serif; font-size: 14px; fill: #000; opacity: 1;">VA</text><text text-anchor="end" transform="translate(982.6538461538462,7) rotate(270) translate(0,4)" style="font-family: sans-serif; font-size: 14px; fill: #000; opacity: 1;">VI</text><text text-anchor="end" transform="translate(1003.8076923076923,7) rotate(270) translate(0,4)" style="font-family: sans-serif; font-size: 14px; fill: #000; opacity: 1;">VT</text><text text-anchor="end" transform="translate(1024.9615384615386,7) rotate(270) translate(0,4)" style="font-family: sans-serif; font-size: 14px; fill: #000; opacity: 1;">WA</text><text text-anchor="end" transform="translate(1046.1153846153845,7) rotate(270) translate(0,4)" style="font-family: sans-serif; font-size: 14px; fill: #000; opacity: 1;">WI</text><text text-anchor="end" transform="translate(1067.2692307692307,7) rotate(270) translate(0,4)" style="font-family: sans-serif; font-size: 14px; fill: #000; opacity: 1;">WV</text><text text-anchor="end" transform="translate(1088.423076923077,7) rotate(270) translate(0,4)" style="font-family: sans-serif; font-size: 14px; fill: #000; opacity: 1;">WY</text></g><g class="mark-rule role-axis-domain" style="pointer-events: none;"><line transform="translate(0,0)" x2="1100" y2="0" style="fill: none; stroke: #888; stroke-width: 1; opacity: 1;"></line></g><g class="mark-text role-axis-title" style="pointer-events: none;"><text text-anchor="middle" transform="translate(550,45)" style="font-family: sans-serif; font-size: 14px; font-weight: bold; fill: #000; opacity: 1;">State</text></g></g></g></g><g class="mark-group role-axis"><g transform="translate(0.5,0.5)"><path class="background" d="M0,0h0v0h0Z" style="pointer-events: none; fill: none;"></path><g><g class="mark-rule role-axis-tick" style="pointer-events: none;"><line transform="translate(0,450)" x2="-5" y2="0" style="fill: none; stroke: #888; stroke-width: 1; opacity: 1;"></line><line transform="translate(0,409)" x2="-5" y2="0" style="fill: none; stroke: #888; stroke-width: 1; opacity: 1;"></line><line transform="translate(0,368)" x2="-5" y2="0" style="fill: none; stroke: #888; stroke-width: 1; opacity: 1;"></line><line transform="translate(0,327)" x2="-5" y2="0" style="fill: none; stroke: #888; stroke-width: 1; opacity: 1;"></line><line transform="translate(0,286)" x2="-5" y2="0" style="fill: none; stroke: #888; stroke-width: 1; opacity: 1;"></line><line transform="translate(0,245)" x2="-5" y2="0" style="fill: none; stroke: #888; stroke-width: 1; opacity: 1;"></line><line transform="translate(0,205)" x2="-5" y2="0" style="fill: none; stroke: #888; stroke-width: 1; opacity: 1;"></line><line transform="translate(0,164)" x2="-5" y2="0" style="fill: none; stroke: #888; stroke-width: 1; opacity: 1;"></line><line transform="translate(0,123)" x2="-5" y2="0" style="fill: none; stroke: #888; stroke-width: 1; opacity: 1;"></line><line transform="translate(0,82)" x2="-5" y2="0" style="fill: none; stroke: #888; stroke-width: 1; opacity: 1;"></line><line transform="translate(0,41)" x2="-5" y2="0" style="fill: none; stroke: #888; stroke-width: 1; opacity: 1;"></line><line transform="translate(0,0)" x2="-5" y2="0" style="fill: none; stroke: #888; stroke-width: 1; opacity: 1;"></line></g><g class="mark-text role-axis-label" style="pointer-events: none;"><text text-anchor="end" transform="translate(-7,454)" style="font-family: sans-serif; font-size: 14px; fill: #000; opacity: 1;">0.0</text><text text-anchor="end" transform="translate(-7,413.09090909090907)" style="font-family: sans-serif; font-size: 14px; fill: #000; opacity: 1;">0.5</text><text text-anchor="end" transform="translate(-7,372.1818181818182)" style="font-family: sans-serif; font-size: 14px; fill: #000; opacity: 1;">1.0</text><text text-anchor="end" transform="translate(-7,331.27272727272725)" style="font-family: sans-serif; font-size: 14px; fill: #000; opacity: 1;">1.5</text><text text-anchor="end" transform="translate(-7,290.3636363636364)" style="font-family: sans-serif; font-size: 14px; fill: #000; opacity: 1;">2.0</text><text text-anchor="end" transform="translate(-7,249.45454545454547)" style="font-family: sans-serif; font-size: 14px; fill: #000; opacity: 1;">2.5</text><text text-anchor="end" transform="translate(-7,208.54545454545456)" style="font-family: sans-serif; font-size: 14px; fill: #000; opacity: 1;">3.0</text><text text-anchor="end" transform="translate(-7,167.63636363636363)" style="font-family: sans-serif; font-size: 14px; fill: #000; opacity: 1;">3.5</text><text text-anchor="end" transform="translate(-7,126.72727272727269)" style="font-family: sans-serif; font-size: 14px; fill: #000; opacity: 1;">4.0</text><text text-anchor="end" transform="translate(-7,85.81818181818181)" style="font-family: sans-serif; font-size: 14px; fill: #000; opacity: 1;">4.5</text><text text-anchor="end" transform="translate(-7,44.909090909090935)" style="font-family: sans-serif; font-size: 14px; fill: #000; opacity: 1;">5.0</text><text text-anchor="end" transform="translate(-7,4)" style="font-family: sans-serif; font-size: 14px; fill: #000; opacity: 1;">5.5</text></g><g class="mark-rule role-axis-domain" style="pointer-events: none;"><line transform="translate(0,450)" x2="0" y2="-450" style="fill: none; stroke: #888; stroke-width: 1; opacity: 1;"></line></g><g class="mark-text role-axis-title" style="pointer-events: none;"><text text-anchor="middle" transform="translate(-34,225) rotate(-90) translate(0,-3)" style="font-family: sans-serif; font-size: 14px; font-weight: bold; fill: #000; opacity: 1;">Disrupt_Pct</text></g></g></g></g></g></g></g></g></svg>