<svg class="marks" width="1161" height="603" viewBox="0 0 1161 603" version="1.1" xmlns="http://www.w3.org/2000/svg" xmlns:xlink="http://www.w3.org/1999/xlink"><g transform="translate(56,43)"><g class="mark-group role-frame root"><g transform="translate(0,0)"><path class="background" d="M0.5,0.5h1100v450h-1100Z" style="fill: none; stroke: #ddd;"></path><g><g class="mark-group role-axis"><g transform="translate(0.5,0.5)"><path class="background" d="M0,0h0v0h0Z" style="pointer-events: none; fill: none;"></path><g><g class="mark-rule role-axis-grid" style="pointer-events: none;"><line transform="translate(0,450)" x2="1100" y2="0" style="fill: none; stroke: #ddd; stroke-width: 1; opacity: 1;"></line><line transform="translate(0,413)" x2="1100" y2="0" style="fill: none; stroke: #ddd; stroke-width: 1; opacity: 1;"></line><line transform="translate(0,375)" x2="1100" y2="0" style="fill: none; stroke: #ddd; stroke-width: 1; opacity: 1;"></line><line transform="translate(0,338)" x2="1100" y2="0" style="fill: none; stroke: #ddd; stroke-width: 1; opacity: 1;"></line><line transform="translate(0,300)" x2="1100" y2="0" style="fill: none; stroke: #ddd; stroke-width: 1; opacity: 1;"></line><line transform="translate(0,263)" x2="1100" y2="0" style="fill: none; stroke: #ddd; stroke-width: 1; opacity: 1;"></line><line transform="translate(0,225)" x2="1100" y2="0" style="fill: none; stroke: #ddd; stroke-width: 1; opacity: 1;"></line><line transform="translate(0,188)" x2="1100" y2="0" style="fill: none; stroke: #ddd; stroke-width: 1; opacity: 1;"></line><line transform="translate(0,150)" x2="1100" y2="0" style="fill: none; stroke: #ddd; stroke-width: 1; opacity: 1;"></line><line transform="translate(0,113)" x2="1100" y2="0" style="fill: none; stroke: #ddd; stroke-width: 1; opacity: 1;"></line><line transform="translate(0,75)" x2="1100" y2="0" style="fill: none; stroke: #ddd; stroke-width: 1; opacity: 1;"></line><line transform="translate(0,37)" x2="1100" y2="0" style="fill: none; stroke: #ddd; stroke-width: 1; opacity: 1;"></line><line transform="translate(0,0)" x2="1100" y2="0" style="fill: none; stroke: #ddd; stroke-width: 1; opacity: 1;"></line></g></g></g></g><g class="mark-rect role-mark marks"><path d="M2.894736842105317,97.34547319825595h52.10526315789473v352.65452680174405h-52.10526315789473Z" style="fill: #4c78a8;"></path><path d="M60.78947368421058,38.640114201249276h52.10526315789473v411.3598857987507h-52.10526315789473Z" style="fill: #f58518;"></path><path d="M118.68421052631584,45.60208911129865h52.10526315789473v404.39791088870135h-52.10526315789473Z" style="fill: #e45756;"></path><path d="M176.5789473684211,102.56531652406358h52.10526315789473v347.4346834759364h-52.10526315789473Z" style="fill: #72b7b2;"></path><path d="M234.47368421052636,125.70817707283402h52.10526315789473v324.291822927166h-52.10526315789473Z" style="fill: #54a24b;"></path><path d="M292.3684210526316,145.15804427607435h52.10526315789473v304.84195572392565h-52.10526315789473Z" style="fill: #eeca3b;"></path><path d="M350.2631578947369,156.46033812993h52.10526315789473v293.53966187007h-52.10526315789473Z" style="fill: #b279a2;"></path><path d="M408.15789473684214,161.3368212193426h52.10526315789473v288.6631787806574h-52.10526315789473Z" style="fill: #ff9da6;"></path><path d="M466.0526315789474,150.26211561200273h52.10526315789473v299.73788438799727h-52.10526315789473Z" style="fill: #9d755d;"></path><path d="M523.9473684210526,129.62274871258376h52.10526315789473v320.37725128741624h-52.10526315789473Z" style="fill: #bab0ac;"></path><path d="M581.8421052631579,114.58031722914302h52.10526315789473v335.419682770857h-52.10526315789473Z" style="fill: #4c78a8;"></path><path d="M639.7368421052632,101.66863729064022h52.10526315789473v348.3313627093598h-52.10526315789473Z" style="fill: #f58518;"></path><path d="M697.6315789473684,62.802066415845786h52.10526315789473v387.1979335841542h-52.10526315789473Z" style="fill: #e45756;"></path><path d="M755.5263157894736,29.092683212030522h52.10526315789473v420.9073167879695h-52.10526315789473Z" style="fill: #72b7b2;"></path><path d="M813.421052631579,5.3255001247127325h52.10526315789473v444.67449987528727h-52.10526315789473Z" style="fill: #54a24b;"></path><path d="M871.3157894736843,2.4384700608275693h52.10526315789473v447.56152993917243h-52.10526315789473Z" style="fill: #eeca3b;"></path><path d="M929.2105263157895,25.239302106620755h52.10526315789473v424.76069789337924h-52.10526315789473Z" style="fill: #b279a2;"></path><path d="M987.1052631578947,20.541767788761433h52.10526315789473v429.45823221123857h-52.10526315789473Z" style="fill: #ff9da6;"></path><path d="M1045,29.589660978631855h52.10526315789473v420.41033902136815h-52.10526315789473Z" style="fill: #9d755d;"></path></g><g class="mark-text role-title" style="pointer-events: none;"><text text-anchor="middle" transform="translate(524.87890625,-18)" style="font-family: sans-serif; font-size: 24px; font-weight: bold; fill: #000; opacity: 1;">Disruption % by Scheduled Arrival Time Block</text></g><g class="mark-group role-axis"><g transform="translate(0.5,450.5)"><path class="background" d="M0,0h0v0h0Z" style="pointer-events: none; fill: none;"></path><g><g class="mark-rule role-axis-tick" style="pointer-events: none;"><line transform="translate(28,0)" x2="0" y2="5" style="fill: none; stroke: #888; stroke-width: 1; opacity: 1;"></line><line transform="translate(86,0)" x2="0" y2="5" style="fill: none; stroke: #888; stroke-width: 1; opacity: 1;"></line><line transform="translate(144,0)" x2="0" y2="5" style="fill: none; stroke: #888; stroke-width: 1; opacity: 1;"></line><line transform="translate(202,0)" x2="0" y2="5" style="fill: none; stroke: #888; stroke-width: 1; opacity: 1;"></line><line transform="translate(260,0)" x2="0" y2="5" style="fill: none; stroke: #888; stroke-width: 1; opacity: 1;"></line><line transform="translate(317,0)" x2="0" y2="5" style="fill: none; stroke: #888; stroke-width: 1; opacity: 1;"></line><line transform="translate(375,0)" x2="0" y2="5" style="fill: none; stroke: #888; stroke-width: 1; opacity: 1;"></line><line transform="translate(433,0)" x2="0" y2="5" style="fill: none; stroke: #888; stroke-width: 1; opacity: 1;"></line><line transform="translate(491,0)" x2="0" y2="5" style="fill: none; stroke: #888; stroke-width: 1; opacity: 1;"></line><line transform="translate(549,0)" x2="0" y2="5" style="fill: none; stroke: #888; stroke-width: 1; opacity: 1;"></line><line transform="translate(607,0)" x2="0" y2="5" style="fill: none; stroke: #888; stroke-width: 1; opacity: 1;"></line><line transform="translate(665,0)" x2="0" y2="5" style="fill: none; stroke: #888; stroke-width: 1; opacity: 1;"></line><line transform="translate(723,0)" x2="0" y2="5" style="fill: none; stroke: #888; stroke-width: 1; opacity: 1;"></line><line transform="translate(781,0)" x2="0" y2="5" style="fill: none; stroke: #888; stroke-width: 1; opacity: 1;"></line><line transform="translate(838,0)" x2="0" y2="5" style="fill: none; stroke: #888; stroke-width: 1; opacity: 1;"></line><line transform="translate(896,0)" x2="0" y2="5" style="fill: none; stroke: #888; stroke-width: 1; opacity: 1;"></line><line transform="translate(954,0)" x2="0" y2="5" style="fill: none; stroke: #888; stroke-width: 1; opacity: 1;"></line><line transform="translate(1012,0)" x2="0" y2="5" style="fill: none; stroke: #888; stroke-width: 1; opacity: 1;"></line><line transform="translate(1070,0)" x2="0" y2="5" style="fill: none; stroke: #888; stroke-width: 1; opacity: 1;"></line></g><g class="mark-text role-axis-label" style="pointer-events: none;"><text text-anchor="end" transform="translate(27.947368421052683,7) rotate(270) translate(0,5)" style="font-family: sans-serif; font-size: 16px; fill: #000; opacity: 1;">0001-0559</text><text text-anchor="end" transform="translate(85.84210526315795,7) rotate(270) translate(0,5)" style="font-family: sans-serif; font-size: 16px; fill: #000; opacity: 1;">0600-0659</text><text text-anchor="end" transform="translate(143.7368421052632,7) rotate(270) translate(0,5)" style="font-family: sans-serif; font-size: 16px; fill: #000; opacity: 1;">0700-0759</text><text text-anchor="end" transform="translate(201.63157894736847,7) rotate(270) translate(0,5)" style="font-family: sans-serif; font-size: 16px; fill: #000; opacity: 1;">0800-0859</text><text text-anchor="end" transform="translate(259.5263157894737,7) rotate(270) translate(0,5)" style="font-family: sans-serif; font-size: 16px; fill: #000; opacity: 1;">0900-0959</text><text text-anchor="end" transform="translate(317.42105263157896,7) rotate(270) translate(0,5)" style="font-family: sans-serif; font-size: 16px; fill: #000; opacity: 1;">1000-1059</text><text text-anchor="end" transform="translate(375.3157894736842,7) rotate(270) translate(0,5)" style="font-family: sans-serif; font-size: 16px; fill: #000; opacity: 1;">1100-1159</text><text text-anchor="end" transform="translate(433.2105263157895,7) rotate(270) translate(0,5)" style="font-family: sans-serif; font-size: 16px; fill: #000; opacity: 1;">1200-1259</text><text text-anchor="end" transform="translate(491.10526315789474,7) rotate(270) translate(0,5)" style="font-family: sans-serif; font-size: 16px; fill: #000; opacity: 1;">1300-1359</text><text text-anchor="end" transform="translate(549,7) rotate(270) translate(0,5)" style="font-family: sans-serif; font-size: 16px; fill: #000; opacity: 1;">1400-1459</text><text text-anchor="end" transform="translate(606.8947368421053,7) rotate(270) translate(0,5)" style="font-family: sans-serif; font-size: 16px; fill: #000; opacity: 1;">1500-1559</text><text text-anchor="end" transform="translate(664.7894736842106,7) rotate(270) translate(0,5)" style="font-family: sans-serif; font-size: 16px; fill: #000; opacity: 1;">1600-1659</text><text text-anchor="end" transform="translate(722.6842105263158,7) rotate(270) translate(0,5)" style="font-family: sans-serif; font-size: 16px; fill: #000; opacity: 1;">1700-1759</text><text text-anchor="end" transform="translate(780.578947368421,7) rotate(270) translate(0,5)" style="font-family: sans-serif; font-size: 16px; fill: #000; opacity: 1;">1800-1859</text><text text-anchor="end" transform="translate(838.4736842105264,7) rotate(270) translate(0,5)" style="font-family: sans-serif; font-size: 16px; fill: #000; opacity: 1;">1900-1959</text><text text-anchor="end" transform="translate(896.3684210526317,7) rotate(270) translate(0,5)" style="font-family: sans-serif; font-size: 16px; fill: #000; opacity: 1;">2000-2059</text><text text-anchor="end" transform="translate(954.2631578947369,7) rotate(270) translate(0,5)" style="font-family: sans-serif; font-size: 16px; fill: #000; opacity: 1;">2100-2159</text><text text-anchor="end" transform="translate(1012.1578947368421,7) rotate(270) translate(0,5)" style="font-family: sans-serif; font-size: 16px; fill: #000; opacity: 1;">2200-2259</text><text text-anchor="end" transform="translate(1070.0526315789473,7) rotate(270) translate(0,5)" style="font-family: sans-serif; font-size: 16px; fill: #000; opacity: 1;">2300-2359</text></g><g class="mark-rule role-axis-domain" style="pointer-events: none;"><line transform="translate(0,0)" x2="1100" y2="0" style="fill: none; stroke: #888; stroke-width: 1; opacity: 1;"></line></g><g class="mark-text role-axis-title" style="pointer-events: none;"><text text-anchor="middle" transform="translate(550,99.515625)" style="font-family: sans-serif; font-size: 14px; font-weight: bold; fill: #000; opacity: 1;">Time Block</text></g></g></g></g><g class="mark-group role-axis"><g transform="translate(0.5,0.5)"><path class="background" d="M0,0h0v0h0Z" style="pointer-events: none; fill: none;"></path><g><g class="mark-rule role-axis-tick" style="pointer-events: none;"><line transform="translate(0,450)" x2="-5" y2="0" style="fill: none; stroke: #888; stroke-width: 1; opacity: 1;"></line><line transform="translate(0,413)" x2="-5" y2="0" style="fill: none; stroke: #888; stroke-width: 1; opacity: 1;"></line><line transform="translate(0,375)" x2="-5" y2="0" style="fill: none; stroke: #888; stroke-width: 1; opacity: 1;"></line><line transform="translate(0,338)" x2="-5" y2="0" style="fill: none; stroke: #888; stroke-width: 1; opacity: 1;"></line><line transform="translate(0,300)" x2="-5" y2="0" style="fill: none; stroke: #888; stroke-width: 1; opacity: 1;"></line><line transform="translate(0,263)" x2="-5" y2="0" style="fill: none; stroke: #888; stroke-width: 1; opacity: 1;"></line><line transform="translate(0,225)" x2="-5" y2="0" style="fill: none; stroke: #888; stroke-width: 1; opacity: 1;"></line><line transform="translate(0,188)" x2="-5" y2="0" style="fill: none; stroke: #888; stroke-width: 1; opacity: 1;"></line><line transform="translate(0,150)" x2="-5" y2="0" style="fill: none; stroke: #888; stroke-width: 1; opacity: 1;"></line><line transform="translate(0,113)" x2="-5" y2="0" style="fill: none; stroke: #888; stroke-width: 1; opacity: 1;"></line><line transform="translate(0,75)" x2="-5" y2="0" style="fill: none; stroke: #888; stroke-width: 1; opacity: 1;"></line><line transform="translate(0,37)" x2="-5" y2="0" style="fill: none; stroke: #888; stroke-width: 1; opacity: 1;"></line><line transform="translate(0,0)" x2="-5" y2="0" style="fill: none; stroke: #888; stroke-width: 1; opacity: 1;"></line></g><g class="mark-text role-axis-label" style="pointer-events: none;"><text text-anchor="end" transform="translate(-7,455)" style="font-family: sans-serif; font-size: 16px; fill: #000; opacity: 1;">0.0</text><text text-anchor="end" transform="translate(-7,417.5)" style="font-family: sans-serif; font-size: 16px; fill: #000; opacity: 1;">0.2</text><text text-anchor="end" transform="translate(-7,380)" style="font-family: sans-serif; font-size: 16px; fill: #000; opacity: 1;">0.4</text><text text-anchor="end" transform="translate(-7,342.5)" style="font-family: sans-serif; font-size: 16px; fill: #000; opacity: 1;">0.6</text><text text-anchor="end" transform="translate(-7,305)" style="font-family: sans-serif; font-size: 16px; fill: #000; opacity: 1;">0.8</text><text text-anchor="end" transform="translate(-7,267.5)" style="font-family: sans-serif; font-size: 16px; fill: #000; opacity: 1;">1.0</text><text text-anchor="end" transform="translate(-7,230)" style="font-family: sans-serif; font-size: 16px; fill: #000; opacity: 1;">1.2</text><text text-anchor="end" transform="translate(-7,192.5)" style="font-family: sans-serif; font-size: 16px; fill: #000; opacity: 1;">1.4</text><text text-anchor="end" transform="translate(-7,154.99999999999994)" style="font-family: sans-serif; font-size: 16px; fill: #000; opacity: 1;">1.6</text><text text-anchor="end" transform="translate(-7,117.5)" style="font-family: sans-serif; font-size: 16px; fill: #000; opacity: 1;">1.8</text><text text-anchor="end" transform="translate(-7,80)" style="font-family: sans-serif; font-size: 16px; fill: #000; opacity: 1;">2.0</text><text text-anchor="end" transform="translate(-7,42.49999999999994)" style="font-family: sans-serif; font-size: 16px; fill: #000; opacity: 1;">2.2</text><text text-anchor="end" transform="translate(-7,5)" style="font-family: sans-serif; font-size: 16px; fill: #000; opacity: 1;">2.4</text></g><g class="mark-rule role-axis-domain" style="pointer-events: none;"><line transform="translate(0,450)" x2="0" y2="-450" style="fill: none; stroke: #888; stroke-width: 1; opacity: 1;"></line></g><g class="mark-text role-axis-title" style="pointer-events: none;"><text text-anchor="middle" transform="translate(-34.2421875,225) rotate(-90) translate(0,-3)" style="font-family: sans-serif; font-size: 14px; font-weight: bold; fill: #000; opacity: 1;">Disrupt_Pct</text></g></g></g></g></g></g></g></g></svg>