<svg class="marks" width="1160" height="548" viewBox="0 0 1160 548" version="1.1" xmlns="http://www.w3.org/2000/svg" xmlns:xlink="http://www.w3.org/1999/xlink"><g transform="translate(55,42)"><g class="mark-group role-frame root"><g transform="translate(0,0)"><path class="background" d="M0.5,0.5h1100v450h-1100Z" style="fill: none; stroke: #ddd;"></path><g><g class="mark-group role-axis"><g transform="translate(0.5,0.5)"><path class="background" d="M0,0h0v0h0Z" style="pointer-events: none; fill: none;"></path><g><g class="mark-rule role-axis-grid" style="pointer-events: none;"><line transform="translate(0,450)" x2="1100" y2="0" style="fill: none; stroke: #ddd; stroke-width: 1; opacity: 1;"></line><line transform="translate(0,415)" x2="1100" y2="0" style="fill: none; stroke: #ddd; stroke-width: 1; opacity: 1;"></line><line transform="translate(0,381)" x2="1100" y2="0" style="fill: none; stroke: #ddd; stroke-width: 1; opacity: 1;"></line><line transform="translate(0,346)" x2="1100" y2="0" style="fill: none; stroke: #ddd; stroke-width: 1; opacity: 1;"></line><line transform="translate(0,312)" x2="1100" y2="0" style="fill: none; stroke: #ddd; stroke-width: 1; opacity: 1;"></line><line transform="translate(0,277)" x2="1100" y2="0" style="fill: none; stroke: #ddd; stroke-width: 1; opacity: 1;"></line><line transform="translate(0,242)" x2="1100" y2="0" style="fill: none; stroke: #ddd; stroke-width: 1; opacity: 1;"></line><line transform="translate(0,208)" x2="1100" y2="0" style="fill: none; stroke: #ddd; stroke-width: 1; opacity: 1;"></line><line transform="translate(0,173)" x2="1100" y2="0" style="fill: none; stroke: #ddd; stroke-width: 1; opacity: 1;"></line><line transform="translate(0,138)" x2="1100" y2="0" style="fill: none; stroke: #ddd; stroke-width: 1; opacity: 1;"></line><line transform="translate(0,104)" x2="1100" y2="0" style="fill: none; stroke: #ddd; stroke-width: 1; opacity: 1;"></line><line transform="translate(0,69)" x2="1100" y2="0" style="fill: none; stroke: #ddd; stroke-width: 1; opacity: 1;"></line><line transform="translate(0,35)" x2="1100" y2="0" style="fill: none; stroke: #ddd; stroke-width: 1; opacity: 1;"></line><line transform="translate(0,0)" x2="1100" y2="0" style="fill: none; stroke: #ddd; stroke-width: 1; opacity: 1;"></line></g></g></g></g><g class="mark-rect role-mark marks"><path d="M85.67307692307699,316.76818210993474h19.03846153846154v133.23181789006526h-19.03846153846154Z" style="fill: #54a24b;"></path><path d="M910.673076923077,286.2967259365605h19.03846153846154v163.7032740634395h-19.03846153846154Z" style="fill: #72b7b2;"></path><path d="M254.90384615384622,246.41049941738927h19.03846153846154v203.58950058261073h-19.03846153846154Z" style="fill: #e45756;"></path><path d="M170.2884615384616,328.8805951761897h19.03846153846154v121.11940482381033h-19.03846153846154Z" style="fill: #9d755d;"></path><path d="M149.13461538461544,268.03038785816045h19.03846153846154v181.96961214183955h-19.03846153846154Z" style="fill: #ff9da6;"></path><path d="M677.9807692307693,142.14540603910302h19.03846153846154v307.854593960897h-19.03846153846154Z" style="fill: #e45756;"></path><path d="M106.82692307692315,318.867261097821h19.03846153846154v131.13273890217903h-19.03846153846154Z" style="fill: #eeca3b;"></path><path d="M64.51923076923083,369.3922783270175h19.03846153846154v80.6077216729825h-19.03846153846154Z" style="fill: #72b7b2;"></path><path d="M529.9038461538462,245.98618519645618h19.03846153846154v204.01381480354382h-19.03846153846154Z" style="fill: #eeca3b;"></path><path d="M952.9807692307693,195.35871151636732h19.03846153846154v254.64128848363268h-19.03846153846154Z" style="fill: #eeca3b;"></path><path d="M656.8269230769231,346.24398651333246h19.03846153846154v103.75601348666754h-19.03846153846154Z" style="fill: #f58518;"></path><path d="M424.1346153846155,293.9409379110201h19.03846153846154v156.05906208897989h-19.03846153846154Z" style="fill: #4c78a8;"></path><path d="M1016.4423076923077,380.0641594549776h19.03846153846154v69.93584054502242h-19.03846153846154Z" style="fill: #9d755d;"></path><path d="M360.67307692307696,220.68162693063834h19.03846153846154v229.31837306936166h-19.03846153846154Z" style="fill: #ff9da6;"></path><path d="M445.2884615384616,336.05515283919937h19.03846153846154v113.94484716080063h-19.03846153846154Z" style="fill: #f58518;"></path><path d="M931.8269230769231,387.6687022266348h19.03846153846154v62.33129777336518h-19.03846153846154Z" style="fill: #54a24b;"></path><path d="M466.44230769230774,302.8788668756102h19.03846153846154v147.12113312438981h-19.03846153846154Z" style="fill: #e45756;"></path><path d="M762.5961538461539,235.62380720618793h19.03846153846154v214.37619279381207h-19.03846153846154Z" style="fill: #b279a2;"></path><path d="M614.5192307692308,140.9482824710338h19.03846153846154v309.0517175289662h-19.03846153846154Z" style="fill: #bab0ac;"></path><path d="M191.44230769230776,396.5745736786698h19.03846153846154v53.42542632133018h-19.03846153846154Z" style="fill: #bab0ac;"></path><path d="M381.82692307692315,255.68982867397867h19.03846153846154v194.31017132602133h-19.03846153846154Z" style="fill: #9d755d;"></path><path d="M868.3653846153846,281.31763208147675h19.03846153846154v168.68236791852325h-19.03846153846154Z" style="fill: #f58518;"></path><path d="M699.1346153846155,235.1079456712103h19.03846153846154v214.8920543287897h-19.03846153846154Z" style="fill: #72b7b2;"></path><path d="M339.51923076923083,275.87867079875525h19.03846153846154v174.12132920124475h-19.03846153846154Z" style="fill: #b279a2;"></path><path d="M741.4423076923077,343.89807713509526h19.03846153846154v106.10192286490474h-19.03846153846154Z" style="fill: #eeca3b;"></path><path d="M1037.5961538461538,251.84150737115428h19.03846153846154v198.15849262884572h-19.03846153846154Z" style="fill: #bab0ac;"></path><path d="M318.3653846153847,234.28159028777756h19.03846153846154v215.71840971222244h-19.03846153846154Z" style="fill: #eeca3b;"></path><path d="M720.2884615384615,300.77818426690783h19.03846153846154v149.22181573309217h-19.03846153846154Z" style="fill: #54a24b;"></path><path d="M276.0576923076924,265.35433907343867h19.03846153846154v184.64566092656133h-19.03846153846154Z" style="fill: #72b7b2;"></path><path d="M826.0576923076924,170.31436218928746h19.03846153846154v279.68563781071254h-19.03846153846154Z" style="fill: #bab0ac;"></path><path d="M1.0576923076923777,327.8604746427931h19.03846153846154v122.13952535720688h-19.03846153846154Z" style="fill: #4c78a8;"></path><path d="M22.21153846153853,242.75133398338414h19.03846153846154v207.24866601661586h-19.03846153846154Z" style="fill: #f58518;"></path><path d="M635.673076923077,327.2442719487846h19.03846153846154v122.75572805121539h-19.03846153846154Z" style="fill: #4c78a8;"></path><path d="M43.365384615384684,258.93302360175574h19.03846153846154v191.06697639824426h-19.03846153846154Z" style="fill: #e45756;"></path><path d="M572.2115384615386,275.66012365789743h19.03846153846154v174.33987634210257h-19.03846153846154Z" style="fill: #ff9da6;"></path><path d="M783.75,214.1695105161404h19.03846153846154v235.8304894838596h-19.03846153846154Z" style="fill: #ff9da6;"></path><path d="M127.9807692307693,237.31133592410882h19.03846153846154v212.68866407589118h-19.03846153846154Z" style="fill: #b279a2;"></path><path d="M212.59615384615392,237.12027840208802h19.03846153846154v212.87972159791198h-19.03846153846154Z" style="fill: #4c78a8;"></path><path d="M233.75000000000006,305.4958332266642h19.03846153846154v144.50416677333578h-19.03846153846154Z" style="fill: #f58518;"></path><path d="M551.0576923076924,193.21056827411928h19.03846153846154v256.7894317258807h-19.03846153846154Z" style="fill: #b279a2;"></path><path d="M297.2115384615385,242.36898559607724h19.03846153846154v207.63101440392276h-19.03846153846154Z" style="fill: #54a24b;"></path><path d="M508.75000000000006,333.30895223277327h19.03846153846154v116.69104776722673h-19.03846153846154Z" style="fill: #54a24b;"></path><path d="M487.5961538461539,213.17754805235643h19.03846153846154v236.82245194764357h-19.03846153846154Z" style="fill: #72b7b2;"></path><path d="M804.9038461538462,189.62632056784418h19.03846153846154v260.3736794321558h-19.03846153846154Z" style="fill: #9d755d;"></path><path d="M847.2115384615386,231.12778842986376h19.03846153846154v218.87221157013624h-19.03846153846154Z" style="fill: #4c78a8;"></path><path d="M1079.9038461538462,251.14656785829064h19.03846153846154v198.85343214170936h-19.03846153846154Z" style="fill: #f58518;"></path><path d="M593.3653846153846,183.1028408285581h19.03846153846154v266.8971591714419h-19.03846153846154Z" style="fill: #9d755d;"></path><path d="M402.9807692307693,25.51730553059025h19.03846153846154v424.48269446940975h-19.03846153846154Z" style="fill: #bab0ac;"></path><path d="M995.2884615384615,10.097018435347138h19.03846153846154v439.90298156465286h-19.03846153846154Z" style="fill: #ff9da6;"></path><path d="M974.1346153846155,169.95874947928843h19.03846153846154v280.04125052071157h-19.03846153846154Z" style="fill: #b279a2;"></path><path d="M1058.75,106.9230769230769h19.03846153846154v343.0769230769231h-19.03846153846154Z" style="fill: #4c78a8;"></path><path d="M889.5192307692308,239.82211030785479h19.03846153846154v210.17788969214521h-19.03846153846154Z" style="fill: #e45756;"></path></g><g class="mark-text role-title" style="pointer-events: none;"><text text-anchor="middle" transform="translate(525,-17)" style="font-family: sans-serif; font-size: 24px; font-weight: bold; fill: #000; opacity: 1;">Disruption Cost per Customer by Origin State</text></g><g class="mark-group role-axis"><g transform="translate(0.5,450.5)"><path class="background" d="M0,0h0v0h0Z" style="pointer-events: none; fill: none;"></path><g><g class="mark-rule role-axis-tick" style="pointer-events: none;"><line transform="translate(10,0)" x2="0" y2="5" style="fill: none; stroke: #888; stroke-width: 1; opacity: 1;"></line><line transform="translate(31,0)" x2="0" y2="5" style="fill: none; stroke: #888; stroke-width: 1; opacity: 1;"></line><line transform="translate(52,0)" x2="0" y2="5" style="fill: none; stroke: #888; stroke-width: 1; opacity: 1;"></line><line transform="translate(73,0)" x2="0" y2="5" style="fill: none; stroke: #888; stroke-width: 1; opacity: 1;"></line><line transform="translate(94,0)" x2="0" y2="5" style="fill: none; stroke: #888; stroke-width: 1; opacity: 1;"></line><line transform="translate(115,0)" x2="0" y2="5" style="fill: none; stroke: #888; stroke-width: 1; opacity: 1;"></line><line transform="translate(137,0)" x2="0" y2="5" style="fill: none; stroke: #888; stroke-width: 1; opacity: 1;"></line><line transform="translate(158,0)" x2="0" y2="5" style="fill: none; stroke: #888; stroke-width: 1; opacity: 1;"></line><line transform="translate(179,0)" x2="0" y2="5" style="fill: none; stroke: #888; stroke-width: 1; opacity: 1;"></line><line transform="translate(200,0)" x2="0" y2="5" style="fill: none; stroke: #888; stroke-width: 1; opacity: 1;"></line><line transform="translate(221,0)" x2="0" y2="5" style="fill: none; stroke: #888; stroke-width: 1; opacity: 1;"></line><line transform="translate(242,0)" x2="0" y2="5" style="fill: none; stroke: #888; stroke-width: 1; opacity: 1;"></line><line transform="translate(263,0)" x2="0" y2="5" style="fill: none; stroke: #888; stroke-width: 1; opacity: 1;"></line><line transform="translate(285,0)" x2="0" y2="5" style="fill: none; stroke: #888; stroke-width: 1; opacity: 1;"></line><line transform="translate(306,0)" x2="0" y2="5" style="fill: none; stroke: #888; stroke-width: 1; opacity: 1;"></line><line transform="translate(327,0)" x2="0" y2="5" style="fill: none; stroke: #888; stroke-width: 1; opacity: 1;"></line><line transform="translate(348,0)" x2="0" y2="5" style="fill: none; stroke: #888; stroke-width: 1; opacity: 1;"></line><line transform="translate(369,0)" x2="0" y2="5" style="fill: none; stroke: #888; stroke-width: 1; opacity: 1;"></line><line transform="translate(390,0)" x2="0" y2="5" style="fill: none; stroke: #888; stroke-width: 1; opacity: 1;"></line><line transform="translate(412,0)" x2="0" y2="5" style="fill: none; stroke: #888; stroke-width: 1; opacity: 1;"></line><line transform="translate(433,0)" x2="0" y2="5" style="fill: none; stroke: #888; stroke-width: 1; opacity: 1;"></line><line transform="translate(454,0)" x2="0" y2="5" style="fill: none; stroke: #888; stroke-width: 1; opacity: 1;"></line><line transform="translate(475,0)" x2="0" y2="5" style="fill: none; stroke: #888; stroke-width: 1; opacity: 1;"></line><line transform="translate(496,0)" x2="0" y2="5" style="fill: none; stroke: #888; stroke-width: 1; opacity: 1;"></line><line transform="translate(517,0)" x2="0" y2="5" style="fill: none; stroke: #888; stroke-width: 1; opacity: 1;"></line><line transform="translate(538,0)" x2="0" y2="5" style="fill: none; stroke: #888; stroke-width: 1; opacity: 1;"></line><line transform="translate(560,0)" x2="0" y2="5" style="fill: none; stroke: #888; stroke-width: 1; opacity: 1;"></line><line transform="translate(581,0)" x2="0" y2="5" style="fill: none; stroke: #888; stroke-width: 1; opacity: 1;"></line><line transform="translate(602,0)" x2="0" y2="5" style="fill: none; stroke: #888; stroke-width: 1; opacity: 1;"></line><line transform="translate(623,0)" x2="0" y2="5" style="fill: none; stroke: #888; stroke-width: 1; opacity: 1;"></line><line transform="translate(644,0)" x2="0" y2="5" style="fill: none; stroke: #888; stroke-width: 1; opacity: 1;"></line><line transform="translate(665,0)" x2="0" y2="5" style="fill: none; stroke: #888; stroke-width: 1; opacity: 1;"></line><line transform="translate(687,0)" x2="0" y2="5" style="fill: none; stroke: #888; stroke-width: 1; opacity: 1;"></line><line transform="translate(708,0)" x2="0" y2="5" style="fill: none; stroke: #888; stroke-width: 1; opacity: 1;"></line><line transform="translate(729,0)" x2="0" y2="5" style="fill: none; stroke: #888; stroke-width: 1; opacity: 1;"></line><line transform="translate(750,0)" x2="0" y2="5" style="fill: none; stroke: #888; stroke-width: 1; opacity: 1;"></line><line transform="translate(771,0)" x2="0" y2="5" style="fill: none; stroke: #888; stroke-width: 1; opacity: 1;"></line><line transform="translate(792,0)" x2="0" y2="5" style="fill: none; stroke: #888; stroke-width: 1; opacity: 1;"></line><line transform="translate(813,0)" x2="0" y2="5" style="fill: none; stroke: #888; stroke-width: 1; opacity: 1;"></line><line transform="translate(835,0)" x2="0" y2="5" style="fill: none; stroke: #888; stroke-width: 1; opacity: 1;"></line><line transform="translate(856,0)" x2="0" y2="5" style="fill: none; stroke: #888; stroke-width: 1; opacity: 1;"></line><line transform="translate(877,0)" x2="0" y2="5" style="fill: none; stroke: #888; stroke-width: 1; opacity: 1;"></line><line transform="translate(898,0)" x2="0" y2="5" style="fill: none; stroke: #888; stroke-width: 1; opacity: 1;"></line><line transform="translate(919,0)" x2="0" y2="5" style="fill: none; stroke: #888; stroke-width: 1; opacity: 1;"></line><line transform="translate(940,0)" x2="0" y2="5" style="fill: none; stroke: #888; stroke-width: 1; opacity: 1;"></line><line transform="translate(962,0)" x2="0" y2="5" style="fill: none; stroke: #888; stroke-width: 1; opacity: 1;"></line><line transform="translate(983,0)" x2="0" y2="5" style="fill: none; stroke: #888; stroke-width: 1; opacity: 1;"></line><line transform="translate(1004,0)" x2="0" y2="5" style="fill: none; stroke: #888; stroke-width: 1; opacity: 1;"></line><line transform="translate(1025,0)" x2="0" y2="5" style="fill: none; stroke: #888; stroke-width: 1; opacity: 1;"></line><line transform="translate(1046,0)" x2="0" y2="5" style="fill: none; stroke: #888; stroke-width: 1; opacity: 1;"></line><line transform="translate(1067,0)" x2="0" y2="5" style="fill: none; stroke: #888; stroke-width: 1; opacity: 1;"></line><line transform="translate(1088,0)" x2="0" y2="5" style="fill: none; stroke: #888; stroke-width: 1; opacity: 1;"></line></g><g class="mark-text role-axis-label" style="pointer-events: none;"><text text-anchor="end" transform="translate(9.576923076923148,7) rotate(270) translate(0,4)" style="font-family: sans-serif; font-size: 14px; fill: #000; opacity: 1;">AK</text><text text-anchor="end" transform="translate(30.7307692307693,7) rotate(270) translate(0,4)" style="font-family: sans-serif; font-size: 14px; fill: #000; opacity: 1;">AL</text><text text-anchor="end" transform="translate(51.88461538461546,7) rotate(270) translate(0,4)" style="font-family: sans-serif; font-size: 14px; fill: #000; opacity: 1;">AR</text><text text-anchor="end" transform="translate(73.0384615384616,7) rotate(270) translate(0,4)" style="font-family: sans-serif; font-size: 14px; fill: #000; opacity: 1;">AZ</text><text text-anchor="end" transform="translate(94.19230769230776,7) rotate(270) translate(0,4)" style="font-family: sans-serif; font-size: 14px; fill: #000; opacity: 1;">CA</text><text text-anchor="end" transform="translate(115.34615384615392,7) rotate(270) translate(0,4)" style="font-family: sans-serif; font-size: 14px; fill: #000; opacity: 1;">CO</text><text text-anchor="end" transform="translate(136.50000000000006,7) rotate(270) translate(0,4)" style="font-family: sans-serif; font-size: 14px; fill: #000; opacity: 1;">CT</text><text text-anchor="end" transform="translate(157.65384615384622,7) rotate(270) translate(0,4)" style="font-family: sans-serif; font-size: 14px; fill: #000; opacity: 1;">FL</text><text text-anchor="end" transform="translate(178.80769230769238,7) rotate(270) translate(0,4)" style="font-family: sans-serif; font-size: 14px; fill: #000; opacity: 1;">GA</text><text text-anchor="end" transform="translate(199.96153846153854,7) rotate(270) translate(0,4)" style="font-family: sans-serif; font-size: 14px; fill: #000; opacity: 1;">HI</text><text text-anchor="end" transform="translate(221.1153846153847,7) rotate(270) translate(0,4)" style="font-family: sans-serif; font-size: 14px; fill: #000; opacity: 1;">IA</text><text text-anchor="end" transform="translate(242.26923076923083,7) rotate(270) translate(0,4)" style="font-family: sans-serif; font-size: 14px; fill: #000; opacity: 1;">ID</text><text text-anchor="end" transform="translate(263.42307692307696,7) rotate(270) translate(0,4)" style="font-family: sans-serif; font-size: 14px; fill: #000; opacity: 1;">IL</text><text text-anchor="end" transform="translate(284.57692307692315,7) rotate(270) translate(0,4)" style="font-family: sans-serif; font-size: 14px; fill: #000; opacity: 1;">IN</text><text text-anchor="end" transform="translate(305.7307692307693,7) rotate(270) translate(0,4)" style="font-family: sans-serif; font-size: 14px; fill: #000; opacity: 1;">KS</text><text text-anchor="end" transform="translate(326.8846153846155,7) rotate(270) translate(0,4)" style="font-family: sans-serif; font-size: 14px; fill: #000; opacity: 1;">KY</text><text text-anchor="end" transform="translate(348.0384615384616,7) rotate(270) translate(0,4)" style="font-family: sans-serif; font-size: 14px; fill: #000; opacity: 1;">LA</text><text text-anchor="end" transform="translate(369.19230769230774,7) rotate(270) translate(0,4)" style="font-family: sans-serif; font-size: 14px; fill: #000; opacity: 1;">MA</text><text text-anchor="end" transform="translate(390.3461538461539,7) rotate(270) translate(0,4)" style="font-family: sans-serif; font-size: 14px; fill: #000; opacity: 1;">MD</text><text text-anchor="end" transform="translate(411.50000000000006,7) rotate(270) translate(0,4)" style="font-family: sans-serif; font-size: 14px; fill: #000; opacity: 1;">ME</text><text text-anchor="end" transform="translate(432.65384615384625,7) rotate(270) translate(0,4)" style="font-family: sans-serif; font-size: 14px; fill: #000; opacity: 1;">MI</text><text text-anchor="end" transform="translate(453.8076923076924,7) rotate(270) translate(0,4)" style="font-family: sans-serif; font-size: 14px; fill: #000; opacity: 1;">MN</text><text text-anchor="end" transform="translate(474.9615384615385,7) rotate(270) translate(0,4)" style="font-family: sans-serif; font-size: 14px; fill: #000; opacity: 1;">MO</text><text text-anchor="end" transform="translate(496.1153846153847,7) rotate(270) translate(0,4)" style="font-family: sans-serif; font-size: 14px; fill: #000; opacity: 1;">MS</text><text text-anchor="end" transform="translate(517.2692307692308,7) rotate(270) translate(0,4)" style="font-family: sans-serif; font-size: 14px; fill: #000; opacity: 1;">MT</text><text text-anchor="end" transform="translate(538.4230769230769,7) rotate(270) translate(0,4)" style="font-family: sans-serif; font-size: 14px; fill: #000; opacity: 1;">NC</text><text text-anchor="end" transform="translate(559.5769230769231,7) rotate(270) translate(0,4)" style="font-family: sans-serif; font-size: 14px; fill: #000; opacity: 1;">ND</text><text text-anchor="end" transform="translate(580.7307692307693,7) rotate(270) translate(0,4)" style="font-family: sans-serif; font-size: 14px; fill: #000; opacity: 1;">NE</text><text text-anchor="end" transform="translate(601.8846153846154,7) rotate(270) translate(0,4)" style="font-family: sans-serif; font-size: 14px; fill: #000; opacity: 1;">NH</text><text text-anchor="end" transform="translate(623.0384615384615,7) rotate(270) translate(0,4)" style="font-family: sans-serif; font-size: 14px; fill: #000; opacity: 1;">NJ</text><text text-anchor="end" transform="translate(644.1923076923077,7) rotate(270) translate(0,4)" style="font-family: sans-serif; font-size: 14px; fill: #000; opacity: 1;">NM</text><text text-anchor="end" transform="translate(665.3461538461538,7) rotate(270) translate(0,4)" style="font-family: sans-serif; font-size: 14px; fill: #000; opacity: 1;">NV</text><text text-anchor="end" transform="translate(686.5,7) rotate(270) translate(0,4)" style="font-family: sans-serif; font-size: 14px; fill: #000; opacity: 1;">NY</text><text text-anchor="end" transform="translate(707.6538461538462,7) rotate(270) translate(0,4)" style="font-family: sans-serif; font-size: 14px; fill: #000; opacity: 1;">OH</text><text text-anchor="end" transform="translate(728.8076923076923,7) rotate(270) translate(0,4)" style="font-family: sans-serif; font-size: 14px; fill: #000; opacity: 1;">OK</text><text text-anchor="end" transform="translate(749.9615384615385,7) rotate(270) translate(0,4)" style="font-family: sans-serif; font-size: 14px; fill: #000; opacity: 1;">OR</text><text text-anchor="end" transform="translate(771.1153846153846,7) rotate(270) translate(0,4)" style="font-family: sans-serif; font-size: 14px; fill: #000; opacity: 1;">PA</text><text text-anchor="end" transform="translate(792.2692307692307,7) rotate(270) translate(0,4)" style="font-family: sans-serif; font-size: 14px; fill: #000; opacity: 1;">PR</text><text text-anchor="end" transform="translate(813.4230769230769,7) rotate(270) translate(0,4)" style="font-family: sans-serif; font-size: 14px; fill: #000; opacity: 1;">RI</text><text text-anchor="end" transform="translate(834.5769230769231,7) rotate(270) translate(0,4)" style="font-family: sans-serif; font-size: 14px; fill: #000; opacity: 1;">SC</text><text text-anchor="end" transform="translate(855.7307692307693,7) rotate(270) translate(0,4)" style="font-family: sans-serif; font-size: 14px; fill: #000; opacity: 1;">SD</text><text text-anchor="end" transform="translate(876.8846153846154,7) rotate(270) translate(0,4)" style="font-family: sans-serif; font-size: 14px; fill: #000; opacity: 1;">TN</text><text text-anchor="end" transform="translate(898.0384615384615,7) rotate(270) translate(0,4)" style="font-family: sans-serif; font-size: 14px; fill: #000; opacity: 1;">TT</text><text text-anchor="end" transform="translate(919.1923076923077,7) rotate(270) translate(0,4)" style="font-family: sans-serif; font-size: 14px; fill: #000; opacity: 1;">TX</text><text text-anchor="end" transform="translate(940.3461538461538,7) rotate(270) translate(0,4)" style="font-family: sans-serif; font-size: 14px; fill: #000; opacity: 1;">UT</text><text text-anchor="end" transform="translate(961.5,7) rotate(270) translate(0,4)" style="font-family: sans-serif; font-size: 14px; fill: #000; opacity: 1;">VA</text><text text-anchor="end" transform="translate(982.6538461538462,7) rotate(270) translate(0,4)" style="font-family: sans-serif; font-size: 14px; fill: #000; opacity: 1;">VI</text><text text-anchor="end" transform="translate(1003.8076923076923,7) rotate(270) translate(0,4)" style="font-family: sans-serif; font-size: 14px; fill: #000; opacity: 1;">VT</text><text text-anchor="end" transform="translate(1024.9615384615386,7) rotate(270) translate(0,4)" style="font-family: sans-serif; font-size: 14px; fill: #000; opacity: 1;">WA</text><text text-anchor="end" transform="translate(1046.1153846153845,7) rotate(270) translate(0,4)" style="font-family: sans-serif; font-size: 14px; fill: #000; opacity: 1;">WI</text><text text-anchor="end" transform="translate(1067.2692307692307,7) rotate(270) translate(0,4)" style="font-family: sans-serif; font-size: 14px; fill: #000; opacity: 1;">WV</text><text text-anchor="end" transform="translate(1088.423076923077,7) rotate(270) translate(0,4)" style="font-family: sans-serif; font-size: 14px; fill: #000; opacity: 1;">WY</text></g><g class="mark-rule role-axis-domain" style="pointer-events: none;"><line transform="translate(0,0)" x2="1100" y2="0" style="fill: none; stroke: #888; stroke-width: 1; opacity: 1;"></line></g><g class="mark-text role-axis-title" style="pointer-events: none;"><text text-anchor="middle" transform="translate(550,45.5517578125)" style="font-family: sans-serif; font-size: 14px; font-weight: bold; fill: #000; opacity: 1;">State</text></g></g></g></g><g class="mark-group role-axis"><g transform="translate(0.5,0.5)"><path class="background" d="M0,0h0v0h0Z" style="pointer-events: none; fill: none;"></path><g><g class="mark-rule role-axis-tick" style="pointer-events: none;"><line transform="translate(0,450)" x2="-5" y2="0" style="fill: none; stroke: #888; stroke-width: 1; opacity: 1;"></line><line transform="translate(0,415)" x2="-5" y2="0" style="fill: none; stroke: #888; stroke-width: 1; opacity: 1;"></line><line transform="translate(0,381)" x2="-5" y2="0" style="fill: none; stroke: #888; stroke-width: 1; opacity: 1;"></line><line transform="translate(0,346)" x2="-5" y2="0" style="fill: none; stroke: #888; stroke-width: 1; opacity: 1;"></line><line transform="translate(0,312)" x2="-5" y2="0" style="fill: none; stroke: #888; stroke-width: 1; opacity: 1;"></line><line transform="translate(0,277)" x2="-5" y2="0" style="fill: none; stroke: #888; stroke-width: 1; opacity: 1;"></line><line transform="translate(0,242)" x2="-5" y2="0" style="fill: none; stroke: #888; stroke-width: 1; opacity: 1;"></line><line transform="translate(0,208)" x2="-5" y2="0" style="fill: none; stroke: #888; stroke-width: 1; opacity: 1;"></line><line transform="translate(0,173)" x2="-5" y2="0" style="fill: none; stroke: #888; stroke-width: 1; opacity: 1;"></line><line transform="translate(0,138)" x2="-5" y2="0" style="fill: none; stroke: #888; stroke-width: 1; opacity: 1;"></line><line transform="translate(0,104)" x2="-5" y2="0" style="fill: none; stroke: #888; stroke-width: 1; opacity: 1;"></line><line transform="translate(0,69)" x2="-5" y2="0" style="fill: none; stroke: #888; stroke-width: 1; opacity: 1;"></line><line transform="translate(0,35)" x2="-5" y2="0" style="fill: none; stroke: #888; stroke-width: 1; opacity: 1;"></line><line transform="translate(0,0)" x2="-5" y2="0" style="fill: none; stroke: #888; stroke-width: 1; opacity: 1;"></line></g><g class="mark-text role-axis-label" style="pointer-events: none;"><text text-anchor="end" transform="translate(-7,454)" style="font-family: sans-serif; font-size: 14px; fill: #000; opacity: 1;">0</text><text text-anchor="end" transform="translate(-7,419.38461538461536)" style="font-family: sans-serif; font-size: 14px; fill: #000; opacity: 1;">2</text><text text-anchor="end" transform="translate(-7,384.7692307692308)" style="font-family: sans-serif; font-size: 14px; fill: #000; opacity: 1;">4</text><text text-anchor="end" transform="translate(-7,350.15384615384613)" style="font-family: sans-serif; font-size: 14px; fill: #000; opacity: 1;">6</text><text text-anchor="end" transform="translate(-7,315.53846153846155)" style="font-family: sans-serif; font-size: 14px; fill: #000; opacity: 1;">8</text><text text-anchor="end" transform="translate(-7,280.9230769230769)" style="font-family: sans-serif; font-size: 14px; fill: #000; opacity: 1;">10</text><text text-anchor="end" transform="translate(-7,246.3076923076923)" style="font-family: sans-serif; font-size: 14px; fill: #000; opacity: 1;">12</text><text text-anchor="end" transform="translate(-7,211.6923076923077)" style="font-family: sans-serif; font-size: 14px; fill: #000; opacity: 1;">14</text><text text-anchor="end" transform="translate(-7,177.07692307692304)" style="font-family: sans-serif; font-size: 14px; fill: #000; opacity: 1;">16</text><text text-anchor="end" transform="translate(-7,142.46153846153845)" style="font-family: sans-serif; font-size: 14px; fill: #000; opacity: 1;">18</text><text text-anchor="end" transform="translate(-7,107.84615384615381)" style="font-family: sans-serif; font-size: 14px; fill: #000; opacity: 1;">20</text><text text-anchor="end" transform="translate(-7,73.23076923076923)" style="font-family: sans-serif; font-size: 14px; fill: #000; opacity: 1;">22</text><text text-anchor="end" transform="translate(-7,38.615384615384585)" style="font-family: sans-serif; font-size: 14px; fill: #000; opacity: 1;">24</text><text text-anchor="end" transform="translate(-7,4)" style="font-family: sans-serif; font-size: 14px; fill: #000; opacity: 1;">26</text></g><g class="mark-rule role-axis-domain" style="pointer-events: none;"><line transform="translate(0,450)" x2="0" y2="-450" style="fill: none; stroke: #888; stroke-width: 1; opacity: 1;"></line></g><g class="mark-text role-axis-title" style="pointer-events: none;"><text text-anchor="middle" transform="translate(-34,225) rotate(-90) translate(0,-3)" style="font-family: sans-serif; font-size: 14px; font-weight: bold; fill: #000; opacity: 1;">Avg_Total_Cost</text></g></g></g></g></g></g></g></g></svg>