<svg class="marks" width="1161" height="603" viewBox="0 0 1161 603" version="1.1" xmlns="http://www.w3.org/2000/svg" xmlns:xlink="http://www.w3.org/1999/xlink"><g transform="translate(56,43)"><g class="mark-group role-frame root"><g transform="translate(0,0)"><path class="background" d="M0.5,0.5h1100v450h-1100Z" style="fill: none; stroke: #ddd;"></path><g><g class="mark-group role-axis"><g transform="translate(0.5,0.5)"><path class="background" d="M0,0h0v0h0Z" style="pointer-events: none; fill: none;"></path><g><g class="mark-rule role-axis-grid" style="pointer-events: none;"><line transform="translate(0,450)" x2="1100" y2="0" style="fill: none; stroke: #ddd; stroke-width: 1; opacity: 1;"></line><line transform="translate(0,415)" x2="1100" y2="0" style="fill: none; stroke: #ddd; stroke-width: 1; opacity: 1;"></line><line transform="translate(0,381)" x2="1100" y2="0" style="fill: none; stroke: #ddd; stroke-width: 1; opacity: 1;"></line><line transform="translate(0,346)" x2="1100" y2="0" style="fill: none; stroke: #ddd; stroke-width: 1; opacity: 1;"></line><line transform="translate(0,312)" x2="1100" y2="0" style="fill: none; stroke: #ddd; stroke-width: 1; opacity: 1;"></line><line transform="translate(0,277)" x2="1100" y2="0" style="fill: none; stroke: #ddd; stroke-width: 1; opacity: 1;"></line><line transform="translate(0,242)" x2="1100" y2="0" style="fill: none; stroke: #ddd; stroke-width: 1; opacity: 1;"></line><line transform="translate(0,208)" x2="1100" y2="0" style="fill: none; stroke: #ddd; stroke-width: 1; opacity: 1;"></line><line transform="translate(0,173)" x2="1100" y2="0" style="fill: none; stroke: #ddd; stroke-width: 1; opacity: 1;"></line><line transform="translate(0,138)" x2="1100" y2="0" style="fill: none; stroke: #ddd; stroke-width: 1; opacity: 1;"></line><line transform="translate(0,104)" x2="1100" y2="0" style="fill: none; stroke: #ddd; stroke-width: 1; opacity: 1;"></line><line transform="translate(0,69)" x2="1100" y2="0" style="fill: none; stroke: #ddd; stroke-width: 1; opacity: 1;"></line><line transform="translate(0,35)" x2="1100" y2="0" style="fill: none; stroke: #ddd; stroke-width: 1; opacity: 1;"></line><line transform="translate(0,0)" x2="1100" y2="0" style="fill: none; stroke: #ddd; stroke-width: 1; opacity: 1;"></line></g></g></g></g><g class="mark-rect role-mark marks"><path d="M2.894736842105317,68.62510085262676h52.10526315789473v381.37489914737324h-52.10526315789473Z" style="fill: #4c78a8;"></path><path d="M60.78947368421058,114.46709367980088h52.10526315789473v335.5329063201991h-52.10526315789473Z" style="fill: #f58518;"></path><path d="M118.68421052631584,161.71054913112323h52.10526315789473v288.28945086887677h-52.10526315789473Z" style="fill: #e45756;"></path><path d="M176.5789473684211,173.31509650923306h52.10526315789473v276.68490349076694h-52.10526315789473Z" style="fill: #72b7b2;"></path><path d="M234.47368421052636,187.5686652529928h52.10526315789473v262.4313347470072h-52.10526315789473Z" style="fill: #54a24b;"></path><path d="M292.3684210526316,186.54349026117148h52.10526315789473v263.4565097388285h-52.10526315789473Z" style="fill: #eeca3b;"></path><path d="M350.2631578947369,171.9082990593385h52.10526315789473v278.0917009406615h-52.10526315789473Z" style="fill: #b279a2;"></path><path d="M408.15789473684214,150.66452087206727h52.10526315789473v299.33547912793273h-52.10526315789473Z" style="fill: #ff9da6;"></path><path d="M466.0526315789474,141.90793126058668h52.10526315789473v308.0920687394133h-52.10526315789473Z" style="fill: #9d755d;"></path><path d="M523.9473684210526,110.2013218560628h52.10526315789473v339.7986781439372h-52.10526315789473Z" style="fill: #bab0ac;"></path><path d="M581.8421052631579,95.62934120625044h52.10526315789473v354.37065879374956h-52.10526315789473Z" style="fill: #4c78a8;"></path><path d="M639.7368421052632,69.63892718267851h52.10526315789473v380.3610728173215h-52.10526315789473Z" style="fill: #f58518;"></path><path d="M697.6315789473684,36.93375133809997h52.10526315789473v413.06624866190003h-52.10526315789473Z" style="fill: #e45756;"></path><path d="M755.5263157894736,12.645706370761957h52.10526315789473v437.35429362923804h-52.10526315789473Z" style="fill: #72b7b2;"></path><path d="M813.421052631579,35.61888793891205h52.10526315789473v414.38111206108795h-52.10526315789473Z" style="fill: #54a24b;"></path><path d="M871.3157894736843,50.34325218559155h52.10526315789473v399.65674781440845h-52.10526315789473Z" style="fill: #eeca3b;"></path><path d="M929.2105263157895,56.64830396558881h52.10526315789473v393.3516960344112h-52.10526315789473Z" style="fill: #b279a2;"></path><path d="M987.1052631578947,91.12893513108475h52.10526315789473v358.87106486891525h-52.10526315789473Z" style="fill: #ff9da6;"></path><path d="M1045,174.20040258277658h52.10526315789473v275.7995974172234h-52.10526315789473Z" style="fill: #9d755d;"></path></g><g class="mark-text role-title" style="pointer-events: none;"><text text-anchor="middle" transform="translate(524.87890625,-18)" style="font-family: sans-serif; font-size: 24px; font-weight: bold; fill: #000; opacity: 1;">Disruption % by Take-Off Time Block</text></g><g class="mark-group role-axis"><g transform="translate(0.5,450.5)"><path class="background" d="M0,0h0v0h0Z" style="pointer-events: none; fill: none;"></path><g><g class="mark-rule role-axis-tick" style="pointer-events: none;"><line transform="translate(28,0)" x2="0" y2="5" style="fill: none; stroke: #888; stroke-width: 1; opacity: 1;"></line><line transform="translate(86,0)" x2="0" y2="5" style="fill: none; stroke: #888; stroke-width: 1; opacity: 1;"></line><line transform="translate(144,0)" x2="0" y2="5" style="fill: none; stroke: #888; stroke-width: 1; opacity: 1;"></line><line transform="translate(202,0)" x2="0" y2="5" style="fill: none; stroke: #888; stroke-width: 1; opacity: 1;"></line><line transform="translate(260,0)" x2="0" y2="5" style="fill: none; stroke: #888; stroke-width: 1; opacity: 1;"></line><line transform="translate(317,0)" x2="0" y2="5" style="fill: none; stroke: #888; stroke-width: 1; opacity: 1;"></line><line transform="translate(375,0)" x2="0" y2="5" style="fill: none; stroke: #888; stroke-width: 1; opacity: 1;"></line><line transform="translate(433,0)" x2="0" y2="5" style="fill: none; stroke: #888; stroke-width: 1; opacity: 1;"></line><line transform="translate(491,0)" x2="0" y2="5" style="fill: none; stroke: #888; stroke-width: 1; opacity: 1;"></line><line transform="translate(549,0)" x2="0" y2="5" style="fill: none; stroke: #888; stroke-width: 1; opacity: 1;"></line><line transform="translate(607,0)" x2="0" y2="5" style="fill: none; stroke: #888; stroke-width: 1; opacity: 1;"></line><line transform="translate(665,0)" x2="0" y2="5" style="fill: none; stroke: #888; stroke-width: 1; opacity: 1;"></line><line transform="translate(723,0)" x2="0" y2="5" style="fill: none; stroke: #888; stroke-width: 1; opacity: 1;"></line><line transform="translate(781,0)" x2="0" y2="5" style="fill: none; stroke: #888; stroke-width: 1; opacity: 1;"></line><line transform="translate(838,0)" x2="0" y2="5" style="fill: none; stroke: #888; stroke-width: 1; opacity: 1;"></line><line transform="translate(896,0)" x2="0" y2="5" style="fill: none; stroke: #888; stroke-width: 1; opacity: 1;"></line><line transform="translate(954,0)" x2="0" y2="5" style="fill: none; stroke: #888; stroke-width: 1; opacity: 1;"></line><line transform="translate(1012,0)" x2="0" y2="5" style="fill: none; stroke: #888; stroke-width: 1; opacity: 1;"></line><line transform="translate(1070,0)" x2="0" y2="5" style="fill: none; stroke: #888; stroke-width: 1; opacity: 1;"></line></g><g class="mark-text role-axis-label" style="pointer-events: none;"><text text-anchor="end" transform="translate(27.947368421052683,7) rotate(270) translate(0,5)" style="font-family: sans-serif; font-size: 16px; fill: #000; opacity: 1;">0001-0559</text><text text-anchor="end" transform="translate(85.84210526315795,7) rotate(270) translate(0,5)" style="font-family: sans-serif; font-size: 16px; fill: #000; opacity: 1;">0600-0659</text><text text-anchor="end" transform="translate(143.7368421052632,7) rotate(270) translate(0,5)" style="font-family: sans-serif; font-size: 16px; fill: #000; opacity: 1;">0700-0759</text><text text-anchor="end" transform="translate(201.63157894736847,7) rotate(270) translate(0,5)" style="font-family: sans-serif; font-size: 16px; fill: #000; opacity: 1;">0800-0859</text><text text-anchor="end" transform="translate(259.5263157894737,7) rotate(270) translate(0,5)" style="font-family: sans-serif; font-size: 16px; fill: #000; opacity: 1;">0900-0959</text><text text-anchor="end" transform="translate(317.42105263157896,7) rotate(270) translate(0,5)" style="font-family: sans-serif; font-size: 16px; fill: #000; opacity: 1;">1000-1059</text><text text-anchor="end" transform="translate(375.3157894736842,7) rotate(270) translate(0,5)" style="font-family: sans-serif; font-size: 16px; fill: #000; opacity: 1;">1100-1159</text><text text-anchor="end" transform="translate(433.2105263157895,7) rotate(270) translate(0,5)" style="font-family: sans-serif; font-size: 16px; fill: #000; opacity: 1;">1200-1259</text><text text-anchor="end" transform="translate(491.10526315789474,7) rotate(270) translate(0,5)" style="font-family: sans-serif; font-size: 16px; fill: #000; opacity: 1;">1300-1359</text><text text-anchor="end" transform="translate(549,7) rotate(270) translate(0,5)" style="font-family: sans-serif; font-size: 16px; fill: #000; opacity: 1;">1400-1459</text><text text-anchor="end" transform="translate(606.8947368421053,7) rotate(270) translate(0,5)" style="font-family: sans-serif; font-size: 16px; fill: #000; opacity: 1;">1500-1559</text><text text-anchor="end" transform="translate(664.7894736842106,7) rotate(270) translate(0,5)" style="font-family: sans-serif; font-size: 16px; fill: #000; opacity: 1;">1600-1659</text><text text-anchor="end" transform="translate(722.6842105263158,7) rotate(270) translate(0,5)" style="font-family: sans-serif; font-size: 16px; fill: #000; opacity: 1;">1700-1759</text><text text-anchor="end" transform="translate(780.578947368421,7) rotate(270) translate(0,5)" style="font-family: sans-serif; font-size: 16px; fill: #000; opacity: 1;">1800-1859</text><text text-anchor="end" transform="translate(838.4736842105264,7) rotate(270) translate(0,5)" style="font-family: sans-serif; font-size: 16px; fill: #000; opacity: 1;">1900-1959</text><text text-anchor="end" transform="translate(896.3684210526317,7) rotate(270) translate(0,5)" style="font-family: sans-serif; font-size: 16px; fill: #000; opacity: 1;">2000-2059</text><text text-anchor="end" transform="translate(954.2631578947369,7) rotate(270) translate(0,5)" style="font-family: sans-serif; font-size: 16px; fill: #000; opacity: 1;">2100-2159</text><text text-anchor="end" transform="translate(1012.1578947368421,7) rotate(270) translate(0,5)" style="font-family: sans-serif; font-size: 16px; fill: #000; opacity: 1;">2200-2259</text><text text-anchor="end" transform="translate(1070.0526315789473,7) rotate(270) translate(0,5)" style="font-family: sans-serif; font-size: 16px; fill: #000; opacity: 1;">2300-2359</text></g><g class="mark-rule role-axis-domain" style="pointer-events: none;"><line transform="translate(0,0)" x2="1100" y2="0" style="fill: none; stroke: #888; stroke-width: 1; opacity: 1;"></line></g><g class="mark-text role-axis-title" style="pointer-events: none;"><text text-anchor="middle" transform="translate(550,99.515625)" style="font-family: sans-serif; font-size: 14px; font-weight: bold; fill: #000; opacity: 1;">Time Block</text></g></g></g></g><g class="mark-group role-axis"><g transform="translate(0.5,0.5)"><path class="background" d="M0,0h0v0h0Z" style="pointer-events: none; fill: none;"></path><g><g class="mark-rule role-axis-tick" style="pointer-events: none;"><line transform="translate(0,450)" x2="-5" y2="0" style="fill: none; stroke: #888; stroke-width: 1; opacity: 1;"></line><line transform="translate(0,415)" x2="-5" y2="0" style="fill: none; stroke: #888; stroke-width: 1; opacity: 1;"></line><line transform="translate(0,381)" x2="-5" y2="0" style="fill: none; stroke: #888; stroke-width: 1; opacity: 1;"></line><line transform="translate(0,346)" x2="-5" y2="0" style="fill: none; stroke: #888; stroke-width: 1; opacity: 1;"></line><line transform="translate(0,312)" x2="-5" y2="0" style="fill: none; stroke: #888; stroke-width: 1; opacity: 1;"></line><line transform="translate(0,277)" x2="-5" y2="0" style="fill: none; stroke: #888; stroke-width: 1; opacity: 1;"></line><line transform="translate(0,242)" x2="-5" y2="0" style="fill: none; stroke: #888; stroke-width: 1; opacity: 1;"></line><line transform="translate(0,208)" x2="-5" y2="0" style="fill: none; stroke: #888; stroke-width: 1; opacity: 1;"></line><line transform="translate(0,173)" x2="-5" y2="0" style="fill: none; stroke: #888; stroke-width: 1; opacity: 1;"></line><line transform="translate(0,138)" x2="-5" y2="0" style="fill: none; stroke: #888; stroke-width: 1; opacity: 1;"></line><line transform="translate(0,104)" x2="-5" y2="0" style="fill: none; stroke: #888; stroke-width: 1; opacity: 1;"></line><line transform="translate(0,69)" x2="-5" y2="0" style="fill: none; stroke: #888; stroke-width: 1; opacity: 1;"></line><line transform="translate(0,35)" x2="-5" y2="0" style="fill: none; stroke: #888; stroke-width: 1; opacity: 1;"></line><line transform="translate(0,0)" x2="-5" y2="0" style="fill: none; stroke: #888; stroke-width: 1; opacity: 1;"></line></g><g class="mark-text role-axis-label" style="pointer-events: none;"><text text-anchor="end" transform="translate(-7,455)" style="font-family: sans-serif; font-size: 16px; fill: #000; opacity: 1;">0.0</text><text text-anchor="end" transform="translate(-7,420.38461538461536)" style="font-family: sans-serif; font-size: 16px; fill: #000; opacity: 1;">0.2</text><text text-anchor="end" transform="translate(-7,385.7692307692308)" style="font-family: sans-serif; font-size: 16px; fill: #000; opacity: 1;">0.4</text><text text-anchor="end" transform="translate(-7,351.1538461538462)" style="font-family: sans-serif; font-size: 16px; fill: #000; opacity: 1;">0.6</text><text text-anchor="end" transform="translate(-7,316.53846153846155)" style="font-family: sans-serif; font-size: 16px; fill: #000; opacity: 1;">0.8</text><text text-anchor="end" transform="translate(-7,281.9230769230769)" style="font-family: sans-serif; font-size: 16px; fill: #000; opacity: 1;">1.0</text><text text-anchor="end" transform="translate(-7,247.30769230769232)" style="font-family: sans-serif; font-size: 16px; fill: #000; opacity: 1;">1.2</text><text text-anchor="end" transform="translate(-7,212.6923076923077)" style="font-family: sans-serif; font-size: 16px; fill: #000; opacity: 1;">1.4</text><text text-anchor="end" transform="translate(-7,178.07692307692304)" style="font-family: sans-serif; font-size: 16px; fill: #000; opacity: 1;">1.6</text><text text-anchor="end" transform="translate(-7,143.46153846153845)" style="font-family: sans-serif; font-size: 16px; fill: #000; opacity: 1;">1.8</text><text text-anchor="end" transform="translate(-7,108.84615384615387)" style="font-family: sans-serif; font-size: 16px; fill: #000; opacity: 1;">2.0</text><text text-anchor="end" transform="translate(-7,74.23076923076923)" style="font-family: sans-serif; font-size: 16px; fill: #000; opacity: 1;">2.2</text><text text-anchor="end" transform="translate(-7,39.61538461538464)" style="font-family: sans-serif; font-size: 16px; fill: #000; opacity: 1;">2.4</text><text text-anchor="end" transform="translate(-7,5)" style="font-family: sans-serif; font-size: 16px; fill: #000; opacity: 1;">2.6</text></g><g class="mark-rule role-axis-domain" style="pointer-events: none;"><line transform="translate(0,450)" x2="0" y2="-450" style="fill: none; stroke: #888; stroke-width: 1; opacity: 1;"></line></g><g class="mark-text role-axis-title" style="pointer-events: none;"><text text-anchor="middle" transform="translate(-34.2421875,225) rotate(-90) translate(0,-3)" style="font-family: sans-serif; font-size: 14px; font-weight: bold; fill: #000; opacity: 1;">Disrupt_Pct</text></g></g></g></g></g></g></g></g></svg>