<svg class="marks" width="1158" height="552" viewBox="0 0 1158 552" version="1.1" xmlns="http://www.w3.org/2000/svg" xmlns:xlink="http://www.w3.org/1999/xlink"><g transform="translate(53,41)"><g class="mark-group role-frame root"><g transform="translate(0,0)"><path class="background" d="M0.5,0.5h1100v450h-1100Z" style="fill: none; stroke: #ddd;"></path><g><g class="mark-group role-axis"><g transform="translate(0.5,0.5)"><path class="background" d="M0,0h0v0h0Z" style="pointer-events: none; fill: none;"></path><g><g class="mark-rule role-axis-grid" style="pointer-events: none;"><line transform="translate(0,450)" x2="1100" y2="0" style="fill: none; stroke: #ddd; stroke-width: 1; opacity: 1;"></line><line transform="translate(0,409)" x2="1100" y2="0" style="fill: none; stroke: #ddd; stroke-width: 1; opacity: 1;"></line><line transform="translate(0,368)" x2="1100" y2="0" style="fill: none; stroke: #ddd; stroke-width: 1; opacity: 1;"></line><line transform="translate(0,327)" x2="1100" y2="0" style="fill: none; stroke: #ddd; stroke-width: 1; opacity: 1;"></line><line transform="translate(0,286)" x2="1100" y2="0" style="fill: none; stroke: #ddd; stroke-width: 1; opacity: 1;"></line><line transform="translate(0,245)" x2="1100" y2="0" style="fill: none; stroke: #ddd; stroke-width: 1; opacity: 1;"></line><line transform="translate(0,205)" x2="1100" y2="0" style="fill: none; stroke: #ddd; stroke-width: 1; opacity: 1;"></line><line transform="translate(0,164)" x2="1100" y2="0" style="fill: none; stroke: #ddd; stroke-width: 1; opacity: 1;"></line><line transform="translate(0,123)" x2="1100" y2="0" style="fill: none; stroke: #ddd; stroke-width: 1; opacity: 1;"></line><line transform="translate(0,82)" x2="1100" y2="0" style="fill: none; stroke: #ddd; stroke-width: 1; opacity: 1;"></line><line transform="translate(0,41)" x2="1100" y2="0" style="fill: none; stroke: #ddd; stroke-width: 1; opacity: 1;"></line><line transform="translate(0,0)" x2="1100" y2="0" style="fill: none; stroke: #ddd; stroke-width: 1; opacity: 1;"></line></g></g></g></g><g class="mark-rect role-mark marks"><path d="M1018.875,346.22069952422925h24.75v103.77930047577075h-24.75Z" style="fill: #ff9da6;"></path><path d="M716.375,282.7705272886315h24.75v167.2294727113685h-24.75Z" style="fill: #b279a2;"></path><path d="M963.875,332.55898777481514h24.75v117.44101222518486h-24.75Z" style="fill: #eeca3b;"></path><path d="M578.875,281.40371595323353h24.75v168.59628404676647h-24.75Z" style="fill: #f58518;"></path><path d="M413.875,227.5022030471831h24.75v222.4977969528169h-24.75Z" style="fill: #eeca3b;"></path><path d="M28.875,303.83600281944877h24.75v146.16399718055123h-24.75Z" style="fill: #f58518;"></path><path d="M743.875,316.1526665070728h24.75v133.8473334929272h-24.75Z" style="fill: #ff9da6;"></path><path d="M358.875,394.6092289969389h24.75v55.390771003061104h-24.75Z" style="fill: #72b7b2;"></path><path d="M798.875,349.9439503404955h24.75v100.05604965950448h-24.75Z" style="fill: #bab0ac;"></path><path d="M1046.375,287.49232186732183h24.75v162.50767813267817h-24.75Z" style="fill: #9d755d;"></path><path d="M56.375,276.90136818377323h24.75v173.09863181622677h-24.75Z" style="fill: #e45756;"></path><path d="M386.375,221.98094653844072h24.75v228.01905346155928h-24.75Z" style="fill: #54a24b;"></path><path d="M166.375,294.98289952696575h24.75v155.01710047303425h-24.75Z" style="fill: #b279a2;"></path><path d="M1073.875,266.60590163484454h24.75v183.39409836515546h-24.75Z" style="fill: #bab0ac;"></path><path d="M826.375,189.37883142802502h24.75v260.621168571975h-24.75Z" style="fill: #4c78a8;"></path><path d="M331.375,226.06116985254033h24.75v223.93883014745967h-24.75Z" style="fill: #e45756;"></path><path d="M661.375,232.83093860787363h24.75v217.16906139212637h-24.75Z" style="fill: #54a24b;"></path><path d="M881.375,308.0539379675062h24.75v141.94606203249378h-24.75Z" style="fill: #e45756;"></path><path d="M193.875,134.46357712625678h24.75v315.5364228737432h-24.75Z" style="fill: #ff9da6;"></path><path d="M633.875,229.89046487591486h24.75v220.10953512408514h-24.75Z" style="fill: #72b7b2;"></path><path d="M111.375,220.33275153561033h24.75v229.66724846438967h-24.75Z" style="fill: #54a24b;"></path><path d="M468.875,152.41272438610082h24.75v297.5872756138992h-24.75Z" style="fill: #ff9da6;"></path><path d="M991.375,377.0405721672521h24.75v72.9594278327479h-24.75Z" style="fill: #b279a2;"></path><path d="M303.875,83.46049761840504h24.75v366.53950238159496h-24.75Z" style="fill: #f58518;"></path><path d="M138.875,239.11473580013833h24.75v210.88526419986167h-24.75Z" style="fill: #eeca3b;"></path><path d="M551.375,8.253644050129765h24.75v441.74635594987024h-24.75Z" style="fill: #4c78a8;"></path><path d="M276.375,302.3364374863719h24.75v147.6635625136281h-24.75Z" style="fill: #4c78a8;"></path><path d="M83.875,181.9724409503549h24.75v268.0275590496451h-24.75Z" style="fill: #72b7b2;"></path><path d="M606.375,240.67372309156045h24.75v209.32627690843955h-24.75Z" style="fill: #e45756;"></path><path d="M908.875,373.3740036844416h24.75v76.62599631555838h-24.75Z" style="fill: #72b7b2;"></path><path d="M688.875,326.52267362569046h24.75v123.47732637430954h-24.75Z" style="fill: #eeca3b;"></path><path d="M496.375,329.7600002828657h24.75v120.23999971713431h-24.75Z" style="fill: #9d755d;"></path><path d="M853.875,360.4430177951755h24.75v89.55698220482452h-24.75Z" style="fill: #f58518;"></path><path d="M936.375,241.61456813339592h24.75v208.38543186660408h-24.75Z" style="fill: #54a24b;"></path><path d="M441.375,245.24060727302626h24.75v204.75939272697374h-24.75Z" style="fill: #b279a2;"></path><path d="M523.875,314.37812965446597h24.75v135.62187034553403h-24.75Z" style="fill: #bab0ac;"></path><path d="M221.375,317.1906974408717h24.75v132.8093025591283h-24.75Z" style="fill: #9d755d;"></path><path d="M248.875,255.6720799020385h24.75v194.3279200979615h-24.75Z" style="fill: #bab0ac;"></path><path d="M771.375,207.35850605864331h24.75v242.64149394135669h-24.75Z" style="fill: #9d755d;"></path><path d="M1.375,313.95276230891034h24.75v136.04723769108966h-24.75Z" style="fill: #4c78a8;"></path></g><g class="mark-text role-title" style="pointer-events: none;"><text text-anchor="middle" transform="translate(526,-16)" style="font-family: sans-serif; font-size: 24px; font-weight: bold; fill: #000; opacity: 1;">Average Disruption Cost per Customer</text></g><g class="mark-group role-axis"><g transform="translate(0.5,450.5)"><path class="background" d="M0,0h0v0h0Z" style="pointer-events: none; fill: none;"></path><g><g class="mark-rule role-axis-tick" style="pointer-events: none;"><line transform="translate(13,0)" x2="0" y2="5" style="fill: none; stroke: #888; stroke-width: 1; opacity: 1;"></line><line transform="translate(40,0)" x2="0" y2="5" style="fill: none; stroke: #888; stroke-width: 1; opacity: 1;"></line><line transform="translate(68,0)" x2="0" y2="5" style="fill: none; stroke: #888; stroke-width: 1; opacity: 1;"></line><line transform="translate(95,0)" x2="0" y2="5" style="fill: none; stroke: #888; stroke-width: 1; opacity: 1;"></line><line transform="translate(123,0)" x2="0" y2="5" style="fill: none; stroke: #888; stroke-width: 1; opacity: 1;"></line><line transform="translate(150,0)" x2="0" y2="5" style="fill: none; stroke: #888; stroke-width: 1; opacity: 1;"></line><line transform="translate(178,0)" x2="0" y2="5" style="fill: none; stroke: #888; stroke-width: 1; opacity: 1;"></line><line transform="translate(205,0)" x2="0" y2="5" style="fill: none; stroke: #888; stroke-width: 1; opacity: 1;"></line><line transform="translate(233,0)" x2="0" y2="5" style="fill: none; stroke: #888; stroke-width: 1; opacity: 1;"></line><line transform="translate(260,0)" x2="0" y2="5" style="fill: none; stroke: #888; stroke-width: 1; opacity: 1;"></line><line transform="translate(288,0)" x2="0" y2="5" style="fill: none; stroke: #888; stroke-width: 1; opacity: 1;"></line><line transform="translate(315,0)" x2="0" y2="5" style="fill: none; stroke: #888; stroke-width: 1; opacity: 1;"></line><line transform="translate(343,0)" x2="0" y2="5" style="fill: none; stroke: #888; stroke-width: 1; opacity: 1;"></line><line transform="translate(370,0)" x2="0" y2="5" style="fill: none; stroke: #888; stroke-width: 1; opacity: 1;"></line><line transform="translate(398,0)" x2="0" y2="5" style="fill: none; stroke: #888; stroke-width: 1; opacity: 1;"></line><line transform="translate(425,0)" x2="0" y2="5" style="fill: none; stroke: #888; stroke-width: 1; opacity: 1;"></line><line transform="translate(453,0)" x2="0" y2="5" style="fill: none; stroke: #888; stroke-width: 1; opacity: 1;"></line><line transform="translate(480,0)" x2="0" y2="5" style="fill: none; stroke: #888; stroke-width: 1; opacity: 1;"></line><line transform="translate(508,0)" x2="0" y2="5" style="fill: none; stroke: #888; stroke-width: 1; opacity: 1;"></line><line transform="translate(535,0)" x2="0" y2="5" style="fill: none; stroke: #888; stroke-width: 1; opacity: 1;"></line><line transform="translate(563,0)" x2="0" y2="5" style="fill: none; stroke: #888; stroke-width: 1; opacity: 1;"></line><line transform="translate(590,0)" x2="0" y2="5" style="fill: none; stroke: #888; stroke-width: 1; opacity: 1;"></line><line transform="translate(618,0)" x2="0" y2="5" style="fill: none; stroke: #888; stroke-width: 1; opacity: 1;"></line><line transform="translate(645,0)" x2="0" y2="5" style="fill: none; stroke: #888; stroke-width: 1; opacity: 1;"></line><line transform="translate(673,0)" x2="0" y2="5" style="fill: none; stroke: #888; stroke-width: 1; opacity: 1;"></line><line transform="translate(700,0)" x2="0" y2="5" style="fill: none; stroke: #888; stroke-width: 1; opacity: 1;"></line><line transform="translate(728,0)" x2="0" y2="5" style="fill: none; stroke: #888; stroke-width: 1; opacity: 1;"></line><line transform="translate(755,0)" x2="0" y2="5" style="fill: none; stroke: #888; stroke-width: 1; opacity: 1;"></line><line transform="translate(783,0)" x2="0" y2="5" style="fill: none; stroke: #888; stroke-width: 1; opacity: 1;"></line><line transform="translate(810,0)" x2="0" y2="5" style="fill: none; stroke: #888; stroke-width: 1; opacity: 1;"></line><line transform="translate(838,0)" x2="0" y2="5" style="fill: none; stroke: #888; stroke-width: 1; opacity: 1;"></line><line transform="translate(865,0)" x2="0" y2="5" style="fill: none; stroke: #888; stroke-width: 1; opacity: 1;"></line><line transform="translate(893,0)" x2="0" y2="5" style="fill: none; stroke: #888; stroke-width: 1; opacity: 1;"></line><line transform="translate(920,0)" x2="0" y2="5" style="fill: none; stroke: #888; stroke-width: 1; opacity: 1;"></line><line transform="translate(948,0)" x2="0" y2="5" style="fill: none; stroke: #888; stroke-width: 1; opacity: 1;"></line><line transform="translate(975,0)" x2="0" y2="5" style="fill: none; stroke: #888; stroke-width: 1; opacity: 1;"></line><line transform="translate(1003,0)" x2="0" y2="5" style="fill: none; stroke: #888; stroke-width: 1; opacity: 1;"></line><line transform="translate(1030,0)" x2="0" y2="5" style="fill: none; stroke: #888; stroke-width: 1; opacity: 1;"></line><line transform="translate(1058,0)" x2="0" y2="5" style="fill: none; stroke: #888; stroke-width: 1; opacity: 1;"></line><line transform="translate(1085,0)" x2="0" y2="5" style="fill: none; stroke: #888; stroke-width: 1; opacity: 1;"></line></g><g class="mark-text role-axis-label" style="pointer-events: none;"><text text-anchor="end" transform="translate(12.75,7) rotate(270) translate(0,4)" style="font-family: sans-serif; font-size: 12px; fill: #000; opacity: 1;">ATL</text><text text-anchor="end" transform="translate(40.25,7) rotate(270) translate(0,4)" style="font-family: sans-serif; font-size: 12px; fill: #000; opacity: 1;">AUS</text><text text-anchor="end" transform="translate(67.75,7) rotate(270) translate(0,4)" style="font-family: sans-serif; font-size: 12px; fill: #000; opacity: 1;">BNA</text><text text-anchor="end" transform="translate(95.25,7) rotate(270) translate(0,4)" style="font-family: sans-serif; font-size: 12px; fill: #000; opacity: 1;">BOS</text><text text-anchor="end" transform="translate(122.75,7) rotate(270) translate(0,4)" style="font-family: sans-serif; font-size: 12px; fill: #000; opacity: 1;">BWI</text><text text-anchor="end" transform="translate(150.25,7) rotate(270) translate(0,4)" style="font-family: sans-serif; font-size: 12px; fill: #000; opacity: 1;">CLT</text><text text-anchor="end" transform="translate(177.75,7) rotate(270) translate(0,4)" style="font-family: sans-serif; font-size: 12px; fill: #000; opacity: 1;">DAL</text><text text-anchor="end" transform="translate(205.25,7) rotate(270) translate(0,4)" style="font-family: sans-serif; font-size: 12px; fill: #000; opacity: 1;">DCA</text><text text-anchor="end" transform="translate(232.75,7) rotate(270) translate(0,4)" style="font-family: sans-serif; font-size: 12px; fill: #000; opacity: 1;">DEN</text><text text-anchor="end" transform="translate(260.25,7) rotate(270) translate(0,4)" style="font-family: sans-serif; font-size: 12px; fill: #000; opacity: 1;">DFW</text><text text-anchor="end" transform="translate(287.75,7) rotate(270) translate(0,4)" style="font-family: sans-serif; font-size: 12px; fill: #000; opacity: 1;">DTW</text><text text-anchor="end" transform="translate(315.25,7) rotate(270) translate(0,4)" style="font-family: sans-serif; font-size: 12px; fill: #000; opacity: 1;">EWR</text><text text-anchor="end" transform="translate(342.75,7) rotate(270) translate(0,4)" style="font-family: sans-serif; font-size: 12px; fill: #000; opacity: 1;">FLL</text><text text-anchor="end" transform="translate(370.25,7) rotate(270) translate(0,4)" style="font-family: sans-serif; font-size: 12px; fill: #000; opacity: 1;">HNL</text><text text-anchor="end" transform="translate(397.75,7) rotate(270) translate(0,4)" style="font-family: sans-serif; font-size: 12px; fill: #000; opacity: 1;">HOU</text><text text-anchor="end" transform="translate(425.25,7) rotate(270) translate(0,4)" style="font-family: sans-serif; font-size: 12px; fill: #000; opacity: 1;">IAD</text><text text-anchor="end" transform="translate(452.75,7) rotate(270) translate(0,4)" style="font-family: sans-serif; font-size: 12px; fill: #000; opacity: 1;">IAH</text><text text-anchor="end" transform="translate(480.25,7) rotate(270) translate(0,4)" style="font-family: sans-serif; font-size: 12px; fill: #000; opacity: 1;">JFK</text><text text-anchor="end" transform="translate(507.75,7) rotate(270) translate(0,4)" style="font-family: sans-serif; font-size: 12px; fill: #000; opacity: 1;">LAS</text><text text-anchor="end" transform="translate(535.25,7) rotate(270) translate(0,4)" style="font-family: sans-serif; font-size: 12px; fill: #000; opacity: 1;">LAX</text><text text-anchor="end" transform="translate(562.75,7) rotate(270) translate(0,4)" style="font-family: sans-serif; font-size: 12px; fill: #000; opacity: 1;">LGA</text><text text-anchor="end" transform="translate(590.25,7) rotate(270) translate(0,4)" style="font-family: sans-serif; font-size: 12px; fill: #000; opacity: 1;">MCI</text><text text-anchor="end" transform="translate(617.75,7) rotate(270) translate(0,4)" style="font-family: sans-serif; font-size: 12px; fill: #000; opacity: 1;">MCO</text><text text-anchor="end" transform="translate(645.25,7) rotate(270) translate(0,4)" style="font-family: sans-serif; font-size: 12px; fill: #000; opacity: 1;">MDW</text><text text-anchor="end" transform="translate(672.75,7) rotate(270) translate(0,4)" style="font-family: sans-serif; font-size: 12px; fill: #000; opacity: 1;">MIA</text><text text-anchor="end" transform="translate(700.25,7) rotate(270) translate(0,4)" style="font-family: sans-serif; font-size: 12px; fill: #000; opacity: 1;">MSP</text><text text-anchor="end" transform="translate(727.75,7) rotate(270) translate(0,4)" style="font-family: sans-serif; font-size: 12px; fill: #000; opacity: 1;">MSY</text><text text-anchor="end" transform="translate(755.25,7) rotate(270) translate(0,4)" style="font-family: sans-serif; font-size: 12px; fill: #000; opacity: 1;">OAK</text><text text-anchor="end" transform="translate(782.75,7) rotate(270) translate(0,4)" style="font-family: sans-serif; font-size: 12px; fill: #000; opacity: 1;">ORD</text><text text-anchor="end" transform="translate(810.25,7) rotate(270) translate(0,4)" style="font-family: sans-serif; font-size: 12px; fill: #000; opacity: 1;">PDX</text><text text-anchor="end" transform="translate(837.75,7) rotate(270) translate(0,4)" style="font-family: sans-serif; font-size: 12px; fill: #000; opacity: 1;">PHL</text><text text-anchor="end" transform="translate(865.25,7) rotate(270) translate(0,4)" style="font-family: sans-serif; font-size: 12px; fill: #000; opacity: 1;">PHX</text><text text-anchor="end" transform="translate(892.75,7) rotate(270) translate(0,4)" style="font-family: sans-serif; font-size: 12px; fill: #000; opacity: 1;">SAN</text><text text-anchor="end" transform="translate(920.25,7) rotate(270) translate(0,4)" style="font-family: sans-serif; font-size: 12px; fill: #000; opacity: 1;">SEA</text><text text-anchor="end" transform="translate(947.75,7) rotate(270) translate(0,4)" style="font-family: sans-serif; font-size: 12px; fill: #000; opacity: 1;">SFO</text><text text-anchor="end" transform="translate(975.25,7) rotate(270) translate(0,4)" style="font-family: sans-serif; font-size: 12px; fill: #000; opacity: 1;">SJC</text><text text-anchor="end" transform="translate(1002.75,7) rotate(270) translate(0,4)" style="font-family: sans-serif; font-size: 12px; fill: #000; opacity: 1;">SLC</text><text text-anchor="end" transform="translate(1030.25,7) rotate(270) translate(0,4)" style="font-family: sans-serif; font-size: 12px; fill: #000; opacity: 1;">SMF</text><text text-anchor="end" transform="translate(1057.75,7) rotate(270) translate(0,4)" style="font-family: sans-serif; font-size: 12px; fill: #000; opacity: 1;">STL</text><text text-anchor="end" transform="translate(1085.25,7) rotate(270) translate(0,4)" style="font-family: sans-serif; font-size: 12px; fill: #000; opacity: 1;">TPA</text></g><g class="mark-rule role-axis-domain" style="pointer-events: none;"><line transform="translate(0,0)" x2="1100" y2="0" style="fill: none; stroke: #888; stroke-width: 1; opacity: 1;"></line></g><g class="mark-text role-axis-title" style="pointer-events: none;"><text text-anchor="middle" transform="translate(550,50.98828125)" style="font-family: sans-serif; font-size: 12px; font-weight: bold; fill: #000; opacity: 1;">Airport</text></g></g></g></g><g class="mark-group role-axis"><g transform="translate(0.5,0.5)"><path class="background" d="M0,0h0v0h0Z" style="pointer-events: none; fill: none;"></path><g><g class="mark-rule role-axis-tick" style="pointer-events: none;"><line transform="translate(0,450)" x2="-5" y2="0" style="fill: none; stroke: #888; stroke-width: 1; opacity: 1;"></line><line transform="translate(0,409)" x2="-5" y2="0" style="fill: none; stroke: #888; stroke-width: 1; opacity: 1;"></line><line transform="translate(0,368)" x2="-5" y2="0" style="fill: none; stroke: #888; stroke-width: 1; opacity: 1;"></line><line transform="translate(0,327)" x2="-5" y2="0" style="fill: none; stroke: #888; stroke-width: 1; opacity: 1;"></line><line transform="translate(0,286)" x2="-5" y2="0" style="fill: none; stroke: #888; stroke-width: 1; opacity: 1;"></line><line transform="translate(0,245)" x2="-5" y2="0" style="fill: none; stroke: #888; stroke-width: 1; opacity: 1;"></line><line transform="translate(0,205)" x2="-5" y2="0" style="fill: none; stroke: #888; stroke-width: 1; opacity: 1;"></line><line transform="translate(0,164)" x2="-5" y2="0" style="fill: none; stroke: #888; stroke-width: 1; opacity: 1;"></line><line transform="translate(0,123)" x2="-5" y2="0" style="fill: none; stroke: #888; stroke-width: 1; opacity: 1;"></line><line transform="translate(0,82)" x2="-5" y2="0" style="fill: none; stroke: #888; stroke-width: 1; opacity: 1;"></line><line transform="translate(0,41)" x2="-5" y2="0" style="fill: none; stroke: #888; stroke-width: 1; opacity: 1;"></line><line transform="translate(0,0)" x2="-5" y2="0" style="fill: none; stroke: #888; stroke-width: 1; opacity: 1;"></line></g><g class="mark-text role-axis-label" style="pointer-events: none;"><text text-anchor="end" transform="translate(-7,454)" style="font-family: sans-serif; font-size: 12px; fill: #000; opacity: 1;">0</text><text text-anchor="end" transform="translate(-7,413.09090909090907)" style="font-family: sans-serif; font-size: 12px; fill: #000; opacity: 1;">2</text><text text-anchor="end" transform="translate(-7,372.1818181818182)" style="font-family: sans-serif; font-size: 12px; fill: #000; opacity: 1;">4</text><text text-anchor="end" transform="translate(-7,331.27272727272725)" style="font-family: sans-serif; font-size: 12px; fill: #000; opacity: 1;">6</text><text text-anchor="end" transform="translate(-7,290.3636363636364)" style="font-family: sans-serif; font-size: 12px; fill: #000; opacity: 1;">8</text><text text-anchor="end" transform="translate(-7,249.45454545454547)" style="font-family: sans-serif; font-size: 12px; fill: #000; opacity: 1;">10</text><text text-anchor="end" transform="translate(-7,208.54545454545456)" style="font-family: sans-serif; font-size: 12px; fill: #000; opacity: 1;">12</text><text text-anchor="end" transform="translate(-7,167.63636363636363)" style="font-family: sans-serif; font-size: 12px; fill: #000; opacity: 1;">14</text><text text-anchor="end" transform="translate(-7,126.72727272727269)" style="font-family: sans-serif; font-size: 12px; fill: #000; opacity: 1;">16</text><text text-anchor="end" transform="translate(-7,85.81818181818181)" style="font-family: sans-serif; font-size: 12px; fill: #000; opacity: 1;">18</text><text text-anchor="end" transform="translate(-7,44.909090909090935)" style="font-family: sans-serif; font-size: 12px; fill: #000; opacity: 1;">20</text><text text-anchor="end" transform="translate(-7,4)" style="font-family: sans-serif; font-size: 12px; fill: #000; opacity: 1;">22</text></g><g class="mark-rule role-axis-domain" style="pointer-events: none;"><line transform="translate(0,450)" x2="0" y2="-450" style="fill: none; stroke: #888; stroke-width: 1; opacity: 1;"></line></g><g class="mark-text role-axis-title" style="pointer-events: none;"><text text-anchor="middle" transform="translate(-34,225) rotate(-90) translate(0,-3)" style="font-family: sans-serif; font-size: 12px; font-weight: bold; fill: #000; opacity: 1;">Avg_Total_Cost</text></g></g></g></g></g></g></g></g></svg>